<?xml version="1.0" encoding="UTF-8" standalone="no"?>
<!DOCTYPE svg PUBLIC "-//W3C//DTD SVG 1.1//EN"
 "http://www.w3.org/Graphics/SVG/1.1/DTD/svg11.dtd">
<!-- Generated by graphviz version 2.43.0 (0)
 -->
<!-- Title: %3 Pages: 1 -->
<svg width="532pt" height="100pt"
 viewBox="0.00 0.00 532.00 100.00" xmlns="http://www.w3.org/2000/svg" xmlns:xlink="http://www.w3.org/1999/xlink">
<g id="graph0" class="graph" transform="scale(1 1) rotate(0) translate(4 96)">
<title>%3</title>
<polygon fill="white" stroke="transparent" points="-4,4 -4,-96 528,-96 528,4 -4,4"/>
<!-- 128626939513024 -->
<g id="node1" class="node">
<title>128626939513024</title>
<polygon fill="none" stroke="black" points="0.5,-55.5 0.5,-91.5 199.5,-91.5 199.5,-55.5 0.5,-55.5"/>
<text text-anchor="middle" x="13" y="-69.8" font-family="Times,serif" font-size="14.00">a</text>
<polyline fill="none" stroke="black" points="25.5,-55.5 25.5,-91.5 "/>
<text text-anchor="middle" x="58.5" y="-69.8" font-family="Times,serif" font-size="14.00">2.0000</text>
<polyline fill="none" stroke="black" points="91.5,-55.5 91.5,-91.5 "/>
<text text-anchor="middle" x="145.5" y="-69.8" font-family="Times,serif" font-size="14.00">grad: 0.0000</text>
</g>
<!-- 128626939526992* -->
<g id="node3" class="node">
<title>128626939526992*</title>
<ellipse fill="none" stroke="black" cx="263" cy="-45.5" rx="27" ry="18"/>
<text text-anchor="middle" x="263" y="-41.8" font-family="Times,serif" font-size="14.00">*</text>
</g>
<!-- 128626939513024&#45;&gt;128626939526992* -->
<g id="edge3" class="edge">
<title>128626939513024&#45;&gt;128626939526992*</title>
<path fill="none" stroke="black" d="M199.75,-56.33C209.27,-54.67 218.43,-53.08 226.66,-51.65"/>
<polygon fill="black" stroke="black" points="227.29,-55.09 236.54,-49.93 226.09,-48.19 227.29,-55.09"/>
</g>
<!-- 128626939526992 -->
<g id="node2" class="node">
<title>128626939526992</title>
<polygon fill="none" stroke="black" points="326,-27.5 326,-63.5 524,-63.5 524,-27.5 326,-27.5"/>
<text text-anchor="middle" x="338" y="-41.8" font-family="Times,serif" font-size="14.00">c</text>
<polyline fill="none" stroke="black" points="350,-27.5 350,-63.5 "/>
<text text-anchor="middle" x="383" y="-41.8" font-family="Times,serif" font-size="14.00">6.0000</text>
<polyline fill="none" stroke="black" points="416,-27.5 416,-63.5 "/>
<text text-anchor="middle" x="470" y="-41.8" font-family="Times,serif" font-size="14.00">grad: 0.0000</text>
</g>
<!-- 128626939526992*&#45;&gt;128626939526992 -->
<g id="edge1" class="edge">
<title>128626939526992*&#45;&gt;128626939526992</title>
<path fill="none" stroke="black" d="M290.06,-45.5C297.54,-45.5 306.2,-45.5 315.44,-45.5"/>
<polygon fill="black" stroke="black" points="315.67,-49 325.67,-45.5 315.67,-42 315.67,-49"/>
</g>
<!-- 128626950092224 -->
<g id="node4" class="node">
<title>128626950092224</title>
<polygon fill="none" stroke="black" points="0,-0.5 0,-36.5 200,-36.5 200,-0.5 0,-0.5"/>
<text text-anchor="middle" x="13" y="-14.8" font-family="Times,serif" font-size="14.00">b</text>
<polyline fill="none" stroke="black" points="26,-0.5 26,-36.5 "/>
<text text-anchor="middle" x="59" y="-14.8" font-family="Times,serif" font-size="14.00">3.0000</text>
<polyline fill="none" stroke="black" points="92,-0.5 92,-36.5 "/>
<text text-anchor="middle" x="146" y="-14.8" font-family="Times,serif" font-size="14.00">grad: 0.0000</text>
</g>
<!-- 128626950092224&#45;&gt;128626939526992* -->
<g id="edge2" class="edge">
<title>128626950092224&#45;&gt;128626939526992*</title>
<path fill="none" stroke="black" d="M200.21,-35.14C209.57,-36.71 218.57,-38.22 226.67,-39.58"/>
<polygon fill="black" stroke="black" points="226.31,-43.06 236.76,-41.27 227.47,-36.16 226.31,-43.06"/>
</g>
</g>
</svg>
