<?xml version="1.0" encoding="UTF-8" standalone="no"?>
<!DOCTYPE svg PUBLIC "-//W3C//DTD SVG 1.1//EN"
 "http://www.w3.org/Graphics/SVG/1.1/DTD/svg11.dtd">
<!-- Generated by graphviz version 2.43.0 (0)
 -->
<!-- Title: %3 Pages: 1 -->
<svg width="848pt" height="100pt"
 viewBox="0.00 0.00 848.00 100.00" xmlns="http://www.w3.org/2000/svg" xmlns:xlink="http://www.w3.org/1999/xlink">
<g id="graph0" class="graph" transform="scale(1 1) rotate(0) translate(4 96)">
<title>%3</title>
<polygon fill="white" stroke="transparent" points="-4,4 -4,-96 844,-96 844,4 -4,4"/>
<!-- 128626858154640 -->
<g id="node1" class="node">
<title>128626858154640</title>
<polygon fill="none" stroke="black" points="321,-55.5 321,-91.5 519,-91.5 519,-55.5 321,-55.5"/>
<text text-anchor="middle" x="333" y="-69.8" font-family="Times,serif" font-size="14.00">s</text>
<polyline fill="none" stroke="black" points="345,-55.5 345,-91.5 "/>
<text text-anchor="middle" x="378" y="-69.8" font-family="Times,serif" font-size="14.00">2.0000</text>
<polyline fill="none" stroke="black" points="411,-55.5 411,-91.5 "/>
<text text-anchor="middle" x="465" y="-69.8" font-family="Times,serif" font-size="14.00">grad: 0.0000</text>
</g>
<!-- 128626865563088* -->
<g id="node4" class="node">
<title>128626865563088*</title>
<ellipse fill="none" stroke="black" cx="582" cy="-45.5" rx="27" ry="18"/>
<text text-anchor="middle" x="582" y="-41.8" font-family="Times,serif" font-size="14.00">*</text>
</g>
<!-- 128626858154640&#45;&gt;128626865563088* -->
<g id="edge5" class="edge">
<title>128626858154640&#45;&gt;128626865563088*</title>
<path fill="none" stroke="black" d="M519.14,-56.33C528.5,-54.69 537.5,-53.11 545.61,-51.69"/>
<polygon fill="black" stroke="black" points="546.46,-55.1 555.7,-49.93 545.25,-48.2 546.46,-55.1"/>
</g>
<!-- 128626865555984 -->
<g id="node2" class="node">
<title>128626865555984</title>
<polygon fill="none" stroke="black" points="0,-0.5 0,-36.5 195,-36.5 195,-0.5 0,-0.5"/>
<text text-anchor="middle" x="10.5" y="-14.8" font-family="Times,serif" font-size="14.00"> </text>
<polyline fill="none" stroke="black" points="21,-0.5 21,-36.5 "/>
<text text-anchor="middle" x="54" y="-14.8" font-family="Times,serif" font-size="14.00">2.0000</text>
<polyline fill="none" stroke="black" points="87,-0.5 87,-36.5 "/>
<text text-anchor="middle" x="141" y="-14.8" font-family="Times,serif" font-size="14.00">grad: 0.0000</text>
</g>
<!-- 128626865567984** -->
<g id="node6" class="node">
<title>128626865567984**</title>
<ellipse fill="none" stroke="black" cx="258" cy="-18.5" rx="27" ry="18"/>
<text text-anchor="middle" x="258" y="-14.8" font-family="Times,serif" font-size="14.00">**</text>
</g>
<!-- 128626865555984&#45;&gt;128626865567984** -->
<g id="edge4" class="edge">
<title>128626865555984&#45;&gt;128626865567984**</title>
<path fill="none" stroke="black" d="M195.27,-18.5C204.22,-18.5 212.85,-18.5 220.69,-18.5"/>
<polygon fill="black" stroke="black" points="220.83,-22 230.83,-18.5 220.83,-15 220.83,-22"/>
</g>
<!-- 128626865563088 -->
<g id="node3" class="node">
<title>128626865563088</title>
<polygon fill="none" stroke="black" points="645,-27.5 645,-63.5 840,-63.5 840,-27.5 645,-27.5"/>
<text text-anchor="middle" x="655.5" y="-41.8" font-family="Times,serif" font-size="14.00"> </text>
<polyline fill="none" stroke="black" points="666,-27.5 666,-63.5 "/>
<text text-anchor="middle" x="699" y="-41.8" font-family="Times,serif" font-size="14.00">1.0000</text>
<polyline fill="none" stroke="black" points="732,-27.5 732,-63.5 "/>
<text text-anchor="middle" x="786" y="-41.8" font-family="Times,serif" font-size="14.00">grad: 0.0000</text>
</g>
<!-- 128626865563088*&#45;&gt;128626865563088 -->
<g id="edge1" class="edge">
<title>128626865563088*&#45;&gt;128626865563088</title>
<path fill="none" stroke="black" d="M609.17,-45.5C616.66,-45.5 625.32,-45.5 634.56,-45.5"/>
<polygon fill="black" stroke="black" points="634.78,-49 644.78,-45.5 634.78,-42 634.78,-49"/>
</g>
<!-- 128626865567984 -->
<g id="node5" class="node">
<title>128626865567984</title>
<polygon fill="none" stroke="black" points="322.5,-0.5 322.5,-36.5 517.5,-36.5 517.5,-0.5 322.5,-0.5"/>
<text text-anchor="middle" x="333" y="-14.8" font-family="Times,serif" font-size="14.00"> </text>
<polyline fill="none" stroke="black" points="343.5,-0.5 343.5,-36.5 "/>
<text text-anchor="middle" x="376.5" y="-14.8" font-family="Times,serif" font-size="14.00">0.5000</text>
<polyline fill="none" stroke="black" points="409.5,-0.5 409.5,-36.5 "/>
<text text-anchor="middle" x="463.5" y="-14.8" font-family="Times,serif" font-size="14.00">grad: 0.0000</text>
</g>
<!-- 128626865567984&#45;&gt;128626865563088* -->
<g id="edge3" class="edge">
<title>128626865567984&#45;&gt;128626865563088*</title>
<path fill="none" stroke="black" d="M517.76,-34.83C527.68,-36.5 537.24,-38.12 545.79,-39.56"/>
<polygon fill="black" stroke="black" points="545.24,-43.01 555.68,-41.23 546.4,-36.11 545.24,-43.01"/>
</g>
<!-- 128626865567984**&#45;&gt;128626865567984 -->
<g id="edge2" class="edge">
<title>128626865567984**&#45;&gt;128626865567984</title>
<path fill="none" stroke="black" d="M285.06,-18.5C293.03,-18.5 302.34,-18.5 312.27,-18.5"/>
<polygon fill="black" stroke="black" points="312.37,-22 322.37,-18.5 312.37,-15 312.37,-22"/>
</g>
</g>
</svg>
