<?xml version="1.0" encoding="UTF-8" standalone="no"?>
<!DOCTYPE svg PUBLIC "-//W3C//DTD SVG 1.1//EN"
 "http://www.w3.org/Graphics/SVG/1.1/DTD/svg11.dtd">
<!-- Generated by graphviz version 2.43.0 (0)
 -->
<!-- Title: %3 Pages: 1 -->
<svg width="2222pt" height="320pt"
 viewBox="0.00 0.00 2222.00 320.00" xmlns="http://www.w3.org/2000/svg" xmlns:xlink="http://www.w3.org/1999/xlink">
<g id="graph0" class="graph" transform="scale(1 1) rotate(0) translate(4 316)">
<title>%3</title>
<polygon fill="white" stroke="transparent" points="-4,4 -4,-316 2218,-316 2218,4 -4,4"/>
<!-- 128626728022048 -->
<g id="node1" class="node">
<title>128626728022048</title>
<polygon fill="none" stroke="black" points="349,-275.5 349,-311.5 544,-311.5 544,-275.5 349,-275.5"/>
<text text-anchor="middle" x="359.5" y="-289.8" font-family="Times,serif" font-size="14.00"> </text>
<polyline fill="none" stroke="black" points="370,-275.5 370,-311.5 "/>
<text text-anchor="middle" x="403" y="-289.8" font-family="Times,serif" font-size="14.00">0.0000</text>
<polyline fill="none" stroke="black" points="436,-275.5 436,-311.5 "/>
<text text-anchor="middle" x="490" y="-289.8" font-family="Times,serif" font-size="14.00">grad: 0.0000</text>
</g>
<!-- 128626728025600+ -->
<g id="node20" class="node">
<title>128626728025600+</title>
<ellipse fill="none" stroke="black" cx="618" cy="-238.5" rx="27" ry="18"/>
<text text-anchor="middle" x="618" y="-234.8" font-family="Times,serif" font-size="14.00">+</text>
</g>
<!-- 128626728022048&#45;&gt;128626728025600+ -->
<g id="edge24" class="edge">
<title>128626728022048&#45;&gt;128626728025600+</title>
<path fill="none" stroke="black" d="M526.07,-275.5C535.89,-272.74 545.73,-269.73 555,-266.5 565.57,-262.82 576.8,-258.03 586.76,-253.45"/>
<polygon fill="black" stroke="black" points="588.3,-256.6 595.86,-249.18 585.32,-250.26 588.3,-256.6"/>
</g>
<!-- 128626728022096 -->
<g id="node2" class="node">
<title>128626728022096</title>
<polygon fill="none" stroke="black" points="346.5,-220.5 346.5,-256.5 546.5,-256.5 546.5,-220.5 346.5,-220.5"/>
<text text-anchor="middle" x="357" y="-234.8" font-family="Times,serif" font-size="14.00"> </text>
<polyline fill="none" stroke="black" points="367.5,-220.5 367.5,-256.5 "/>
<text text-anchor="middle" x="403" y="-234.8" font-family="Times,serif" font-size="14.00">&#45;0.2186</text>
<polyline fill="none" stroke="black" points="438.5,-220.5 438.5,-256.5 "/>
<text text-anchor="middle" x="492.5" y="-234.8" font-family="Times,serif" font-size="14.00">grad: 0.0000</text>
</g>
<!-- 128626728022096&#45;&gt;128626728025600+ -->
<g id="edge18" class="edge">
<title>128626728022096&#45;&gt;128626728025600+</title>
<path fill="none" stroke="black" d="M546.59,-238.5C558.74,-238.5 570.49,-238.5 580.79,-238.5"/>
<polygon fill="black" stroke="black" points="580.96,-242 590.96,-238.5 580.96,-235 580.96,-242"/>
</g>
<!-- 128626728022096* -->
<g id="node3" class="node">
<title>128626728022096*</title>
<ellipse fill="none" stroke="black" cx="275" cy="-238.5" rx="27" ry="18"/>
<text text-anchor="middle" x="275" y="-234.8" font-family="Times,serif" font-size="14.00">*</text>
</g>
<!-- 128626728022096*&#45;&gt;128626728022096 -->
<g id="edge1" class="edge">
<title>128626728022096*&#45;&gt;128626728022096</title>
<path fill="none" stroke="black" d="M302.11,-238.5C311.86,-238.5 323.63,-238.5 336.2,-238.5"/>
<polygon fill="black" stroke="black" points="336.42,-242 346.42,-238.5 336.42,-235 336.42,-242"/>
</g>
<!-- 128626725241440 -->
<g id="node4" class="node">
<title>128626725241440</title>
<polygon fill="none" stroke="black" points="1030,-110.5 1030,-146.5 1230,-146.5 1230,-110.5 1030,-110.5"/>
<text text-anchor="middle" x="1040.5" y="-124.8" font-family="Times,serif" font-size="14.00"> </text>
<polyline fill="none" stroke="black" points="1051,-110.5 1051,-146.5 "/>
<text text-anchor="middle" x="1086.5" y="-124.8" font-family="Times,serif" font-size="14.00">&#45;0.1248</text>
<polyline fill="none" stroke="black" points="1122,-110.5 1122,-146.5 "/>
<text text-anchor="middle" x="1176" y="-124.8" font-family="Times,serif" font-size="14.00">grad: 0.0000</text>
</g>
<!-- 128626725247824+ -->
<g id="node7" class="node">
<title>128626725247824+</title>
<ellipse fill="none" stroke="black" cx="1299" cy="-128.5" rx="27" ry="18"/>
<text text-anchor="middle" x="1299" y="-124.8" font-family="Times,serif" font-size="14.00">+</text>
</g>
<!-- 128626725241440&#45;&gt;128626725247824+ -->
<g id="edge11" class="edge">
<title>128626725241440&#45;&gt;128626725247824+</title>
<path fill="none" stroke="black" d="M1230.07,-128.5C1241.3,-128.5 1252.14,-128.5 1261.74,-128.5"/>
<polygon fill="black" stroke="black" points="1262,-132 1272,-128.5 1262,-125 1262,-132"/>
</g>
<!-- 128626725241440* -->
<g id="node5" class="node">
<title>128626725241440*</title>
<ellipse fill="none" stroke="black" cx="961" cy="-128.5" rx="27" ry="18"/>
<text text-anchor="middle" x="961" y="-124.8" font-family="Times,serif" font-size="14.00">*</text>
</g>
<!-- 128626725241440*&#45;&gt;128626725241440 -->
<g id="edge2" class="edge">
<title>128626725241440*&#45;&gt;128626725241440</title>
<path fill="none" stroke="black" d="M988.09,-128.5C997.18,-128.5 1008.01,-128.5 1019.59,-128.5"/>
<polygon fill="black" stroke="black" points="1019.93,-132 1029.93,-128.5 1019.93,-125 1019.93,-132"/>
</g>
<!-- 128626725247824 -->
<g id="node6" class="node">
<title>128626725247824</title>
<polygon fill="none" stroke="black" points="1362,-110.5 1362,-146.5 1562,-146.5 1562,-110.5 1362,-110.5"/>
<text text-anchor="middle" x="1372.5" y="-124.8" font-family="Times,serif" font-size="14.00"> </text>
<polyline fill="none" stroke="black" points="1383,-110.5 1383,-146.5 "/>
<text text-anchor="middle" x="1418.5" y="-124.8" font-family="Times,serif" font-size="14.00">&#45;0.2786</text>
<polyline fill="none" stroke="black" points="1454,-110.5 1454,-146.5 "/>
<text text-anchor="middle" x="1508" y="-124.8" font-family="Times,serif" font-size="14.00">grad: 0.0000</text>
</g>
<!-- 128626725248160+ -->
<g id="node15" class="node">
<title>128626725248160+</title>
<ellipse fill="none" stroke="black" cx="1625" cy="-100.5" rx="27" ry="18"/>
<text text-anchor="middle" x="1625" y="-96.8" font-family="Times,serif" font-size="14.00">+</text>
</g>
<!-- 128626725247824&#45;&gt;128626725248160+ -->
<g id="edge27" class="edge">
<title>128626725247824&#45;&gt;128626725248160+</title>
<path fill="none" stroke="black" d="M1562.21,-111.25C1571.57,-109.62 1580.57,-108.05 1588.67,-106.64"/>
<polygon fill="black" stroke="black" points="1589.5,-110.05 1598.76,-104.89 1588.3,-103.16 1589.5,-110.05"/>
</g>
<!-- 128626725247824+&#45;&gt;128626725247824 -->
<g id="edge3" class="edge">
<title>128626725247824+&#45;&gt;128626725247824</title>
<path fill="none" stroke="black" d="M1326.23,-128.5C1333.69,-128.5 1342.31,-128.5 1351.52,-128.5"/>
<polygon fill="black" stroke="black" points="1351.71,-132 1361.71,-128.5 1351.71,-125 1351.71,-132"/>
</g>
<!-- 128626725252048 -->
<g id="node8" class="node">
<title>128626725252048</title>
<polygon fill="none" stroke="black" points="1032.5,-55.5 1032.5,-91.5 1227.5,-91.5 1227.5,-55.5 1032.5,-55.5"/>
<text text-anchor="middle" x="1043" y="-69.8" font-family="Times,serif" font-size="14.00"> </text>
<polyline fill="none" stroke="black" points="1053.5,-55.5 1053.5,-91.5 "/>
<text text-anchor="middle" x="1086.5" y="-69.8" font-family="Times,serif" font-size="14.00">0.9096</text>
<polyline fill="none" stroke="black" points="1119.5,-55.5 1119.5,-91.5 "/>
<text text-anchor="middle" x="1173.5" y="-69.8" font-family="Times,serif" font-size="14.00">grad: 0.0000</text>
</g>
<!-- 128626725244512* -->
<g id="node23" class="node">
<title>128626725244512*</title>
<ellipse fill="none" stroke="black" cx="1299" cy="-73.5" rx="27" ry="18"/>
<text text-anchor="middle" x="1299" y="-69.8" font-family="Times,serif" font-size="14.00">*</text>
</g>
<!-- 128626725252048&#45;&gt;128626725244512* -->
<g id="edge23" class="edge">
<title>128626725252048&#45;&gt;128626725244512*</title>
<path fill="none" stroke="black" d="M1227.66,-73.5C1239.76,-73.5 1251.48,-73.5 1261.77,-73.5"/>
<polygon fill="black" stroke="black" points="1261.94,-77 1271.94,-73.5 1261.94,-70 1261.94,-77"/>
</g>
<!-- 128626721842208 -->
<g id="node9" class="node">
<title>128626721842208</title>
<polygon fill="none" stroke="black" points="681,-110.5 681,-146.5 898,-146.5 898,-110.5 681,-110.5"/>
<text text-anchor="middle" x="700" y="-124.8" font-family="Times,serif" font-size="14.00">w3</text>
<polyline fill="none" stroke="black" points="719,-110.5 719,-146.5 "/>
<text text-anchor="middle" x="754.5" y="-124.8" font-family="Times,serif" font-size="14.00">&#45;0.1945</text>
<polyline fill="none" stroke="black" points="790,-110.5 790,-146.5 "/>
<text text-anchor="middle" x="844" y="-124.8" font-family="Times,serif" font-size="14.00">grad: 0.0000</text>
</g>
<!-- 128626721842208&#45;&gt;128626725241440* -->
<g id="edge15" class="edge">
<title>128626721842208&#45;&gt;128626725241440*</title>
<path fill="none" stroke="black" d="M898.33,-128.5C907.3,-128.5 915.91,-128.5 923.69,-128.5"/>
<polygon fill="black" stroke="black" points="923.75,-132 933.75,-128.5 923.75,-125 923.75,-132"/>
</g>
<!-- 128626725248064 -->
<g id="node10" class="node">
<title>128626725248064</title>
<polygon fill="none" stroke="black" points="2019,-54.5 2019,-90.5 2214,-90.5 2214,-54.5 2019,-54.5"/>
<text text-anchor="middle" x="2029.5" y="-68.8" font-family="Times,serif" font-size="14.00"> </text>
<polyline fill="none" stroke="black" points="2040,-54.5 2040,-90.5 "/>
<text text-anchor="middle" x="2073" y="-68.8" font-family="Times,serif" font-size="14.00">0.1699</text>
<polyline fill="none" stroke="black" points="2106,-54.5 2106,-90.5 "/>
<text text-anchor="middle" x="2160" y="-68.8" font-family="Times,serif" font-size="14.00">grad: 0.0000</text>
</g>
<!-- 128626725248064+ -->
<g id="node11" class="node">
<title>128626725248064+</title>
<ellipse fill="none" stroke="black" cx="1956" cy="-72.5" rx="27" ry="18"/>
<text text-anchor="middle" x="1956" y="-68.8" font-family="Times,serif" font-size="14.00">+</text>
</g>
<!-- 128626725248064+&#45;&gt;128626725248064 -->
<g id="edge4" class="edge">
<title>128626725248064+&#45;&gt;128626725248064</title>
<path fill="none" stroke="black" d="M1983.17,-72.5C1990.66,-72.5 1999.32,-72.5 2008.56,-72.5"/>
<polygon fill="black" stroke="black" points="2008.78,-76 2018.78,-72.5 2008.78,-69 2008.78,-76"/>
</g>
<!-- 128626721842256 -->
<g id="node12" class="node">
<title>128626721842256</title>
<polygon fill="none" stroke="black" points="1024,-0.5 1024,-36.5 1236,-36.5 1236,-0.5 1024,-0.5"/>
<text text-anchor="middle" x="1043" y="-14.8" font-family="Times,serif" font-size="14.00">w4</text>
<polyline fill="none" stroke="black" points="1062,-0.5 1062,-36.5 "/>
<text text-anchor="middle" x="1095" y="-14.8" font-family="Times,serif" font-size="14.00">0.8081</text>
<polyline fill="none" stroke="black" points="1128,-0.5 1128,-36.5 "/>
<text text-anchor="middle" x="1182" y="-14.8" font-family="Times,serif" font-size="14.00">grad: 0.0000</text>
</g>
<!-- 128626721842256&#45;&gt;128626725244512* -->
<g id="edge16" class="edge">
<title>128626721842256&#45;&gt;128626725244512*</title>
<path fill="none" stroke="black" d="M1204.3,-36.53C1215.01,-39.6 1225.85,-42.96 1236,-46.5 1246.31,-50.1 1257.31,-54.64 1267.14,-58.98"/>
<polygon fill="black" stroke="black" points="1265.96,-62.28 1276.51,-63.19 1268.83,-55.9 1265.96,-62.28"/>
</g>
<!-- 128626731609184 -->
<g id="node13" class="node">
<title>128626731609184</title>
<polygon fill="none" stroke="black" points="1688,-27.5 1688,-63.5 1893,-63.5 1893,-27.5 1688,-27.5"/>
<text text-anchor="middle" x="1701" y="-41.8" font-family="Times,serif" font-size="14.00">b</text>
<polyline fill="none" stroke="black" points="1714,-27.5 1714,-63.5 "/>
<text text-anchor="middle" x="1749.5" y="-41.8" font-family="Times,serif" font-size="14.00">&#45;0.2866</text>
<polyline fill="none" stroke="black" points="1785,-27.5 1785,-63.5 "/>
<text text-anchor="middle" x="1839" y="-41.8" font-family="Times,serif" font-size="14.00">grad: 0.0000</text>
</g>
<!-- 128626731609184&#45;&gt;128626725248064+ -->
<g id="edge25" class="edge">
<title>128626731609184&#45;&gt;128626725248064+</title>
<path fill="none" stroke="black" d="M1893.19,-62.29C1902.49,-63.83 1911.42,-65.3 1919.47,-66.63"/>
<polygon fill="black" stroke="black" points="1919.05,-70.11 1929.49,-68.29 1920.19,-63.2 1919.05,-70.11"/>
</g>
<!-- 128626725248160 -->
<g id="node14" class="node">
<title>128626725248160</title>
<polygon fill="none" stroke="black" points="1693,-82.5 1693,-118.5 1888,-118.5 1888,-82.5 1693,-82.5"/>
<text text-anchor="middle" x="1703.5" y="-96.8" font-family="Times,serif" font-size="14.00"> </text>
<polyline fill="none" stroke="black" points="1714,-82.5 1714,-118.5 "/>
<text text-anchor="middle" x="1747" y="-96.8" font-family="Times,serif" font-size="14.00">0.4565</text>
<polyline fill="none" stroke="black" points="1780,-82.5 1780,-118.5 "/>
<text text-anchor="middle" x="1834" y="-96.8" font-family="Times,serif" font-size="14.00">grad: 0.0000</text>
</g>
<!-- 128626725248160&#45;&gt;128626725248064+ -->
<g id="edge17" class="edge">
<title>128626725248160&#45;&gt;128626725248064+</title>
<path fill="none" stroke="black" d="M1888.03,-83.97C1899.3,-82.04 1910.18,-80.18 1919.78,-78.53"/>
<polygon fill="black" stroke="black" points="1920.39,-81.98 1929.65,-76.84 1919.21,-75.08 1920.39,-81.98"/>
</g>
<!-- 128626725248160+&#45;&gt;128626725248160 -->
<g id="edge5" class="edge">
<title>128626725248160+&#45;&gt;128626725248160</title>
<path fill="none" stroke="black" d="M1652.27,-100.5C1661.14,-100.5 1671.65,-100.5 1682.86,-100.5"/>
<polygon fill="black" stroke="black" points="1682.86,-104 1692.86,-100.5 1682.86,-97 1682.86,-104"/>
</g>
<!-- 128626721844512 -->
<g id="node16" class="node">
<title>128626721844512</title>
<polygon fill="none" stroke="black" points="0,-248.5 0,-284.5 212,-284.5 212,-248.5 0,-248.5"/>
<text text-anchor="middle" x="19" y="-262.8" font-family="Times,serif" font-size="14.00">w1</text>
<polyline fill="none" stroke="black" points="38,-248.5 38,-284.5 "/>
<text text-anchor="middle" x="71" y="-262.8" font-family="Times,serif" font-size="14.00">0.2464</text>
<polyline fill="none" stroke="black" points="104,-248.5 104,-284.5 "/>
<text text-anchor="middle" x="158" y="-262.8" font-family="Times,serif" font-size="14.00">grad: 0.0000</text>
</g>
<!-- 128626721844512&#45;&gt;128626728022096* -->
<g id="edge26" class="edge">
<title>128626721844512&#45;&gt;128626728022096*</title>
<path fill="none" stroke="black" d="M212.29,-248.85C221.62,-247.28 230.56,-245.78 238.6,-244.44"/>
<polygon fill="black" stroke="black" points="239.31,-247.86 248.6,-242.76 238.16,-240.96 239.31,-247.86"/>
</g>
<!-- 128626728013168 -->
<g id="node17" class="node">
<title>128626728013168</title>
<polygon fill="none" stroke="black" points="6,-193.5 6,-229.5 206,-229.5 206,-193.5 6,-193.5"/>
<text text-anchor="middle" x="16.5" y="-207.8" font-family="Times,serif" font-size="14.00"> </text>
<polyline fill="none" stroke="black" points="27,-193.5 27,-229.5 "/>
<text text-anchor="middle" x="62.5" y="-207.8" font-family="Times,serif" font-size="14.00">&#45;0.8872</text>
<polyline fill="none" stroke="black" points="98,-193.5 98,-229.5 "/>
<text text-anchor="middle" x="152" y="-207.8" font-family="Times,serif" font-size="14.00">grad: 0.0000</text>
</g>
<!-- 128626728013168&#45;&gt;128626728022096* -->
<g id="edge14" class="edge">
<title>128626728013168&#45;&gt;128626728022096*</title>
<path fill="none" stroke="black" d="M206.07,-227.52C217.63,-229.39 228.77,-231.19 238.57,-232.77"/>
<polygon fill="black" stroke="black" points="238.21,-236.26 248.64,-234.4 239.32,-229.35 238.21,-236.26"/>
</g>
<!-- 128626728025504 -->
<g id="node18" class="node">
<title>128626728025504</title>
<polygon fill="none" stroke="black" points="346.5,-165.5 346.5,-201.5 546.5,-201.5 546.5,-165.5 346.5,-165.5"/>
<text text-anchor="middle" x="357" y="-179.8" font-family="Times,serif" font-size="14.00"> </text>
<polyline fill="none" stroke="black" points="367.5,-165.5 367.5,-201.5 "/>
<text text-anchor="middle" x="403" y="-179.8" font-family="Times,serif" font-size="14.00">&#45;0.1811</text>
<polyline fill="none" stroke="black" points="438.5,-165.5 438.5,-201.5 "/>
<text text-anchor="middle" x="492.5" y="-179.8" font-family="Times,serif" font-size="14.00">grad: 0.0000</text>
</g>
<!-- 128626728019936* -->
<g id="node28" class="node">
<title>128626728019936*</title>
<ellipse fill="none" stroke="black" cx="618" cy="-183.5" rx="27" ry="18"/>
<text text-anchor="middle" x="618" y="-179.8" font-family="Times,serif" font-size="14.00">*</text>
</g>
<!-- 128626728025504&#45;&gt;128626728019936* -->
<g id="edge22" class="edge">
<title>128626728025504&#45;&gt;128626728019936*</title>
<path fill="none" stroke="black" d="M546.59,-183.5C558.74,-183.5 570.49,-183.5 580.79,-183.5"/>
<polygon fill="black" stroke="black" points="580.96,-187 590.96,-183.5 580.96,-180 580.96,-187"/>
</g>
<!-- 128626728025600 -->
<g id="node19" class="node">
<title>128626728025600</title>
<polygon fill="none" stroke="black" points="689.5,-220.5 689.5,-256.5 889.5,-256.5 889.5,-220.5 689.5,-220.5"/>
<text text-anchor="middle" x="700" y="-234.8" font-family="Times,serif" font-size="14.00"> </text>
<polyline fill="none" stroke="black" points="710.5,-220.5 710.5,-256.5 "/>
<text text-anchor="middle" x="746" y="-234.8" font-family="Times,serif" font-size="14.00">&#45;0.2186</text>
<polyline fill="none" stroke="black" points="781.5,-220.5 781.5,-256.5 "/>
<text text-anchor="middle" x="835.5" y="-234.8" font-family="Times,serif" font-size="14.00">grad: 0.0000</text>
</g>
<!-- 128626725256944+ -->
<g id="node26" class="node">
<title>128626725256944+</title>
<ellipse fill="none" stroke="black" cx="961" cy="-183.5" rx="27" ry="18"/>
<text text-anchor="middle" x="961" y="-179.8" font-family="Times,serif" font-size="14.00">+</text>
</g>
<!-- 128626728025600&#45;&gt;128626725256944+ -->
<g id="edge20" class="edge">
<title>128626728025600&#45;&gt;128626725256944+</title>
<path fill="none" stroke="black" d="M869.07,-220.5C878.89,-217.74 888.73,-214.73 898,-211.5 908.57,-207.82 919.8,-203.03 929.76,-198.45"/>
<polygon fill="black" stroke="black" points="931.3,-201.6 938.86,-194.18 928.32,-195.26 931.3,-201.6"/>
</g>
<!-- 128626728025600+&#45;&gt;128626728025600 -->
<g id="edge6" class="edge">
<title>128626728025600+&#45;&gt;128626728025600</title>
<path fill="none" stroke="black" d="M645.11,-238.5C654.86,-238.5 666.63,-238.5 679.2,-238.5"/>
<polygon fill="black" stroke="black" points="679.42,-242 689.42,-238.5 679.42,-235 679.42,-242"/>
</g>
<!-- 128626725252624 -->
<g id="node21" class="node">
<title>128626725252624</title>
<polygon fill="none" stroke="black" points="692,-55.5 692,-91.5 887,-91.5 887,-55.5 692,-55.5"/>
<text text-anchor="middle" x="702.5" y="-69.8" font-family="Times,serif" font-size="14.00"> </text>
<polyline fill="none" stroke="black" points="713,-55.5 713,-91.5 "/>
<text text-anchor="middle" x="746" y="-69.8" font-family="Times,serif" font-size="14.00">0.6420</text>
<polyline fill="none" stroke="black" points="779,-55.5 779,-91.5 "/>
<text text-anchor="middle" x="833" y="-69.8" font-family="Times,serif" font-size="14.00">grad: 0.0000</text>
</g>
<!-- 128626725252624&#45;&gt;128626725241440* -->
<g id="edge13" class="edge">
<title>128626725252624&#45;&gt;128626725241440*</title>
<path fill="none" stroke="black" d="M865.84,-91.53C876.71,-94.59 887.7,-97.94 898,-101.5 908.32,-105.07 919.32,-109.61 929.15,-113.94"/>
<polygon fill="black" stroke="black" points="927.97,-117.24 938.52,-118.16 930.84,-110.86 927.97,-117.24"/>
</g>
<!-- 128626725244512 -->
<g id="node22" class="node">
<title>128626725244512</title>
<polygon fill="none" stroke="black" points="1364.5,-55.5 1364.5,-91.5 1559.5,-91.5 1559.5,-55.5 1364.5,-55.5"/>
<text text-anchor="middle" x="1375" y="-69.8" font-family="Times,serif" font-size="14.00"> </text>
<polyline fill="none" stroke="black" points="1385.5,-55.5 1385.5,-91.5 "/>
<text text-anchor="middle" x="1418.5" y="-69.8" font-family="Times,serif" font-size="14.00">0.7351</text>
<polyline fill="none" stroke="black" points="1451.5,-55.5 1451.5,-91.5 "/>
<text text-anchor="middle" x="1505.5" y="-69.8" font-family="Times,serif" font-size="14.00">grad: 0.0000</text>
</g>
<!-- 128626725244512&#45;&gt;128626725248160+ -->
<g id="edge21" class="edge">
<title>128626725244512&#45;&gt;128626725248160+</title>
<path fill="none" stroke="black" d="M1559.91,-89.75C1570.04,-91.45 1579.81,-93.09 1588.54,-94.55"/>
<polygon fill="black" stroke="black" points="1588.18,-98.04 1598.62,-96.24 1589.34,-91.14 1588.18,-98.04"/>
</g>
<!-- 128626725244512*&#45;&gt;128626725244512 -->
<g id="edge7" class="edge">
<title>128626725244512*&#45;&gt;128626725244512</title>
<path fill="none" stroke="black" d="M1326.23,-73.5C1334.46,-73.5 1344.12,-73.5 1354.42,-73.5"/>
<polygon fill="black" stroke="black" points="1354.46,-77 1364.46,-73.5 1354.46,-70 1354.46,-77"/>
</g>
<!-- 128626721844896 -->
<g id="node24" class="node">
<title>128626721844896</title>
<polygon fill="none" stroke="black" points="338,-110.5 338,-146.5 555,-146.5 555,-110.5 338,-110.5"/>
<text text-anchor="middle" x="357" y="-124.8" font-family="Times,serif" font-size="14.00">w2</text>
<polyline fill="none" stroke="black" points="376,-110.5 376,-146.5 "/>
<text text-anchor="middle" x="411.5" y="-124.8" font-family="Times,serif" font-size="14.00">&#45;0.3584</text>
<polyline fill="none" stroke="black" points="447,-110.5 447,-146.5 "/>
<text text-anchor="middle" x="501" y="-124.8" font-family="Times,serif" font-size="14.00">grad: 0.0000</text>
</g>
<!-- 128626721844896&#45;&gt;128626728019936* -->
<g id="edge19" class="edge">
<title>128626721844896&#45;&gt;128626728019936*</title>
<path fill="none" stroke="black" d="M522.84,-146.53C533.71,-149.59 544.7,-152.94 555,-156.5 565.32,-160.07 576.32,-164.61 586.15,-168.94"/>
<polygon fill="black" stroke="black" points="584.97,-172.24 595.52,-173.16 587.84,-165.86 584.97,-172.24"/>
</g>
<!-- 128626725256944 -->
<g id="node25" class="node">
<title>128626725256944</title>
<polygon fill="none" stroke="black" points="1030,-165.5 1030,-201.5 1230,-201.5 1230,-165.5 1030,-165.5"/>
<text text-anchor="middle" x="1040.5" y="-179.8" font-family="Times,serif" font-size="14.00"> </text>
<polyline fill="none" stroke="black" points="1051,-165.5 1051,-201.5 "/>
<text text-anchor="middle" x="1086.5" y="-179.8" font-family="Times,serif" font-size="14.00">&#45;0.1537</text>
<polyline fill="none" stroke="black" points="1122,-165.5 1122,-201.5 "/>
<text text-anchor="middle" x="1176" y="-179.8" font-family="Times,serif" font-size="14.00">grad: 0.0000</text>
</g>
<!-- 128626725256944&#45;&gt;128626725247824+ -->
<g id="edge10" class="edge">
<title>128626725256944&#45;&gt;128626725247824+</title>
<path fill="none" stroke="black" d="M1207.45,-165.49C1217.14,-162.73 1226.85,-159.71 1236,-156.5 1246.56,-152.79 1257.79,-147.99 1267.75,-143.42"/>
<polygon fill="black" stroke="black" points="1269.29,-146.57 1276.85,-139.15 1266.31,-140.23 1269.29,-146.57"/>
</g>
<!-- 128626725256944+&#45;&gt;128626725256944 -->
<g id="edge8" class="edge">
<title>128626725256944+&#45;&gt;128626725256944</title>
<path fill="none" stroke="black" d="M988.09,-183.5C997.18,-183.5 1008.01,-183.5 1019.59,-183.5"/>
<polygon fill="black" stroke="black" points="1019.93,-187 1029.93,-183.5 1019.93,-180 1019.93,-187"/>
</g>
<!-- 128626728019936 -->
<g id="node27" class="node">
<title>128626728019936</title>
<polygon fill="none" stroke="black" points="692,-165.5 692,-201.5 887,-201.5 887,-165.5 692,-165.5"/>
<text text-anchor="middle" x="702.5" y="-179.8" font-family="Times,serif" font-size="14.00"> </text>
<polyline fill="none" stroke="black" points="713,-165.5 713,-201.5 "/>
<text text-anchor="middle" x="746" y="-179.8" font-family="Times,serif" font-size="14.00">0.0649</text>
<polyline fill="none" stroke="black" points="779,-165.5 779,-201.5 "/>
<text text-anchor="middle" x="833" y="-179.8" font-family="Times,serif" font-size="14.00">grad: 0.0000</text>
</g>
<!-- 128626728019936&#45;&gt;128626725256944+ -->
<g id="edge12" class="edge">
<title>128626728019936&#45;&gt;128626725256944+</title>
<path fill="none" stroke="black" d="M887.13,-183.5C900.2,-183.5 912.89,-183.5 923.91,-183.5"/>
<polygon fill="black" stroke="black" points="923.93,-187 933.93,-183.5 923.93,-180 923.93,-187"/>
</g>
<!-- 128626728019936*&#45;&gt;128626728019936 -->
<g id="edge9" class="edge">
<title>128626728019936*&#45;&gt;128626728019936</title>
<path fill="none" stroke="black" d="M645.11,-183.5C655.4,-183.5 667.95,-183.5 681.29,-183.5"/>
<polygon fill="black" stroke="black" points="681.63,-187 691.63,-183.5 681.63,-180 681.63,-187"/>
</g>
</g>
</svg>
