<?xml version="1.0" encoding="UTF-8" standalone="no"?>
<!DOCTYPE svg PUBLIC "-//W3C//DTD SVG 1.1//EN"
 "http://www.w3.org/Graphics/SVG/1.1/DTD/svg11.dtd">
<!-- Generated by graphviz version 2.43.0 (0)
 -->
<!-- Title: %3 Pages: 1 -->
<svg width="868pt" height="155pt"
 viewBox="0.00 0.00 868.00 155.00" xmlns="http://www.w3.org/2000/svg" xmlns:xlink="http://www.w3.org/1999/xlink">
<g id="graph0" class="graph" transform="scale(1 1) rotate(0) translate(4 151)">
<title>%3</title>
<polygon fill="white" stroke="transparent" points="-4,4 -4,-151 864,-151 864,4 -4,4"/>
<!-- 128626854943376 -->
<g id="node1" class="node">
<title>128626854943376</title>
<polygon fill="none" stroke="black" points="0,-55.5 0,-91.5 199,-91.5 199,-55.5 0,-55.5"/>
<text text-anchor="middle" x="12.5" y="-69.8" font-family="Times,serif" font-size="14.00">a</text>
<polyline fill="none" stroke="black" points="25,-55.5 25,-91.5 "/>
<text text-anchor="middle" x="58" y="-69.8" font-family="Times,serif" font-size="14.00">2.0000</text>
<polyline fill="none" stroke="black" points="91,-55.5 91,-91.5 "/>
<text text-anchor="middle" x="145" y="-69.8" font-family="Times,serif" font-size="14.00">grad: 0.0000</text>
</g>
<!-- 128626858733888* -->
<g id="node3" class="node">
<title>128626858733888*</title>
<ellipse fill="none" stroke="black" cx="262" cy="-100.5" rx="27" ry="18"/>
<text text-anchor="middle" x="262" y="-96.8" font-family="Times,serif" font-size="14.00">*</text>
</g>
<!-- 128626854943376&#45;&gt;128626858733888* -->
<g id="edge8" class="edge">
<title>128626854943376&#45;&gt;128626858733888*</title>
<path fill="none" stroke="black" d="M199.41,-90.14C208.65,-91.69 217.54,-93.19 225.55,-94.54"/>
<polygon fill="black" stroke="black" points="225.09,-98.01 235.54,-96.22 226.25,-91.11 225.09,-98.01"/>
</g>
<!-- 128626858729904* -->
<g id="node7" class="node">
<title>128626858729904*</title>
<ellipse fill="none" stroke="black" cx="262" cy="-45.5" rx="27" ry="18"/>
<text text-anchor="middle" x="262" y="-41.8" font-family="Times,serif" font-size="14.00">*</text>
</g>
<!-- 128626854943376&#45;&gt;128626858729904* -->
<g id="edge5" class="edge">
<title>128626854943376&#45;&gt;128626858729904*</title>
<path fill="none" stroke="black" d="M199.41,-56.25C208.65,-54.63 217.54,-53.08 225.55,-51.68"/>
<polygon fill="black" stroke="black" points="226.29,-55.11 235.54,-49.94 225.08,-48.21 226.29,-55.11"/>
</g>
<!-- 128626858733888 -->
<g id="node2" class="node">
<title>128626858733888</title>
<polygon fill="none" stroke="black" points="325,-82.5 325,-118.5 525,-118.5 525,-82.5 325,-82.5"/>
<text text-anchor="middle" x="338" y="-96.8" font-family="Times,serif" font-size="14.00">d</text>
<polyline fill="none" stroke="black" points="351,-82.5 351,-118.5 "/>
<text text-anchor="middle" x="384" y="-96.8" font-family="Times,serif" font-size="14.00">4.0000</text>
<polyline fill="none" stroke="black" points="417,-82.5 417,-118.5 "/>
<text text-anchor="middle" x="471" y="-96.8" font-family="Times,serif" font-size="14.00">grad: 0.0000</text>
</g>
<!-- 128626858734032+ -->
<g id="node9" class="node">
<title>128626858734032+</title>
<ellipse fill="none" stroke="black" cx="588" cy="-72.5" rx="27" ry="18"/>
<text text-anchor="middle" x="588" y="-68.8" font-family="Times,serif" font-size="14.00">+</text>
</g>
<!-- 128626858733888&#45;&gt;128626858734032+ -->
<g id="edge9" class="edge">
<title>128626858733888&#45;&gt;128626858734032+</title>
<path fill="none" stroke="black" d="M525.21,-83.25C534.57,-81.62 543.57,-80.05 551.67,-78.64"/>
<polygon fill="black" stroke="black" points="552.5,-82.05 561.76,-76.89 551.3,-75.16 552.5,-82.05"/>
</g>
<!-- 128626858733888*&#45;&gt;128626858733888 -->
<g id="edge1" class="edge">
<title>128626858733888*&#45;&gt;128626858733888</title>
<path fill="none" stroke="black" d="M289.23,-100.5C296.69,-100.5 305.31,-100.5 314.52,-100.5"/>
<polygon fill="black" stroke="black" points="314.71,-104 324.71,-100.5 314.71,-97 314.71,-104"/>
</g>
<!-- 128626858731344 -->
<g id="node4" class="node">
<title>128626858731344</title>
<polygon fill="none" stroke="black" points="2,-110.5 2,-146.5 197,-146.5 197,-110.5 2,-110.5"/>
<text text-anchor="middle" x="12.5" y="-124.8" font-family="Times,serif" font-size="14.00"> </text>
<polyline fill="none" stroke="black" points="23,-110.5 23,-146.5 "/>
<text text-anchor="middle" x="56" y="-124.8" font-family="Times,serif" font-size="14.00">2.0000</text>
<polyline fill="none" stroke="black" points="89,-110.5 89,-146.5 "/>
<text text-anchor="middle" x="143" y="-124.8" font-family="Times,serif" font-size="14.00">grad: 0.0000</text>
</g>
<!-- 128626858731344&#45;&gt;128626858733888* -->
<g id="edge4" class="edge">
<title>128626858731344&#45;&gt;128626858733888*</title>
<path fill="none" stroke="black" d="M197.1,-111.65C207.21,-109.88 216.95,-108.19 225.65,-106.67"/>
<polygon fill="black" stroke="black" points="226.45,-110.08 235.7,-104.91 225.25,-103.18 226.45,-110.08"/>
</g>
<!-- 128626858728320 -->
<g id="node5" class="node">
<title>128626858728320</title>
<polygon fill="none" stroke="black" points="2,-0.5 2,-36.5 197,-36.5 197,-0.5 2,-0.5"/>
<text text-anchor="middle" x="12.5" y="-14.8" font-family="Times,serif" font-size="14.00"> </text>
<polyline fill="none" stroke="black" points="23,-0.5 23,-36.5 "/>
<text text-anchor="middle" x="56" y="-14.8" font-family="Times,serif" font-size="14.00">3.0000</text>
<polyline fill="none" stroke="black" points="89,-0.5 89,-36.5 "/>
<text text-anchor="middle" x="143" y="-14.8" font-family="Times,serif" font-size="14.00">grad: 0.0000</text>
</g>
<!-- 128626858728320&#45;&gt;128626858729904* -->
<g id="edge6" class="edge">
<title>128626858728320&#45;&gt;128626858729904*</title>
<path fill="none" stroke="black" d="M197.1,-34.75C207.21,-36.45 216.95,-38.09 225.65,-39.55"/>
<polygon fill="black" stroke="black" points="225.26,-43.04 235.7,-41.24 226.42,-36.13 225.26,-43.04"/>
</g>
<!-- 128626858729904 -->
<g id="node6" class="node">
<title>128626858729904</title>
<polygon fill="none" stroke="black" points="325.5,-27.5 325.5,-63.5 524.5,-63.5 524.5,-27.5 325.5,-27.5"/>
<text text-anchor="middle" x="338" y="-41.8" font-family="Times,serif" font-size="14.00">e</text>
<polyline fill="none" stroke="black" points="350.5,-27.5 350.5,-63.5 "/>
<text text-anchor="middle" x="383.5" y="-41.8" font-family="Times,serif" font-size="14.00">6.0000</text>
<polyline fill="none" stroke="black" points="416.5,-27.5 416.5,-63.5 "/>
<text text-anchor="middle" x="470.5" y="-41.8" font-family="Times,serif" font-size="14.00">grad: 0.0000</text>
</g>
<!-- 128626858729904&#45;&gt;128626858734032+ -->
<g id="edge7" class="edge">
<title>128626858729904&#45;&gt;128626858734032+</title>
<path fill="none" stroke="black" d="M524.75,-62.06C534.27,-63.66 543.43,-65.19 551.66,-66.57"/>
<polygon fill="black" stroke="black" points="551.1,-70.03 561.54,-68.23 552.26,-63.13 551.1,-70.03"/>
</g>
<!-- 128626858729904*&#45;&gt;128626858729904 -->
<g id="edge2" class="edge">
<title>128626858729904*&#45;&gt;128626858729904</title>
<path fill="none" stroke="black" d="M289.23,-45.5C296.9,-45.5 305.8,-45.5 315.3,-45.5"/>
<polygon fill="black" stroke="black" points="315.39,-49 325.39,-45.5 315.39,-42 315.39,-49"/>
</g>
<!-- 128626858734032 -->
<g id="node8" class="node">
<title>128626858734032</title>
<polygon fill="none" stroke="black" points="651,-54.5 651,-90.5 860,-90.5 860,-54.5 651,-54.5"/>
<text text-anchor="middle" x="664" y="-68.8" font-family="Times,serif" font-size="14.00">g</text>
<polyline fill="none" stroke="black" points="677,-54.5 677,-90.5 "/>
<text text-anchor="middle" x="714.5" y="-68.8" font-family="Times,serif" font-size="14.00">10.0000</text>
<polyline fill="none" stroke="black" points="752,-54.5 752,-90.5 "/>
<text text-anchor="middle" x="806" y="-68.8" font-family="Times,serif" font-size="14.00">grad: 0.0000</text>
</g>
<!-- 128626858734032+&#45;&gt;128626858734032 -->
<g id="edge3" class="edge">
<title>128626858734032+&#45;&gt;128626858734032</title>
<path fill="none" stroke="black" d="M615.22,-72.5C622.8,-72.5 631.59,-72.5 640.99,-72.5"/>
<polygon fill="black" stroke="black" points="640.99,-76 650.99,-72.5 640.99,-69 640.99,-76"/>
</g>
</g>
</svg>
