<?xml version="1.0" encoding="UTF-8" standalone="no"?>
<!DOCTYPE svg PUBLIC "-//W3C//DTD SVG 1.1//EN"
 "http://www.w3.org/Graphics/SVG/1.1/DTD/svg11.dtd">
<!-- Generated by graphviz version 2.43.0 (0)
 -->
<!-- Title: %3 Pages: 1 -->
<svg width="586pt" height="45pt"
 viewBox="0.00 0.00 585.89 45.00" xmlns="http://www.w3.org/2000/svg" xmlns:xlink="http://www.w3.org/1999/xlink">
<g id="graph0" class="graph" transform="scale(1 1) rotate(0) translate(4 41)">
<title>%3</title>
<polygon fill="white" stroke="transparent" points="-4,4 -4,-41 581.89,-41 581.89,4 -4,4"/>
<!-- 128626722011136 -->
<g id="node1" class="node">
<title>128626722011136</title>
<polygon fill="none" stroke="black" points="0,-0.5 0,-36.5 216,-36.5 216,-0.5 0,-0.5"/>
<text text-anchor="middle" x="12" y="-14.8" font-family="Times,serif" font-size="14.00">c</text>
<polyline fill="none" stroke="black" points="24,-0.5 24,-36.5 "/>
<text text-anchor="middle" x="66" y="-14.8" font-family="Times,serif" font-size="14.00">100.0000</text>
<polyline fill="none" stroke="black" points="108,-0.5 108,-36.5 "/>
<text text-anchor="middle" x="162" y="-14.8" font-family="Times,serif" font-size="14.00">grad: 0.0000</text>
</g>
<!-- 128626721997504sigmoid -->
<g id="node3" class="node">
<title>128626721997504sigmoid</title>
<ellipse fill="none" stroke="black" cx="299.45" cy="-18.5" rx="47.39" ry="18"/>
<text text-anchor="middle" x="299.45" y="-14.8" font-family="Times,serif" font-size="14.00">sigmoid</text>
</g>
<!-- 128626722011136&#45;&gt;128626721997504sigmoid -->
<g id="edge2" class="edge">
<title>128626722011136&#45;&gt;128626721997504sigmoid</title>
<path fill="none" stroke="black" d="M216.18,-18.5C224.89,-18.5 233.46,-18.5 241.58,-18.5"/>
<polygon fill="black" stroke="black" points="241.61,-22 251.61,-18.5 241.61,-15 241.61,-22"/>
</g>
<!-- 128626721997504 -->
<g id="node2" class="node">
<title>128626721997504</title>
<polygon fill="none" stroke="black" points="382.89,-0.5 382.89,-36.5 577.89,-36.5 577.89,-0.5 382.89,-0.5"/>
<text text-anchor="middle" x="393.39" y="-14.8" font-family="Times,serif" font-size="14.00"> </text>
<polyline fill="none" stroke="black" points="403.89,-0.5 403.89,-36.5 "/>
<text text-anchor="middle" x="436.89" y="-14.8" font-family="Times,serif" font-size="14.00">1.0000</text>
<polyline fill="none" stroke="black" points="469.89,-0.5 469.89,-36.5 "/>
<text text-anchor="middle" x="523.89" y="-14.8" font-family="Times,serif" font-size="14.00">grad: 1.0000</text>
</g>
<!-- 128626721997504sigmoid&#45;&gt;128626721997504 -->
<g id="edge1" class="edge">
<title>128626721997504sigmoid&#45;&gt;128626721997504</title>
<path fill="none" stroke="black" d="M346.99,-18.5C355.05,-18.5 363.7,-18.5 372.6,-18.5"/>
<polygon fill="black" stroke="black" points="372.72,-22 382.72,-18.5 372.72,-15 372.72,-22"/>
</g>
</g>
</svg>
