<?xml version="1.0" encoding="UTF-8" standalone="no"?>
<!DOCTYPE svg PUBLIC "-//W3C//DTD SVG 1.1//EN"
 "http://www.w3.org/Graphics/SVG/1.1/DTD/svg11.dtd">
<!-- Generated by graphviz version 2.43.0 (0)
 -->
<!-- Title: %3 Pages: 1 -->
<svg width="1202pt" height="127pt"
 viewBox="0.00 0.00 1202.00 127.00" xmlns="http://www.w3.org/2000/svg" xmlns:xlink="http://www.w3.org/1999/xlink">
<g id="graph0" class="graph" transform="scale(1 1) rotate(0) translate(4 123)">
<title>%3</title>
<polygon fill="white" stroke="transparent" points="-4,4 -4,-123 1198,-123 1198,4 -4,4"/>
<!-- 128626861049856 -->
<g id="node1" class="node">
<title>128626861049856</title>
<polygon fill="none" stroke="black" points="332,-27.5 332,-63.5 537,-63.5 537,-27.5 332,-27.5"/>
<text text-anchor="middle" x="345" y="-41.8" font-family="Times,serif" font-size="14.00">d</text>
<polyline fill="none" stroke="black" points="358,-27.5 358,-63.5 "/>
<text text-anchor="middle" x="393.5" y="-41.8" font-family="Times,serif" font-size="14.00">&#45;6.0000</text>
<polyline fill="none" stroke="black" points="429,-27.5 429,-63.5 "/>
<text text-anchor="middle" x="483" y="-41.8" font-family="Times,serif" font-size="14.00">grad: 8.0000</text>
</g>
<!-- 128626861052448+ -->
<g id="node5" class="node">
<title>128626861052448+</title>
<ellipse fill="none" stroke="black" cx="601" cy="-72.5" rx="27" ry="18"/>
<text text-anchor="middle" x="601" y="-68.8" font-family="Times,serif" font-size="14.00">+</text>
</g>
<!-- 128626861049856&#45;&gt;128626861052448+ -->
<g id="edge5" class="edge">
<title>128626861049856&#45;&gt;128626861052448+</title>
<path fill="none" stroke="black" d="M537.34,-62.22C547.05,-63.81 556.36,-65.34 564.71,-66.71"/>
<polygon fill="black" stroke="black" points="564.29,-70.19 574.72,-68.35 565.42,-63.28 564.29,-70.19"/>
</g>
<!-- 128626861049856* -->
<g id="node2" class="node">
<title>128626861049856*</title>
<ellipse fill="none" stroke="black" cx="268" cy="-45.5" rx="27" ry="18"/>
<text text-anchor="middle" x="268" y="-41.8" font-family="Times,serif" font-size="14.00">*</text>
</g>
<!-- 128626861049856*&#45;&gt;128626861049856 -->
<g id="edge1" class="edge">
<title>128626861049856*&#45;&gt;128626861049856</title>
<path fill="none" stroke="black" d="M295.07,-45.5C302.8,-45.5 311.8,-45.5 321.43,-45.5"/>
<polygon fill="black" stroke="black" points="321.67,-49 331.67,-45.5 321.67,-42 321.67,-49"/>
</g>
<!-- 128626938493456 -->
<g id="node3" class="node">
<title>128626938493456</title>
<polygon fill="none" stroke="black" points="331,-82.5 331,-118.5 538,-118.5 538,-82.5 331,-82.5"/>
<text text-anchor="middle" x="343" y="-96.8" font-family="Times,serif" font-size="14.00">c</text>
<polyline fill="none" stroke="black" points="355,-82.5 355,-118.5 "/>
<text text-anchor="middle" x="392.5" y="-96.8" font-family="Times,serif" font-size="14.00">10.0000</text>
<polyline fill="none" stroke="black" points="430,-82.5 430,-118.5 "/>
<text text-anchor="middle" x="484" y="-96.8" font-family="Times,serif" font-size="14.00">grad: 8.0000</text>
</g>
<!-- 128626938493456&#45;&gt;128626861052448+ -->
<g id="edge6" class="edge">
<title>128626938493456&#45;&gt;128626861052448+</title>
<path fill="none" stroke="black" d="M538.28,-83.01C547.58,-81.42 556.51,-79.9 564.54,-78.54"/>
<polygon fill="black" stroke="black" points="565.28,-81.96 574.55,-76.83 564.1,-75.06 565.28,-81.96"/>
</g>
<!-- 128626861052448 -->
<g id="node4" class="node">
<title>128626861052448</title>
<polygon fill="none" stroke="black" points="664,-54.5 664,-90.5 863,-90.5 863,-54.5 664,-54.5"/>
<text text-anchor="middle" x="676.5" y="-68.8" font-family="Times,serif" font-size="14.00">e</text>
<polyline fill="none" stroke="black" points="689,-54.5 689,-90.5 "/>
<text text-anchor="middle" x="722" y="-68.8" font-family="Times,serif" font-size="14.00">4.0000</text>
<polyline fill="none" stroke="black" points="755,-54.5 755,-90.5 "/>
<text text-anchor="middle" x="809" y="-68.8" font-family="Times,serif" font-size="14.00">grad: 8.0000</text>
</g>
<!-- 128626861050048* -->
<g id="node8" class="node">
<title>128626861050048*</title>
<ellipse fill="none" stroke="black" cx="926" cy="-72.5" rx="27" ry="18"/>
<text text-anchor="middle" x="926" y="-68.8" font-family="Times,serif" font-size="14.00">*</text>
</g>
<!-- 128626861052448&#45;&gt;128626861050048* -->
<g id="edge4" class="edge">
<title>128626861052448&#45;&gt;128626861050048*</title>
<path fill="none" stroke="black" d="M863.41,-72.5C872.36,-72.5 880.99,-72.5 888.82,-72.5"/>
<polygon fill="black" stroke="black" points="888.93,-76 898.93,-72.5 888.93,-69 888.93,-76"/>
</g>
<!-- 128626861052448+&#45;&gt;128626861052448 -->
<g id="edge2" class="edge">
<title>128626861052448+&#45;&gt;128626861052448</title>
<path fill="none" stroke="black" d="M628.14,-72.5C635.65,-72.5 644.33,-72.5 653.6,-72.5"/>
<polygon fill="black" stroke="black" points="653.86,-76 663.86,-72.5 653.86,-69 653.86,-76"/>
</g>
<!-- 128626896124528 -->
<g id="node6" class="node">
<title>128626896124528</title>
<polygon fill="none" stroke="black" points="0,-55.5 0,-91.5 205,-91.5 205,-55.5 0,-55.5"/>
<text text-anchor="middle" x="13" y="-69.8" font-family="Times,serif" font-size="14.00">b</text>
<polyline fill="none" stroke="black" points="26,-55.5 26,-91.5 "/>
<text text-anchor="middle" x="61.5" y="-69.8" font-family="Times,serif" font-size="14.00">&#45;3.0000</text>
<polyline fill="none" stroke="black" points="97,-55.5 97,-91.5 "/>
<text text-anchor="middle" x="151" y="-69.8" font-family="Times,serif" font-size="14.00">grad: 0.0000</text>
</g>
<!-- 128626896124528&#45;&gt;128626861049856* -->
<g id="edge7" class="edge">
<title>128626896124528&#45;&gt;128626861049856*</title>
<path fill="none" stroke="black" d="M205.19,-56.09C214.49,-54.49 223.42,-52.96 231.47,-51.58"/>
<polygon fill="black" stroke="black" points="232.22,-55.01 241.49,-49.87 231.04,-48.11 232.22,-55.01"/>
</g>
<!-- 128626861050048 -->
<g id="node7" class="node">
<title>128626861050048</title>
<polygon fill="none" stroke="black" points="989,-54.5 989,-90.5 1194,-90.5 1194,-54.5 989,-54.5"/>
<text text-anchor="middle" x="1000" y="-68.8" font-family="Times,serif" font-size="14.00">f</text>
<polyline fill="none" stroke="black" points="1011,-54.5 1011,-90.5 "/>
<text text-anchor="middle" x="1048.5" y="-68.8" font-family="Times,serif" font-size="14.00">16.0000</text>
<polyline fill="none" stroke="black" points="1086,-54.5 1086,-90.5 "/>
<text text-anchor="middle" x="1140" y="-68.8" font-family="Times,serif" font-size="14.00">grad: 1.0000</text>
</g>
<!-- 128626861050048*&#45;&gt;128626861050048 -->
<g id="edge3" class="edge">
<title>128626861050048*&#45;&gt;128626861050048</title>
<path fill="none" stroke="black" d="M953.27,-72.5C960.76,-72.5 969.43,-72.5 978.69,-72.5"/>
<polygon fill="black" stroke="black" points="978.96,-76 988.96,-72.5 978.96,-69 978.96,-76"/>
</g>
<!-- 128626863924496 -->
<g id="node9" class="node">
<title>128626863924496</title>
<polygon fill="none" stroke="black" points="3,-0.5 3,-36.5 202,-36.5 202,-0.5 3,-0.5"/>
<text text-anchor="middle" x="15.5" y="-14.8" font-family="Times,serif" font-size="14.00">a</text>
<polyline fill="none" stroke="black" points="28,-0.5 28,-36.5 "/>
<text text-anchor="middle" x="61" y="-14.8" font-family="Times,serif" font-size="14.00">2.0000</text>
<polyline fill="none" stroke="black" points="94,-0.5 94,-36.5 "/>
<text text-anchor="middle" x="148" y="-14.8" font-family="Times,serif" font-size="14.00">grad: 0.0000</text>
</g>
<!-- 128626863924496&#45;&gt;128626861049856* -->
<g id="edge8" class="edge">
<title>128626863924496&#45;&gt;128626861049856*</title>
<path fill="none" stroke="black" d="M202.38,-34.83C212.72,-36.54 222.69,-38.18 231.56,-39.65"/>
<polygon fill="black" stroke="black" points="231,-43.1 241.44,-41.28 232.14,-36.2 231,-43.1"/>
</g>
</g>
</svg>
