<?xml version="1.0" encoding="UTF-8" standalone="no"?>
<!DOCTYPE svg PUBLIC "-//W3C//DTD SVG 1.1//EN"
 "http://www.w3.org/Graphics/SVG/1.1/DTD/svg11.dtd">
<!-- Generated by graphviz version 2.43.0 (0)
 -->
<!-- Title: %3 Pages: 1 -->
<svg width="860pt" height="128pt"
 viewBox="0.00 0.00 860.00 128.00" xmlns="http://www.w3.org/2000/svg" xmlns:xlink="http://www.w3.org/1999/xlink">
<g id="graph0" class="graph" transform="scale(1 1) rotate(0) translate(4 124)">
<title>%3</title>
<polygon fill="white" stroke="transparent" points="-4,4 -4,-124 856,-124 856,4 -4,4"/>
<!-- 128626939522096 -->
<g id="node1" class="node">
<title>128626939522096</title>
<polygon fill="none" stroke="black" points="0,-83.5 0,-119.5 200,-119.5 200,-83.5 0,-83.5"/>
<text text-anchor="middle" x="13" y="-97.8" font-family="Times,serif" font-size="14.00">b</text>
<polyline fill="none" stroke="black" points="26,-83.5 26,-119.5 "/>
<text text-anchor="middle" x="59" y="-97.8" font-family="Times,serif" font-size="14.00">3.0000</text>
<polyline fill="none" stroke="black" points="92,-83.5 92,-119.5 "/>
<text text-anchor="middle" x="146" y="-97.8" font-family="Times,serif" font-size="14.00">grad: 1.0000</text>
</g>
<!-- 128626865210768* -->
<g id="node7" class="node">
<title>128626865210768*</title>
<ellipse fill="none" stroke="black" cx="263" cy="-73.5" rx="27" ry="18"/>
<text text-anchor="middle" x="263" y="-69.8" font-family="Times,serif" font-size="14.00">*</text>
</g>
<!-- 128626939522096&#45;&gt;128626865210768* -->
<g id="edge4" class="edge">
<title>128626939522096&#45;&gt;128626865210768*</title>
<path fill="none" stroke="black" d="M200.21,-84.25C209.57,-82.62 218.57,-81.05 226.67,-79.64"/>
<polygon fill="black" stroke="black" points="227.5,-83.05 236.76,-77.89 226.3,-76.16 227.5,-83.05"/>
</g>
<!-- 128626865214560 -->
<g id="node2" class="node">
<title>128626865214560</title>
<polygon fill="none" stroke="black" points="0,-28.5 0,-64.5 200,-64.5 200,-28.5 0,-28.5"/>
<text text-anchor="middle" x="10.5" y="-42.8" font-family="Times,serif" font-size="14.00"> </text>
<polyline fill="none" stroke="black" points="21,-28.5 21,-64.5 "/>
<text text-anchor="middle" x="56.5" y="-42.8" font-family="Times,serif" font-size="14.00">&#45;1.0000</text>
<polyline fill="none" stroke="black" points="92,-28.5 92,-64.5 "/>
<text text-anchor="middle" x="146" y="-42.8" font-family="Times,serif" font-size="14.00">grad: 0.0000</text>
</g>
<!-- 128626865214560&#45;&gt;128626865210768* -->
<g id="edge3" class="edge">
<title>128626865214560&#45;&gt;128626865210768*</title>
<path fill="none" stroke="black" d="M200.21,-63.14C209.57,-64.71 218.57,-66.22 226.67,-67.58"/>
<polygon fill="black" stroke="black" points="226.31,-71.06 236.76,-69.27 227.47,-64.16 226.31,-71.06"/>
</g>
<!-- 128626865217152 -->
<g id="node3" class="node">
<title>128626865217152</title>
<polygon fill="none" stroke="black" points="652,-27.5 652,-63.5 852,-63.5 852,-27.5 652,-27.5"/>
<text text-anchor="middle" x="662.5" y="-41.8" font-family="Times,serif" font-size="14.00"> </text>
<polyline fill="none" stroke="black" points="673,-27.5 673,-63.5 "/>
<text text-anchor="middle" x="708.5" y="-41.8" font-family="Times,serif" font-size="14.00">&#45;1.0000</text>
<polyline fill="none" stroke="black" points="744,-27.5 744,-63.5 "/>
<text text-anchor="middle" x="798" y="-41.8" font-family="Times,serif" font-size="14.00">grad: 0.0000</text>
</g>
<!-- 128626865217152+ -->
<g id="node4" class="node">
<title>128626865217152+</title>
<ellipse fill="none" stroke="black" cx="589" cy="-45.5" rx="27" ry="18"/>
<text text-anchor="middle" x="589" y="-41.8" font-family="Times,serif" font-size="14.00">+</text>
</g>
<!-- 128626865217152+&#45;&gt;128626865217152 -->
<g id="edge1" class="edge">
<title>128626865217152+&#45;&gt;128626865217152</title>
<path fill="none" stroke="black" d="M616.23,-45.5C623.69,-45.5 632.31,-45.5 641.52,-45.5"/>
<polygon fill="black" stroke="black" points="641.71,-49 651.71,-45.5 641.71,-42 641.71,-49"/>
</g>
<!-- 128626939519840 -->
<g id="node5" class="node">
<title>128626939519840</title>
<polygon fill="none" stroke="black" points="326.5,-0.5 326.5,-36.5 525.5,-36.5 525.5,-0.5 326.5,-0.5"/>
<text text-anchor="middle" x="339" y="-14.8" font-family="Times,serif" font-size="14.00">a</text>
<polyline fill="none" stroke="black" points="351.5,-0.5 351.5,-36.5 "/>
<text text-anchor="middle" x="384.5" y="-14.8" font-family="Times,serif" font-size="14.00">2.0000</text>
<polyline fill="none" stroke="black" points="417.5,-0.5 417.5,-36.5 "/>
<text text-anchor="middle" x="471.5" y="-14.8" font-family="Times,serif" font-size="14.00">grad: 1.0000</text>
</g>
<!-- 128626939519840&#45;&gt;128626865217152+ -->
<g id="edge5" class="edge">
<title>128626939519840&#45;&gt;128626865217152+</title>
<path fill="none" stroke="black" d="M525.75,-35.06C535.27,-36.66 544.43,-38.19 552.66,-39.57"/>
<polygon fill="black" stroke="black" points="552.1,-43.03 562.54,-41.23 553.26,-36.13 552.1,-43.03"/>
</g>
<!-- 128626865210768 -->
<g id="node6" class="node">
<title>128626865210768</title>
<polygon fill="none" stroke="black" points="326,-55.5 326,-91.5 526,-91.5 526,-55.5 326,-55.5"/>
<text text-anchor="middle" x="336.5" y="-69.8" font-family="Times,serif" font-size="14.00"> </text>
<polyline fill="none" stroke="black" points="347,-55.5 347,-91.5 "/>
<text text-anchor="middle" x="382.5" y="-69.8" font-family="Times,serif" font-size="14.00">&#45;3.0000</text>
<polyline fill="none" stroke="black" points="418,-55.5 418,-91.5 "/>
<text text-anchor="middle" x="472" y="-69.8" font-family="Times,serif" font-size="14.00">grad: 0.0000</text>
</g>
<!-- 128626865210768&#45;&gt;128626865217152+ -->
<g id="edge6" class="edge">
<title>128626865210768&#45;&gt;128626865217152+</title>
<path fill="none" stroke="black" d="M526.21,-56.25C535.57,-54.62 544.57,-53.05 552.67,-51.64"/>
<polygon fill="black" stroke="black" points="553.5,-55.05 562.76,-49.89 552.3,-48.16 553.5,-55.05"/>
</g>
<!-- 128626865210768*&#45;&gt;128626865210768 -->
<g id="edge2" class="edge">
<title>128626865210768*&#45;&gt;128626865210768</title>
<path fill="none" stroke="black" d="M290.23,-73.5C297.69,-73.5 306.31,-73.5 315.52,-73.5"/>
<polygon fill="black" stroke="black" points="315.71,-77 325.71,-73.5 315.71,-70 315.71,-77"/>
</g>
</g>
</svg>
