<?xml version="1.0" encoding="UTF-8" standalone="no"?>
<!DOCTYPE svg PUBLIC "-//W3C//DTD SVG 1.1//EN"
 "http://www.w3.org/Graphics/SVG/1.1/DTD/svg11.dtd">
<!-- Generated by graphviz version 2.43.0 (0)
 -->
<!-- Title: %3 Pages: 1 -->
<svg width="1186pt" height="110pt"
 viewBox="0.00 0.00 1186.00 110.00" xmlns="http://www.w3.org/2000/svg" xmlns:xlink="http://www.w3.org/1999/xlink">
<g id="graph0" class="graph" transform="scale(1 1) rotate(0) translate(4 106)">
<title>%3</title>
<polygon fill="white" stroke="transparent" points="-4,4 -4,-106 1182,-106 1182,4 -4,4"/>
<!-- 128626938466368 -->
<g id="node1" class="node">
<title>128626938466368</title>
<polygon fill="none" stroke="black" points="978,-51.5 978,-87.5 1178,-87.5 1178,-51.5 978,-51.5"/>
<text text-anchor="middle" x="988.5" y="-65.8" font-family="Times,serif" font-size="14.00"> </text>
<polyline fill="none" stroke="black" points="999,-51.5 999,-87.5 "/>
<text text-anchor="middle" x="1034.5" y="-65.8" font-family="Times,serif" font-size="14.00">&#45;7.0000</text>
<polyline fill="none" stroke="black" points="1070,-51.5 1070,-87.5 "/>
<text text-anchor="middle" x="1124" y="-65.8" font-family="Times,serif" font-size="14.00">grad: 0.0000</text>
</g>
<!-- 128626938466368+ -->
<g id="node2" class="node">
<title>128626938466368+</title>
<ellipse fill="none" stroke="black" cx="915" cy="-69.5" rx="27" ry="18"/>
<text text-anchor="middle" x="915" y="-65.8" font-family="Times,serif" font-size="14.00">+</text>
</g>
<!-- 128626938466368+&#45;&gt;128626938466368 -->
<g id="edge1" class="edge">
<title>128626938466368+&#45;&gt;128626938466368</title>
<path fill="none" stroke="black" d="M942.23,-69.5C949.69,-69.5 958.31,-69.5 967.52,-69.5"/>
<polygon fill="black" stroke="black" points="967.71,-73 977.71,-69.5 967.71,-66 967.71,-73"/>
</g>
<!-- 128626938475776 -->
<g id="node3" class="node">
<title>128626938475776</title>
<polygon fill="none" stroke="black" points="0.5,-0.5 0.5,-36.5 199.5,-36.5 199.5,-0.5 0.5,-0.5"/>
<text text-anchor="middle" x="13" y="-14.8" font-family="Times,serif" font-size="14.00">a</text>
<polyline fill="none" stroke="black" points="25.5,-0.5 25.5,-36.5 "/>
<text text-anchor="middle" x="58.5" y="-14.8" font-family="Times,serif" font-size="14.00">2.0000</text>
<polyline fill="none" stroke="black" points="91.5,-0.5 91.5,-36.5 "/>
<text text-anchor="middle" x="145.5" y="-14.8" font-family="Times,serif" font-size="14.00">grad: 0.0000</text>
</g>
<!-- 128626938472704* -->
<g id="node5" class="node">
<title>128626938472704*</title>
<ellipse fill="none" stroke="black" cx="263" cy="-46.5" rx="27" ry="18"/>
<text text-anchor="middle" x="263" y="-42.8" font-family="Times,serif" font-size="14.00">*</text>
</g>
<!-- 128626938475776&#45;&gt;128626938472704* -->
<g id="edge8" class="edge">
<title>128626938475776&#45;&gt;128626938472704*</title>
<path fill="none" stroke="black" d="M199.75,-35.67C209.27,-37.33 218.43,-38.92 226.66,-40.35"/>
<polygon fill="black" stroke="black" points="226.09,-43.81 236.54,-42.07 227.29,-36.91 226.09,-43.81"/>
</g>
<!-- 128626938466704+ -->
<g id="node8" class="node">
<title>128626938466704+</title>
<ellipse fill="none" stroke="black" cx="589" cy="-46.5" rx="27" ry="18"/>
<text text-anchor="middle" x="589" y="-42.8" font-family="Times,serif" font-size="14.00">+</text>
</g>
<!-- 128626938475776&#45;&gt;128626938466704+ -->
<g id="edge6" class="edge">
<title>128626938475776&#45;&gt;128626938466704+</title>
<path fill="none" stroke="black" d="M199.72,-6.85C286.66,0.67 416.18,5.15 526,-18.5 537.2,-20.91 548.81,-25.52 558.92,-30.3"/>
<polygon fill="black" stroke="black" points="557.57,-33.55 568.08,-34.89 560.71,-27.28 557.57,-33.55"/>
</g>
<!-- 128626938472704 -->
<g id="node4" class="node">
<title>128626938472704</title>
<polygon fill="none" stroke="black" points="326,-28.5 326,-64.5 526,-64.5 526,-28.5 326,-28.5"/>
<text text-anchor="middle" x="336.5" y="-42.8" font-family="Times,serif" font-size="14.00"> </text>
<polyline fill="none" stroke="black" points="347,-28.5 347,-64.5 "/>
<text text-anchor="middle" x="382.5" y="-42.8" font-family="Times,serif" font-size="14.00">&#45;6.0000</text>
<polyline fill="none" stroke="black" points="418,-28.5 418,-64.5 "/>
<text text-anchor="middle" x="472" y="-42.8" font-family="Times,serif" font-size="14.00">grad: 0.0000</text>
</g>
<!-- 128626938472704&#45;&gt;128626938466704+ -->
<g id="edge9" class="edge">
<title>128626938472704&#45;&gt;128626938466704+</title>
<path fill="none" stroke="black" d="M526.21,-46.5C535.2,-46.5 543.86,-46.5 551.7,-46.5"/>
<polygon fill="black" stroke="black" points="551.85,-50 561.85,-46.5 551.85,-43 551.85,-50"/>
</g>
<!-- 128626938472704*&#45;&gt;128626938472704 -->
<g id="edge2" class="edge">
<title>128626938472704*&#45;&gt;128626938472704</title>
<path fill="none" stroke="black" d="M290.23,-46.5C297.69,-46.5 306.31,-46.5 315.52,-46.5"/>
<polygon fill="black" stroke="black" points="315.71,-50 325.71,-46.5 315.71,-43 315.71,-50"/>
</g>
<!-- 128626938464640 -->
<g id="node6" class="node">
<title>128626938464640</title>
<polygon fill="none" stroke="black" points="0,-65.5 0,-101.5 200,-101.5 200,-65.5 0,-65.5"/>
<text text-anchor="middle" x="10.5" y="-79.8" font-family="Times,serif" font-size="14.00"> </text>
<polyline fill="none" stroke="black" points="21,-65.5 21,-101.5 "/>
<text text-anchor="middle" x="56.5" y="-79.8" font-family="Times,serif" font-size="14.00">&#45;3.0000</text>
<polyline fill="none" stroke="black" points="92,-65.5 92,-101.5 "/>
<text text-anchor="middle" x="146" y="-79.8" font-family="Times,serif" font-size="14.00">grad: 0.0000</text>
</g>
<!-- 128626938464640&#45;&gt;128626938466368+ -->
<g id="edge7" class="edge">
<title>128626938464640&#45;&gt;128626938466368+</title>
<path fill="none" stroke="black" d="M200.24,-88.15C264.35,-90.76 349.59,-93.5 425,-93.5 425,-93.5 425,-93.5 590,-93.5 694.82,-93.5 818.2,-80.85 877.95,-73.92"/>
<polygon fill="black" stroke="black" points="878.49,-77.38 888.01,-72.74 877.67,-70.43 878.49,-77.38"/>
</g>
<!-- 128626938464640&#45;&gt;128626938472704* -->
<g id="edge4" class="edge">
<title>128626938464640&#45;&gt;128626938472704*</title>
<path fill="none" stroke="black" d="M179.61,-65.43C196.28,-61.6 213.05,-57.75 227.07,-54.53"/>
<polygon fill="black" stroke="black" points="228.25,-57.85 237.21,-52.2 226.68,-51.03 228.25,-57.85"/>
</g>
<!-- 128626938466704 -->
<g id="node7" class="node">
<title>128626938466704</title>
<polygon fill="none" stroke="black" points="652,-28.5 652,-64.5 852,-64.5 852,-28.5 652,-28.5"/>
<text text-anchor="middle" x="662.5" y="-42.8" font-family="Times,serif" font-size="14.00"> </text>
<polyline fill="none" stroke="black" points="673,-28.5 673,-64.5 "/>
<text text-anchor="middle" x="708.5" y="-42.8" font-family="Times,serif" font-size="14.00">&#45;4.0000</text>
<polyline fill="none" stroke="black" points="744,-28.5 744,-64.5 "/>
<text text-anchor="middle" x="798" y="-42.8" font-family="Times,serif" font-size="14.00">grad: 0.0000</text>
</g>
<!-- 128626938466704&#45;&gt;128626938466368+ -->
<g id="edge5" class="edge">
<title>128626938466704&#45;&gt;128626938466368+</title>
<path fill="none" stroke="black" d="M852.21,-60.67C861.48,-62 870.4,-63.27 878.44,-64.42"/>
<polygon fill="black" stroke="black" points="878.06,-67.9 888.46,-65.85 879.05,-60.97 878.06,-67.9"/>
</g>
<!-- 128626938466704+&#45;&gt;128626938466704 -->
<g id="edge3" class="edge">
<title>128626938466704+&#45;&gt;128626938466704</title>
<path fill="none" stroke="black" d="M616.23,-46.5C623.69,-46.5 632.31,-46.5 641.52,-46.5"/>
<polygon fill="black" stroke="black" points="641.71,-50 651.71,-46.5 641.71,-43 641.71,-50"/>
</g>
</g>
</svg>
