<?xml version="1.0" encoding="UTF-8" standalone="no"?>
<!DOCTYPE svg PUBLIC "-//W3C//DTD SVG 1.1//EN"
 "http://www.w3.org/Graphics/SVG/1.1/DTD/svg11.dtd">
<!-- Generated by graphviz version 2.43.0 (0)
 -->
<!-- Title: %3 Pages: 1 -->
<svg width="534pt" height="100pt"
 viewBox="0.00 0.00 534.00 100.00" xmlns="http://www.w3.org/2000/svg" xmlns:xlink="http://www.w3.org/1999/xlink">
<g id="graph0" class="graph" transform="scale(1 1) rotate(0) translate(4 96)">
<title>%3</title>
<polygon fill="white" stroke="transparent" points="-4,4 -4,-96 530,-96 530,4 -4,4"/>
<!-- 128626939511344 -->
<g id="node1" class="node">
<title>128626939511344</title>
<polygon fill="none" stroke="black" points="0,-55.5 0,-91.5 200,-91.5 200,-55.5 0,-55.5"/>
<text text-anchor="middle" x="10.5" y="-69.8" font-family="Times,serif" font-size="14.00"> </text>
<polyline fill="none" stroke="black" points="21,-55.5 21,-91.5 "/>
<text text-anchor="middle" x="56.5" y="-69.8" font-family="Times,serif" font-size="14.00">&#45;1.0000</text>
<polyline fill="none" stroke="black" points="92,-55.5 92,-91.5 "/>
<text text-anchor="middle" x="146" y="-69.8" font-family="Times,serif" font-size="14.00">grad: 0.0000</text>
</g>
<!-- 128626939182928* -->
<g id="node3" class="node">
<title>128626939182928*</title>
<ellipse fill="none" stroke="black" cx="263" cy="-45.5" rx="27" ry="18"/>
<text text-anchor="middle" x="263" y="-41.8" font-family="Times,serif" font-size="14.00">*</text>
</g>
<!-- 128626939511344&#45;&gt;128626939182928* -->
<g id="edge2" class="edge">
<title>128626939511344&#45;&gt;128626939182928*</title>
<path fill="none" stroke="black" d="M200.21,-56.25C209.57,-54.62 218.57,-53.05 226.67,-51.64"/>
<polygon fill="black" stroke="black" points="227.5,-55.05 236.76,-49.89 226.3,-48.16 227.5,-55.05"/>
</g>
<!-- 128626939182928 -->
<g id="node2" class="node">
<title>128626939182928</title>
<polygon fill="none" stroke="black" points="326,-27.5 326,-63.5 526,-63.5 526,-27.5 326,-27.5"/>
<text text-anchor="middle" x="336.5" y="-41.8" font-family="Times,serif" font-size="14.00"> </text>
<polyline fill="none" stroke="black" points="347,-27.5 347,-63.5 "/>
<text text-anchor="middle" x="382.5" y="-41.8" font-family="Times,serif" font-size="14.00">&#45;2.0000</text>
<polyline fill="none" stroke="black" points="418,-27.5 418,-63.5 "/>
<text text-anchor="middle" x="472" y="-41.8" font-family="Times,serif" font-size="14.00">grad: 0.0000</text>
</g>
<!-- 128626939182928*&#45;&gt;128626939182928 -->
<g id="edge1" class="edge">
<title>128626939182928*&#45;&gt;128626939182928</title>
<path fill="none" stroke="black" d="M290.23,-45.5C297.69,-45.5 306.31,-45.5 315.52,-45.5"/>
<polygon fill="black" stroke="black" points="315.71,-49 325.71,-45.5 315.71,-42 315.71,-49"/>
</g>
<!-- 128626939519840 -->
<g id="node4" class="node">
<title>128626939519840</title>
<polygon fill="none" stroke="black" points="0.5,-0.5 0.5,-36.5 199.5,-36.5 199.5,-0.5 0.5,-0.5"/>
<text text-anchor="middle" x="13" y="-14.8" font-family="Times,serif" font-size="14.00">a</text>
<polyline fill="none" stroke="black" points="25.5,-0.5 25.5,-36.5 "/>
<text text-anchor="middle" x="58.5" y="-14.8" font-family="Times,serif" font-size="14.00">2.0000</text>
<polyline fill="none" stroke="black" points="91.5,-0.5 91.5,-36.5 "/>
<text text-anchor="middle" x="145.5" y="-14.8" font-family="Times,serif" font-size="14.00">grad: 1.0000</text>
</g>
<!-- 128626939519840&#45;&gt;128626939182928* -->
<g id="edge3" class="edge">
<title>128626939519840&#45;&gt;128626939182928*</title>
<path fill="none" stroke="black" d="M199.75,-35.06C209.27,-36.66 218.43,-38.19 226.66,-39.57"/>
<polygon fill="black" stroke="black" points="226.1,-43.03 236.54,-41.23 227.26,-36.13 226.1,-43.03"/>
</g>
</g>
</svg>
