<?xml version="1.0" encoding="UTF-8" standalone="no"?>
<!DOCTYPE svg PUBLIC "-//W3C//DTD SVG 1.1//EN"
 "http://www.w3.org/Graphics/SVG/1.1/DTD/svg11.dtd">
<!-- Generated by graphviz version 2.43.0 (0)
 -->
<!-- Title: %3 Pages: 1 -->
<svg width="1202pt" height="128pt"
 viewBox="0.00 0.00 1202.00 128.00" xmlns="http://www.w3.org/2000/svg" xmlns:xlink="http://www.w3.org/1999/xlink">
<g id="graph0" class="graph" transform="scale(1 1) rotate(0) translate(4 124)">
<title>%3</title>
<polygon fill="white" stroke="transparent" points="-4,4 -4,-124 1198,-124 1198,4 -4,4"/>
<!-- 128626863920416 -->
<g id="node1" class="node">
<title>128626863920416</title>
<polygon fill="none" stroke="black" points="0,-83.5 0,-119.5 205,-119.5 205,-83.5 0,-83.5"/>
<text text-anchor="middle" x="13" y="-97.8" font-family="Times,serif" font-size="14.00">b</text>
<polyline fill="none" stroke="black" points="26,-83.5 26,-119.5 "/>
<text text-anchor="middle" x="61.5" y="-97.8" font-family="Times,serif" font-size="14.00">&#45;3.0000</text>
<polyline fill="none" stroke="black" points="97,-83.5 97,-119.5 "/>
<text text-anchor="middle" x="151" y="-97.8" font-family="Times,serif" font-size="14.00">grad: 0.0000</text>
</g>
<!-- 128626937318864* -->
<g id="node7" class="node">
<title>128626937318864*</title>
<ellipse fill="none" stroke="black" cx="268" cy="-73.5" rx="27" ry="18"/>
<text text-anchor="middle" x="268" y="-69.8" font-family="Times,serif" font-size="14.00">*</text>
</g>
<!-- 128626863920416&#45;&gt;128626937318864* -->
<g id="edge6" class="edge">
<title>128626863920416&#45;&gt;128626937318864*</title>
<path fill="none" stroke="black" d="M205.19,-84.09C214.49,-82.49 223.42,-80.96 231.47,-79.58"/>
<polygon fill="black" stroke="black" points="232.22,-83.01 241.49,-77.87 231.04,-76.11 232.22,-83.01"/>
</g>
<!-- 128626863919984 -->
<g id="node2" class="node">
<title>128626863919984</title>
<polygon fill="none" stroke="black" points="331,-0.5 331,-36.5 538,-36.5 538,-0.5 331,-0.5"/>
<text text-anchor="middle" x="343" y="-14.8" font-family="Times,serif" font-size="14.00">c</text>
<polyline fill="none" stroke="black" points="355,-0.5 355,-36.5 "/>
<text text-anchor="middle" x="392.5" y="-14.8" font-family="Times,serif" font-size="14.00">10.0000</text>
<polyline fill="none" stroke="black" points="430,-0.5 430,-36.5 "/>
<text text-anchor="middle" x="484" y="-14.8" font-family="Times,serif" font-size="14.00">grad: 0.0000</text>
</g>
<!-- 128626937329040+ -->
<g id="node5" class="node">
<title>128626937329040+</title>
<ellipse fill="none" stroke="black" cx="601" cy="-45.5" rx="27" ry="18"/>
<text text-anchor="middle" x="601" y="-41.8" font-family="Times,serif" font-size="14.00">+</text>
</g>
<!-- 128626863919984&#45;&gt;128626937329040+ -->
<g id="edge8" class="edge">
<title>128626863919984&#45;&gt;128626937329040+</title>
<path fill="none" stroke="black" d="M538.28,-35.37C547.58,-36.9 556.51,-38.36 564.54,-39.68"/>
<polygon fill="black" stroke="black" points="564.11,-43.16 574.55,-41.32 565.25,-36.25 564.11,-43.16"/>
</g>
<!-- 128626863929200 -->
<g id="node3" class="node">
<title>128626863929200</title>
<polygon fill="none" stroke="black" points="3,-28.5 3,-64.5 202,-64.5 202,-28.5 3,-28.5"/>
<text text-anchor="middle" x="15.5" y="-42.8" font-family="Times,serif" font-size="14.00">a</text>
<polyline fill="none" stroke="black" points="28,-28.5 28,-64.5 "/>
<text text-anchor="middle" x="61" y="-42.8" font-family="Times,serif" font-size="14.00">2.0000</text>
<polyline fill="none" stroke="black" points="94,-28.5 94,-64.5 "/>
<text text-anchor="middle" x="148" y="-42.8" font-family="Times,serif" font-size="14.00">grad: 0.0000</text>
</g>
<!-- 128626863929200&#45;&gt;128626937318864* -->
<g id="edge7" class="edge">
<title>128626863929200&#45;&gt;128626937318864*</title>
<path fill="none" stroke="black" d="M202.38,-62.83C212.72,-64.54 222.69,-66.18 231.56,-67.65"/>
<polygon fill="black" stroke="black" points="231,-71.1 241.44,-69.28 232.14,-64.2 231,-71.1"/>
</g>
<!-- 128626937329040 -->
<g id="node4" class="node">
<title>128626937329040</title>
<polygon fill="none" stroke="black" points="664,-27.5 664,-63.5 863,-63.5 863,-27.5 664,-27.5"/>
<text text-anchor="middle" x="676.5" y="-41.8" font-family="Times,serif" font-size="14.00">e</text>
<polyline fill="none" stroke="black" points="689,-27.5 689,-63.5 "/>
<text text-anchor="middle" x="722" y="-41.8" font-family="Times,serif" font-size="14.00">4.0000</text>
<polyline fill="none" stroke="black" points="755,-27.5 755,-63.5 "/>
<text text-anchor="middle" x="809" y="-41.8" font-family="Times,serif" font-size="14.00">grad: 0.0000</text>
</g>
<!-- 128626937329136* -->
<g id="node9" class="node">
<title>128626937329136*</title>
<ellipse fill="none" stroke="black" cx="926" cy="-45.5" rx="27" ry="18"/>
<text text-anchor="middle" x="926" y="-41.8" font-family="Times,serif" font-size="14.00">*</text>
</g>
<!-- 128626937329040&#45;&gt;128626937329136* -->
<g id="edge5" class="edge">
<title>128626937329040&#45;&gt;128626937329136*</title>
<path fill="none" stroke="black" d="M863.41,-45.5C872.36,-45.5 880.99,-45.5 888.82,-45.5"/>
<polygon fill="black" stroke="black" points="888.93,-49 898.93,-45.5 888.93,-42 888.93,-49"/>
</g>
<!-- 128626937329040+&#45;&gt;128626937329040 -->
<g id="edge1" class="edge">
<title>128626937329040+&#45;&gt;128626937329040</title>
<path fill="none" stroke="black" d="M628.14,-45.5C635.65,-45.5 644.33,-45.5 653.6,-45.5"/>
<polygon fill="black" stroke="black" points="653.86,-49 663.86,-45.5 653.86,-42 653.86,-49"/>
</g>
<!-- 128626937318864 -->
<g id="node6" class="node">
<title>128626937318864</title>
<polygon fill="none" stroke="black" points="332,-55.5 332,-91.5 537,-91.5 537,-55.5 332,-55.5"/>
<text text-anchor="middle" x="345" y="-69.8" font-family="Times,serif" font-size="14.00">d</text>
<polyline fill="none" stroke="black" points="358,-55.5 358,-91.5 "/>
<text text-anchor="middle" x="393.5" y="-69.8" font-family="Times,serif" font-size="14.00">&#45;6.0000</text>
<polyline fill="none" stroke="black" points="429,-55.5 429,-91.5 "/>
<text text-anchor="middle" x="483" y="-69.8" font-family="Times,serif" font-size="14.00">grad: 0.0000</text>
</g>
<!-- 128626937318864&#45;&gt;128626937329040+ -->
<g id="edge4" class="edge">
<title>128626937318864&#45;&gt;128626937329040+</title>
<path fill="none" stroke="black" d="M537.34,-56.17C547.05,-54.51 556.36,-52.93 564.71,-51.51"/>
<polygon fill="black" stroke="black" points="565.45,-54.93 574.72,-49.8 564.28,-48.03 565.45,-54.93"/>
</g>
<!-- 128626937318864*&#45;&gt;128626937318864 -->
<g id="edge2" class="edge">
<title>128626937318864*&#45;&gt;128626937318864</title>
<path fill="none" stroke="black" d="M295.07,-73.5C302.8,-73.5 311.8,-73.5 321.43,-73.5"/>
<polygon fill="black" stroke="black" points="321.67,-77 331.67,-73.5 321.67,-70 321.67,-77"/>
</g>
<!-- 128626937329136 -->
<g id="node8" class="node">
<title>128626937329136</title>
<polygon fill="none" stroke="black" points="989,-27.5 989,-63.5 1194,-63.5 1194,-27.5 989,-27.5"/>
<text text-anchor="middle" x="1000" y="-41.8" font-family="Times,serif" font-size="14.00">f</text>
<polyline fill="none" stroke="black" points="1011,-27.5 1011,-63.5 "/>
<text text-anchor="middle" x="1048.5" y="-41.8" font-family="Times,serif" font-size="14.00">16.0000</text>
<polyline fill="none" stroke="black" points="1086,-27.5 1086,-63.5 "/>
<text text-anchor="middle" x="1140" y="-41.8" font-family="Times,serif" font-size="14.00">grad: 0.0000</text>
</g>
<!-- 128626937329136*&#45;&gt;128626937329136 -->
<g id="edge3" class="edge">
<title>128626937329136*&#45;&gt;128626937329136</title>
<path fill="none" stroke="black" d="M953.27,-45.5C960.76,-45.5 969.43,-45.5 978.69,-45.5"/>
<polygon fill="black" stroke="black" points="978.96,-49 988.96,-45.5 978.96,-42 978.96,-49"/>
</g>
</g>
</svg>
