<?xml version="1.0" encoding="UTF-8" standalone="no"?>
<!DOCTYPE svg PUBLIC "-//W3C//DTD SVG 1.1//EN"
 "http://www.w3.org/Graphics/SVG/1.1/DTD/svg11.dtd">
<!-- Generated by graphviz version 2.43.0 (0)
 -->
<!-- Title: %3 Pages: 1 -->
<svg width="848pt" height="100pt"
 viewBox="0.00 0.00 848.00 100.00" xmlns="http://www.w3.org/2000/svg" xmlns:xlink="http://www.w3.org/1999/xlink">
<g id="graph0" class="graph" transform="scale(1 1) rotate(0) translate(4 96)">
<title>%3</title>
<polygon fill="white" stroke="transparent" points="-4,4 -4,-96 844,-96 844,4 -4,4"/>
<!-- 128626858803472 -->
<g id="node1" class="node">
<title>128626858803472</title>
<polygon fill="none" stroke="black" points="0,-55.5 0,-91.5 198,-91.5 198,-55.5 0,-55.5"/>
<text text-anchor="middle" x="12" y="-69.8" font-family="Times,serif" font-size="14.00">s</text>
<polyline fill="none" stroke="black" points="24,-55.5 24,-91.5 "/>
<text text-anchor="middle" x="57" y="-69.8" font-family="Times,serif" font-size="14.00">2.0000</text>
<polyline fill="none" stroke="black" points="90,-55.5 90,-91.5 "/>
<text text-anchor="middle" x="144" y="-69.8" font-family="Times,serif" font-size="14.00">grad: 0.0000</text>
</g>
<!-- 128626858808368** -->
<g id="node5" class="node">
<title>128626858808368**</title>
<ellipse fill="none" stroke="black" cx="261" cy="-73.5" rx="27" ry="18"/>
<text text-anchor="middle" x="261" y="-69.8" font-family="Times,serif" font-size="14.00">**</text>
</g>
<!-- 128626858803472&#45;&gt;128626858808368** -->
<g id="edge4" class="edge">
<title>128626858803472&#45;&gt;128626858808368**</title>
<path fill="none" stroke="black" d="M198.14,-73.5C207.12,-73.5 215.78,-73.5 223.64,-73.5"/>
<polygon fill="black" stroke="black" points="223.8,-77 233.8,-73.5 223.8,-70 223.8,-77"/>
</g>
<!-- 128626858817824 -->
<g id="node2" class="node">
<title>128626858817824</title>
<polygon fill="none" stroke="black" points="645,-27.5 645,-63.5 840,-63.5 840,-27.5 645,-27.5"/>
<text text-anchor="middle" x="655.5" y="-41.8" font-family="Times,serif" font-size="14.00"> </text>
<polyline fill="none" stroke="black" points="666,-27.5 666,-63.5 "/>
<text text-anchor="middle" x="699" y="-41.8" font-family="Times,serif" font-size="14.00">1.0000</text>
<polyline fill="none" stroke="black" points="732,-27.5 732,-63.5 "/>
<text text-anchor="middle" x="786" y="-41.8" font-family="Times,serif" font-size="14.00">grad: 1.0000</text>
</g>
<!-- 128626858817824* -->
<g id="node3" class="node">
<title>128626858817824*</title>
<ellipse fill="none" stroke="black" cx="582" cy="-45.5" rx="27" ry="18"/>
<text text-anchor="middle" x="582" y="-41.8" font-family="Times,serif" font-size="14.00">*</text>
</g>
<!-- 128626858817824*&#45;&gt;128626858817824 -->
<g id="edge1" class="edge">
<title>128626858817824*&#45;&gt;128626858817824</title>
<path fill="none" stroke="black" d="M609.17,-45.5C616.66,-45.5 625.32,-45.5 634.56,-45.5"/>
<polygon fill="black" stroke="black" points="634.78,-49 644.78,-45.5 634.78,-42 634.78,-49"/>
</g>
<!-- 128626858808368 -->
<g id="node4" class="node">
<title>128626858808368</title>
<polygon fill="none" stroke="black" points="324,-55.5 324,-91.5 519,-91.5 519,-55.5 324,-55.5"/>
<text text-anchor="middle" x="334.5" y="-69.8" font-family="Times,serif" font-size="14.00"> </text>
<polyline fill="none" stroke="black" points="345,-55.5 345,-91.5 "/>
<text text-anchor="middle" x="378" y="-69.8" font-family="Times,serif" font-size="14.00">0.5000</text>
<polyline fill="none" stroke="black" points="411,-55.5 411,-91.5 "/>
<text text-anchor="middle" x="465" y="-69.8" font-family="Times,serif" font-size="14.00">grad: 2.0000</text>
</g>
<!-- 128626858808368&#45;&gt;128626858817824* -->
<g id="edge3" class="edge">
<title>128626858808368&#45;&gt;128626858817824*</title>
<path fill="none" stroke="black" d="M519.27,-56.41C528.59,-54.76 537.57,-53.17 545.66,-51.74"/>
<polygon fill="black" stroke="black" points="546.49,-55.15 555.73,-49.96 545.28,-48.26 546.49,-55.15"/>
</g>
<!-- 128626858808368**&#45;&gt;128626858808368 -->
<g id="edge2" class="edge">
<title>128626858808368**&#45;&gt;128626858808368</title>
<path fill="none" stroke="black" d="M288.17,-73.5C295.66,-73.5 304.32,-73.5 313.56,-73.5"/>
<polygon fill="black" stroke="black" points="313.78,-77 323.78,-73.5 313.78,-70 313.78,-77"/>
</g>
<!-- 128626858804384 -->
<g id="node6" class="node">
<title>128626858804384</title>
<polygon fill="none" stroke="black" points="324,-0.5 324,-36.5 519,-36.5 519,-0.5 324,-0.5"/>
<text text-anchor="middle" x="334.5" y="-14.8" font-family="Times,serif" font-size="14.00"> </text>
<polyline fill="none" stroke="black" points="345,-0.5 345,-36.5 "/>
<text text-anchor="middle" x="378" y="-14.8" font-family="Times,serif" font-size="14.00">2.0000</text>
<polyline fill="none" stroke="black" points="411,-0.5 411,-36.5 "/>
<text text-anchor="middle" x="465" y="-14.8" font-family="Times,serif" font-size="14.00">grad: 0.5000</text>
</g>
<!-- 128626858804384&#45;&gt;128626858817824* -->
<g id="edge5" class="edge">
<title>128626858804384&#45;&gt;128626858817824*</title>
<path fill="none" stroke="black" d="M519.27,-34.98C528.59,-36.57 537.57,-38.1 545.66,-39.48"/>
<polygon fill="black" stroke="black" points="545.29,-42.97 555.73,-41.2 546.46,-36.07 545.29,-42.97"/>
</g>
</g>
</svg>
