<?xml version="1.0" encoding="UTF-8" standalone="no"?>
<!DOCTYPE svg PUBLIC "-//W3C//DTD SVG 1.1//EN"
 "http://www.w3.org/Graphics/SVG/1.1/DTD/svg11.dtd">
<!-- Generated by graphviz version 2.43.0 (0)
 -->
<!-- Title: %3 Pages: 1 -->
<svg width="532pt" height="45pt"
 viewBox="0.00 0.00 532.49 45.00" xmlns="http://www.w3.org/2000/svg" xmlns:xlink="http://www.w3.org/1999/xlink">
<g id="graph0" class="graph" transform="scale(1 1) rotate(0) translate(4 41)">
<title>%3</title>
<polygon fill="white" stroke="transparent" points="-4,4 -4,-41 528.49,-41 528.49,4 -4,4"/>
<!-- 128626727207184 -->
<g id="node1" class="node">
<title>128626727207184</title>
<polygon fill="none" stroke="black" points="329.49,-0.5 329.49,-36.5 524.49,-36.5 524.49,-0.5 329.49,-0.5"/>
<text text-anchor="middle" x="339.99" y="-14.8" font-family="Times,serif" font-size="14.00"> </text>
<polyline fill="none" stroke="black" points="350.49,-0.5 350.49,-36.5 "/>
<text text-anchor="middle" x="383.49" y="-14.8" font-family="Times,serif" font-size="14.00">3.0000</text>
<polyline fill="none" stroke="black" points="416.49,-0.5 416.49,-36.5 "/>
<text text-anchor="middle" x="470.49" y="-14.8" font-family="Times,serif" font-size="14.00">grad: 0.0000</text>
</g>
<!-- 128626727207184relu -->
<g id="node2" class="node">
<title>128626727207184relu</title>
<ellipse fill="none" stroke="black" cx="264.25" cy="-18.5" rx="29.5" ry="18"/>
<text text-anchor="middle" x="264.25" y="-14.8" font-family="Times,serif" font-size="14.00">relu</text>
</g>
<!-- 128626727207184relu&#45;&gt;128626727207184 -->
<g id="edge1" class="edge">
<title>128626727207184relu&#45;&gt;128626727207184</title>
<path fill="none" stroke="black" d="M293.62,-18.5C301.23,-18.5 309.93,-18.5 319.16,-18.5"/>
<polygon fill="black" stroke="black" points="319.35,-22 329.35,-18.5 319.35,-15 319.35,-22"/>
</g>
<!-- 128626727768128 -->
<g id="node3" class="node">
<title>128626727768128</title>
<polygon fill="none" stroke="black" points="0,-0.5 0,-36.5 199,-36.5 199,-0.5 0,-0.5"/>
<text text-anchor="middle" x="12.5" y="-14.8" font-family="Times,serif" font-size="14.00">a</text>
<polyline fill="none" stroke="black" points="25,-0.5 25,-36.5 "/>
<text text-anchor="middle" x="58" y="-14.8" font-family="Times,serif" font-size="14.00">3.0000</text>
<polyline fill="none" stroke="black" points="91,-0.5 91,-36.5 "/>
<text text-anchor="middle" x="145" y="-14.8" font-family="Times,serif" font-size="14.00">grad: 0.0000</text>
</g>
<!-- 128626727768128&#45;&gt;128626727207184relu -->
<g id="edge2" class="edge">
<title>128626727768128&#45;&gt;128626727207184relu</title>
<path fill="none" stroke="black" d="M199.39,-18.5C208.27,-18.5 216.86,-18.5 224.7,-18.5"/>
<polygon fill="black" stroke="black" points="224.89,-22 234.89,-18.5 224.89,-15 224.89,-22"/>
</g>
</g>
</svg>
