<?xml version="1.0" encoding="UTF-8" standalone="no"?>
<!DOCTYPE svg PUBLIC "-//W3C//DTD SVG 1.1//EN"
 "http://www.w3.org/Graphics/SVG/1.1/DTD/svg11.dtd">
<!-- Generated by graphviz version 2.43.0 (0)
 -->
<!-- Title: %3 Pages: 1 -->
<svg width="1211pt" height="128pt"
 viewBox="0.00 0.00 1211.00 128.00" xmlns="http://www.w3.org/2000/svg" xmlns:xlink="http://www.w3.org/1999/xlink">
<g id="graph0" class="graph" transform="scale(1 1) rotate(0) translate(4 124)">
<title>%3</title>
<polygon fill="white" stroke="transparent" points="-4,4 -4,-124 1207,-124 1207,4 -4,4"/>
<!-- 128626863920416 -->
<g id="node1" class="node">
<title>128626863920416</title>
<polygon fill="none" stroke="black" points="0,-83.5 0,-119.5 214,-119.5 214,-83.5 0,-83.5"/>
<text text-anchor="middle" x="13" y="-97.8" font-family="Times,serif" font-size="14.00">b</text>
<polyline fill="none" stroke="black" points="26,-83.5 26,-119.5 "/>
<text text-anchor="middle" x="61.5" y="-97.8" font-family="Times,serif" font-size="14.00">&#45;3.0000</text>
<polyline fill="none" stroke="black" points="97,-83.5 97,-119.5 "/>
<text text-anchor="middle" x="155.5" y="-97.8" font-family="Times,serif" font-size="14.00">grad: 16.0000</text>
</g>
<!-- 128626937318864* -->
<g id="node7" class="node">
<title>128626937318864*</title>
<ellipse fill="none" stroke="black" cx="277" cy="-73.5" rx="27" ry="18"/>
<text text-anchor="middle" x="277" y="-69.8" font-family="Times,serif" font-size="14.00">*</text>
</g>
<!-- 128626863920416&#45;&gt;128626937318864* -->
<g id="edge6" class="edge">
<title>128626863920416&#45;&gt;128626937318864*</title>
<path fill="none" stroke="black" d="M214.4,-83.77C223.72,-82.21 232.65,-80.72 240.68,-79.39"/>
<polygon fill="black" stroke="black" points="241.38,-82.82 250.66,-77.72 240.22,-75.91 241.38,-82.82"/>
</g>
<!-- 128626863919984 -->
<g id="node2" class="node">
<title>128626863919984</title>
<polygon fill="none" stroke="black" points="340,-0.5 340,-36.5 547,-36.5 547,-0.5 340,-0.5"/>
<text text-anchor="middle" x="352" y="-14.8" font-family="Times,serif" font-size="14.00">c</text>
<polyline fill="none" stroke="black" points="364,-0.5 364,-36.5 "/>
<text text-anchor="middle" x="401.5" y="-14.8" font-family="Times,serif" font-size="14.00">10.0000</text>
<polyline fill="none" stroke="black" points="439,-0.5 439,-36.5 "/>
<text text-anchor="middle" x="493" y="-14.8" font-family="Times,serif" font-size="14.00">grad: 8.0000</text>
</g>
<!-- 128626937329040+ -->
<g id="node5" class="node">
<title>128626937329040+</title>
<ellipse fill="none" stroke="black" cx="610" cy="-45.5" rx="27" ry="18"/>
<text text-anchor="middle" x="610" y="-41.8" font-family="Times,serif" font-size="14.00">+</text>
</g>
<!-- 128626863919984&#45;&gt;128626937329040+ -->
<g id="edge8" class="edge">
<title>128626863919984&#45;&gt;128626937329040+</title>
<path fill="none" stroke="black" d="M547.28,-35.37C556.58,-36.9 565.51,-38.36 573.54,-39.68"/>
<polygon fill="black" stroke="black" points="573.11,-43.16 583.55,-41.32 574.25,-36.25 573.11,-43.16"/>
</g>
<!-- 128626863929200 -->
<g id="node3" class="node">
<title>128626863929200</title>
<polygon fill="none" stroke="black" points="0.5,-28.5 0.5,-64.5 213.5,-64.5 213.5,-28.5 0.5,-28.5"/>
<text text-anchor="middle" x="13" y="-42.8" font-family="Times,serif" font-size="14.00">a</text>
<polyline fill="none" stroke="black" points="25.5,-28.5 25.5,-64.5 "/>
<text text-anchor="middle" x="58.5" y="-42.8" font-family="Times,serif" font-size="14.00">2.0000</text>
<polyline fill="none" stroke="black" points="91.5,-28.5 91.5,-64.5 "/>
<text text-anchor="middle" x="152.5" y="-42.8" font-family="Times,serif" font-size="14.00">grad: &#45;24.0000</text>
</g>
<!-- 128626863929200&#45;&gt;128626937318864* -->
<g id="edge7" class="edge">
<title>128626863929200&#45;&gt;128626937318864*</title>
<path fill="none" stroke="black" d="M213.92,-63.52C223.31,-65.03 232.3,-66.48 240.38,-67.78"/>
<polygon fill="black" stroke="black" points="240.02,-71.26 250.45,-69.39 241.13,-64.35 240.02,-71.26"/>
</g>
<!-- 128626937329040 -->
<g id="node4" class="node">
<title>128626937329040</title>
<polygon fill="none" stroke="black" points="673,-27.5 673,-63.5 872,-63.5 872,-27.5 673,-27.5"/>
<text text-anchor="middle" x="685.5" y="-41.8" font-family="Times,serif" font-size="14.00">e</text>
<polyline fill="none" stroke="black" points="698,-27.5 698,-63.5 "/>
<text text-anchor="middle" x="731" y="-41.8" font-family="Times,serif" font-size="14.00">4.0000</text>
<polyline fill="none" stroke="black" points="764,-27.5 764,-63.5 "/>
<text text-anchor="middle" x="818" y="-41.8" font-family="Times,serif" font-size="14.00">grad: 8.0000</text>
</g>
<!-- 128626937329136* -->
<g id="node9" class="node">
<title>128626937329136*</title>
<ellipse fill="none" stroke="black" cx="935" cy="-45.5" rx="27" ry="18"/>
<text text-anchor="middle" x="935" y="-41.8" font-family="Times,serif" font-size="14.00">*</text>
</g>
<!-- 128626937329040&#45;&gt;128626937329136* -->
<g id="edge5" class="edge">
<title>128626937329040&#45;&gt;128626937329136*</title>
<path fill="none" stroke="black" d="M872.41,-45.5C881.36,-45.5 889.99,-45.5 897.82,-45.5"/>
<polygon fill="black" stroke="black" points="897.93,-49 907.93,-45.5 897.93,-42 897.93,-49"/>
</g>
<!-- 128626937329040+&#45;&gt;128626937329040 -->
<g id="edge1" class="edge">
<title>128626937329040+&#45;&gt;128626937329040</title>
<path fill="none" stroke="black" d="M637.14,-45.5C644.65,-45.5 653.33,-45.5 662.6,-45.5"/>
<polygon fill="black" stroke="black" points="662.86,-49 672.86,-45.5 662.86,-42 662.86,-49"/>
</g>
<!-- 128626937318864 -->
<g id="node6" class="node">
<title>128626937318864</title>
<polygon fill="none" stroke="black" points="341,-55.5 341,-91.5 546,-91.5 546,-55.5 341,-55.5"/>
<text text-anchor="middle" x="354" y="-69.8" font-family="Times,serif" font-size="14.00">d</text>
<polyline fill="none" stroke="black" points="367,-55.5 367,-91.5 "/>
<text text-anchor="middle" x="402.5" y="-69.8" font-family="Times,serif" font-size="14.00">&#45;6.0000</text>
<polyline fill="none" stroke="black" points="438,-55.5 438,-91.5 "/>
<text text-anchor="middle" x="492" y="-69.8" font-family="Times,serif" font-size="14.00">grad: 8.0000</text>
</g>
<!-- 128626937318864&#45;&gt;128626937329040+ -->
<g id="edge4" class="edge">
<title>128626937318864&#45;&gt;128626937329040+</title>
<path fill="none" stroke="black" d="M546.34,-56.17C556.05,-54.51 565.36,-52.93 573.71,-51.51"/>
<polygon fill="black" stroke="black" points="574.45,-54.93 583.72,-49.8 573.28,-48.03 574.45,-54.93"/>
</g>
<!-- 128626937318864*&#45;&gt;128626937318864 -->
<g id="edge2" class="edge">
<title>128626937318864*&#45;&gt;128626937318864</title>
<path fill="none" stroke="black" d="M304.07,-73.5C311.8,-73.5 320.8,-73.5 330.43,-73.5"/>
<polygon fill="black" stroke="black" points="330.67,-77 340.67,-73.5 330.67,-70 330.67,-77"/>
</g>
<!-- 128626937329136 -->
<g id="node8" class="node">
<title>128626937329136</title>
<polygon fill="none" stroke="black" points="998,-27.5 998,-63.5 1203,-63.5 1203,-27.5 998,-27.5"/>
<text text-anchor="middle" x="1009" y="-41.8" font-family="Times,serif" font-size="14.00">f</text>
<polyline fill="none" stroke="black" points="1020,-27.5 1020,-63.5 "/>
<text text-anchor="middle" x="1057.5" y="-41.8" font-family="Times,serif" font-size="14.00">16.0000</text>
<polyline fill="none" stroke="black" points="1095,-27.5 1095,-63.5 "/>
<text text-anchor="middle" x="1149" y="-41.8" font-family="Times,serif" font-size="14.00">grad: 1.0000</text>
</g>
<!-- 128626937329136*&#45;&gt;128626937329136 -->
<g id="edge3" class="edge">
<title>128626937329136*&#45;&gt;128626937329136</title>
<path fill="none" stroke="black" d="M962.27,-45.5C969.76,-45.5 978.43,-45.5 987.69,-45.5"/>
<polygon fill="black" stroke="black" points="987.96,-49 997.96,-45.5 987.96,-42 987.96,-49"/>
</g>
</g>
</svg>
