<?xml version="1.0" encoding="UTF-8" standalone="no"?>
<!DOCTYPE svg PUBLIC "-//W3C//DTD SVG 1.1//EN"
 "http://www.w3.org/Graphics/SVG/1.1/DTD/svg11.dtd">
<!-- Generated by graphviz version 2.43.0 (0)
 -->
<!-- Title: %3 Pages: 1 -->
<svg width="871pt" height="128pt"
 viewBox="0.00 0.00 871.00 128.00" xmlns="http://www.w3.org/2000/svg" xmlns:xlink="http://www.w3.org/1999/xlink">
<g id="graph0" class="graph" transform="scale(1 1) rotate(0) translate(4 124)">
<title>%3</title>
<polygon fill="white" stroke="transparent" points="-4,4 -4,-124 867,-124 867,4 -4,4"/>
<!-- 128626939174528 -->
<g id="node1" class="node">
<title>128626939174528</title>
<polygon fill="none" stroke="black" points="3,-83.5 3,-119.5 202,-119.5 202,-83.5 3,-83.5"/>
<text text-anchor="middle" x="15.5" y="-97.8" font-family="Times,serif" font-size="14.00">a</text>
<polyline fill="none" stroke="black" points="28,-83.5 28,-119.5 "/>
<text text-anchor="middle" x="61" y="-97.8" font-family="Times,serif" font-size="14.00">2.0000</text>
<polyline fill="none" stroke="black" points="94,-83.5 94,-119.5 "/>
<text text-anchor="middle" x="148" y="-97.8" font-family="Times,serif" font-size="14.00">grad: 0.0000</text>
</g>
<!-- 128626939176688* -->
<g id="node6" class="node">
<title>128626939176688*</title>
<ellipse fill="none" stroke="black" cx="268" cy="-73.5" rx="27" ry="18"/>
<text text-anchor="middle" x="268" y="-69.8" font-family="Times,serif" font-size="14.00">*</text>
</g>
<!-- 128626939174528&#45;&gt;128626939176688* -->
<g id="edge4" class="edge">
<title>128626939174528&#45;&gt;128626939176688*</title>
<path fill="none" stroke="black" d="M202.38,-84.57C212.82,-82.78 222.87,-81.06 231.81,-79.53"/>
<polygon fill="black" stroke="black" points="232.48,-82.96 241.74,-77.83 231.3,-76.06 232.48,-82.96"/>
</g>
<!-- 128626939175056 -->
<g id="node2" class="node">
<title>128626939175056</title>
<polygon fill="none" stroke="black" points="664,-27.5 664,-63.5 863,-63.5 863,-27.5 664,-27.5"/>
<text text-anchor="middle" x="676.5" y="-41.8" font-family="Times,serif" font-size="14.00">e</text>
<polyline fill="none" stroke="black" points="689,-27.5 689,-63.5 "/>
<text text-anchor="middle" x="722" y="-41.8" font-family="Times,serif" font-size="14.00">4.0000</text>
<polyline fill="none" stroke="black" points="755,-27.5 755,-63.5 "/>
<text text-anchor="middle" x="809" y="-41.8" font-family="Times,serif" font-size="14.00">grad: 0.0000</text>
</g>
<!-- 128626939175056+ -->
<g id="node3" class="node">
<title>128626939175056+</title>
<ellipse fill="none" stroke="black" cx="601" cy="-45.5" rx="27" ry="18"/>
<text text-anchor="middle" x="601" y="-41.8" font-family="Times,serif" font-size="14.00">+</text>
</g>
<!-- 128626939175056+&#45;&gt;128626939175056 -->
<g id="edge1" class="edge">
<title>128626939175056+&#45;&gt;128626939175056</title>
<path fill="none" stroke="black" d="M628.14,-45.5C635.65,-45.5 644.33,-45.5 653.6,-45.5"/>
<polygon fill="black" stroke="black" points="653.86,-49 663.86,-45.5 653.86,-42 653.86,-49"/>
</g>
<!-- 128626939179184 -->
<g id="node4" class="node">
<title>128626939179184</title>
<polygon fill="none" stroke="black" points="0,-28.5 0,-64.5 205,-64.5 205,-28.5 0,-28.5"/>
<text text-anchor="middle" x="13" y="-42.8" font-family="Times,serif" font-size="14.00">b</text>
<polyline fill="none" stroke="black" points="26,-28.5 26,-64.5 "/>
<text text-anchor="middle" x="61.5" y="-42.8" font-family="Times,serif" font-size="14.00">&#45;3.0000</text>
<polyline fill="none" stroke="black" points="97,-28.5 97,-64.5 "/>
<text text-anchor="middle" x="151" y="-42.8" font-family="Times,serif" font-size="14.00">grad: 0.0000</text>
</g>
<!-- 128626939179184&#45;&gt;128626939176688* -->
<g id="edge6" class="edge">
<title>128626939179184&#45;&gt;128626939176688*</title>
<path fill="none" stroke="black" d="M205.19,-63.29C214.49,-64.83 223.42,-66.3 231.47,-67.63"/>
<polygon fill="black" stroke="black" points="231.05,-71.11 241.49,-69.29 232.19,-64.2 231.05,-71.11"/>
</g>
<!-- 128626939176688 -->
<g id="node5" class="node">
<title>128626939176688</title>
<polygon fill="none" stroke="black" points="332,-55.5 332,-91.5 537,-91.5 537,-55.5 332,-55.5"/>
<text text-anchor="middle" x="345" y="-69.8" font-family="Times,serif" font-size="14.00">d</text>
<polyline fill="none" stroke="black" points="358,-55.5 358,-91.5 "/>
<text text-anchor="middle" x="393.5" y="-69.8" font-family="Times,serif" font-size="14.00">&#45;6.0000</text>
<polyline fill="none" stroke="black" points="429,-55.5 429,-91.5 "/>
<text text-anchor="middle" x="483" y="-69.8" font-family="Times,serif" font-size="14.00">grad: 0.0000</text>
</g>
<!-- 128626939176688&#45;&gt;128626939175056+ -->
<g id="edge3" class="edge">
<title>128626939176688&#45;&gt;128626939175056+</title>
<path fill="none" stroke="black" d="M537.34,-56.17C547.05,-54.51 556.36,-52.93 564.71,-51.51"/>
<polygon fill="black" stroke="black" points="565.45,-54.93 574.72,-49.8 564.28,-48.03 565.45,-54.93"/>
</g>
<!-- 128626939176688*&#45;&gt;128626939176688 -->
<g id="edge2" class="edge">
<title>128626939176688*&#45;&gt;128626939176688</title>
<path fill="none" stroke="black" d="M295.07,-73.5C302.8,-73.5 311.8,-73.5 321.43,-73.5"/>
<polygon fill="black" stroke="black" points="321.67,-77 331.67,-73.5 321.67,-70 321.67,-77"/>
</g>
<!-- 128626939174240 -->
<g id="node7" class="node">
<title>128626939174240</title>
<polygon fill="none" stroke="black" points="331,-0.5 331,-36.5 538,-36.5 538,-0.5 331,-0.5"/>
<text text-anchor="middle" x="343" y="-14.8" font-family="Times,serif" font-size="14.00">c</text>
<polyline fill="none" stroke="black" points="355,-0.5 355,-36.5 "/>
<text text-anchor="middle" x="392.5" y="-14.8" font-family="Times,serif" font-size="14.00">10.0000</text>
<polyline fill="none" stroke="black" points="430,-0.5 430,-36.5 "/>
<text text-anchor="middle" x="484" y="-14.8" font-family="Times,serif" font-size="14.00">grad: 0.0000</text>
</g>
<!-- 128626939174240&#45;&gt;128626939175056+ -->
<g id="edge5" class="edge">
<title>128626939174240&#45;&gt;128626939175056+</title>
<path fill="none" stroke="black" d="M538.28,-35.37C547.58,-36.9 556.51,-38.36 564.54,-39.68"/>
<polygon fill="black" stroke="black" points="564.11,-43.16 574.55,-41.32 565.25,-36.25 564.11,-43.16"/>
</g>
</g>
</svg>
