<?xml version="1.0" encoding="UTF-8" standalone="no"?>
<!DOCTYPE svg PUBLIC "-//W3C//DTD SVG 1.1//EN"
 "http://www.w3.org/Graphics/SVG/1.1/DTD/svg11.dtd">
<!-- Generated by graphviz version 2.43.0 (0)
 -->
<!-- Title: %3 Pages: 1 -->
<svg width="1515pt" height="111pt"
 viewBox="0.00 0.00 1515.00 110.50" xmlns="http://www.w3.org/2000/svg" xmlns:xlink="http://www.w3.org/1999/xlink">
<g id="graph0" class="graph" transform="scale(1 1) rotate(0) translate(4 106.5)">
<title>%3</title>
<polygon fill="white" stroke="transparent" points="-4,4 -4,-106.5 1511,-106.5 1511,4 -4,4"/>
<!-- 128626938466368 -->
<g id="node1" class="node">
<title>128626938466368</title>
<polygon fill="none" stroke="black" points="978,-5 978,-41 1181,-41 1181,-5 978,-5"/>
<text text-anchor="middle" x="990" y="-19.3" font-family="Times,serif" font-size="14.00">c</text>
<polyline fill="none" stroke="black" points="1002,-5 1002,-41 "/>
<text text-anchor="middle" x="1037.5" y="-19.3" font-family="Times,serif" font-size="14.00">&#45;7.0000</text>
<polyline fill="none" stroke="black" points="1073,-5 1073,-41 "/>
<text text-anchor="middle" x="1127" y="-19.3" font-family="Times,serif" font-size="14.00">grad: 0.0000</text>
</g>
<!-- 128626939177360/ -->
<g id="node11" class="node">
<title>128626939177360/</title>
<ellipse fill="none" stroke="black" cx="1244" cy="-50" rx="27" ry="18"/>
<text text-anchor="middle" x="1244" y="-46.3" font-family="Times,serif" font-size="14.00">/</text>
</g>
<!-- 128626938466368&#45;&gt;128626939177360/ -->
<g id="edge10" class="edge">
<title>128626938466368&#45;&gt;128626939177360/</title>
<path fill="none" stroke="black" d="M1181.1,-39.72C1190.49,-41.28 1199.52,-42.78 1207.63,-44.12"/>
<polygon fill="black" stroke="black" points="1207.29,-47.62 1217.73,-45.8 1208.44,-40.71 1207.29,-47.62"/>
</g>
<!-- 128626938466368+ -->
<g id="node2" class="node">
<title>128626938466368+</title>
<ellipse fill="none" stroke="black" cx="915" cy="-23" rx="27" ry="18"/>
<text text-anchor="middle" x="915" y="-19.3" font-family="Times,serif" font-size="14.00">+</text>
</g>
<!-- 128626938466368+&#45;&gt;128626938466368 -->
<g id="edge1" class="edge">
<title>128626938466368+&#45;&gt;128626938466368</title>
<path fill="none" stroke="black" d="M942.11,-23C949.7,-23 958.51,-23 967.92,-23"/>
<polygon fill="black" stroke="black" points="967.92,-26.5 977.92,-23 967.92,-19.5 967.92,-26.5"/>
</g>
<!-- 128626938466704 -->
<g id="node3" class="node">
<title>128626938466704</title>
<polygon fill="none" stroke="black" points="652,-29 652,-65 852,-65 852,-29 652,-29"/>
<text text-anchor="middle" x="662.5" y="-43.3" font-family="Times,serif" font-size="14.00"> </text>
<polyline fill="none" stroke="black" points="673,-29 673,-65 "/>
<text text-anchor="middle" x="708.5" y="-43.3" font-family="Times,serif" font-size="14.00">&#45;4.0000</text>
<polyline fill="none" stroke="black" points="744,-29 744,-65 "/>
<text text-anchor="middle" x="798" y="-43.3" font-family="Times,serif" font-size="14.00">grad: 0.0000</text>
</g>
<!-- 128626938466704&#45;&gt;128626938466368+ -->
<g id="edge6" class="edge">
<title>128626938466704&#45;&gt;128626938466368+</title>
<path fill="none" stroke="black" d="M852.21,-32.21C861.48,-30.83 870.4,-29.5 878.44,-28.3"/>
<polygon fill="black" stroke="black" points="879.08,-31.74 888.46,-26.81 878.05,-24.82 879.08,-31.74"/>
</g>
<!-- 128626938466704+ -->
<g id="node4" class="node">
<title>128626938466704+</title>
<ellipse fill="none" stroke="black" cx="589" cy="-47" rx="27" ry="18"/>
<text text-anchor="middle" x="589" y="-43.3" font-family="Times,serif" font-size="14.00">+</text>
</g>
<!-- 128626938466704+&#45;&gt;128626938466704 -->
<g id="edge2" class="edge">
<title>128626938466704+&#45;&gt;128626938466704</title>
<path fill="none" stroke="black" d="M616.23,-47C623.69,-47 632.31,-47 641.52,-47"/>
<polygon fill="black" stroke="black" points="641.71,-50.5 651.71,-47 641.71,-43.5 641.71,-50.5"/>
</g>
<!-- 128626938472704 -->
<g id="node5" class="node">
<title>128626938472704</title>
<polygon fill="none" stroke="black" points="326,-29 326,-65 526,-65 526,-29 326,-29"/>
<text text-anchor="middle" x="336.5" y="-43.3" font-family="Times,serif" font-size="14.00"> </text>
<polyline fill="none" stroke="black" points="347,-29 347,-65 "/>
<text text-anchor="middle" x="382.5" y="-43.3" font-family="Times,serif" font-size="14.00">&#45;6.0000</text>
<polyline fill="none" stroke="black" points="418,-29 418,-65 "/>
<text text-anchor="middle" x="472" y="-43.3" font-family="Times,serif" font-size="14.00">grad: 0.0000</text>
</g>
<!-- 128626938472704&#45;&gt;128626938466704+ -->
<g id="edge12" class="edge">
<title>128626938472704&#45;&gt;128626938466704+</title>
<path fill="none" stroke="black" d="M526.21,-47C535.2,-47 543.86,-47 551.7,-47"/>
<polygon fill="black" stroke="black" points="551.85,-50.5 561.85,-47 551.85,-43.5 551.85,-50.5"/>
</g>
<!-- 128626938472704* -->
<g id="node6" class="node">
<title>128626938472704*</title>
<ellipse fill="none" stroke="black" cx="263" cy="-47" rx="27" ry="18"/>
<text text-anchor="middle" x="263" y="-43.3" font-family="Times,serif" font-size="14.00">*</text>
</g>
<!-- 128626938472704*&#45;&gt;128626938472704 -->
<g id="edge3" class="edge">
<title>128626938472704*&#45;&gt;128626938472704</title>
<path fill="none" stroke="black" d="M290.23,-47C297.69,-47 306.31,-47 315.52,-47"/>
<polygon fill="black" stroke="black" points="315.71,-50.5 325.71,-47 315.71,-43.5 315.71,-50.5"/>
</g>
<!-- 128626938475776 -->
<g id="node7" class="node">
<title>128626938475776</title>
<polygon fill="none" stroke="black" points="0.5,-66 0.5,-102 199.5,-102 199.5,-66 0.5,-66"/>
<text text-anchor="middle" x="13" y="-80.3" font-family="Times,serif" font-size="14.00">a</text>
<polyline fill="none" stroke="black" points="25.5,-66 25.5,-102 "/>
<text text-anchor="middle" x="58.5" y="-80.3" font-family="Times,serif" font-size="14.00">2.0000</text>
<polyline fill="none" stroke="black" points="91.5,-66 91.5,-102 "/>
<text text-anchor="middle" x="145.5" y="-80.3" font-family="Times,serif" font-size="14.00">grad: 0.0000</text>
</g>
<!-- 128626938475776&#45;&gt;128626938466704+ -->
<g id="edge7" class="edge">
<title>128626938475776&#45;&gt;128626938466704+</title>
<path fill="none" stroke="black" d="M199.84,-92.99C286.85,-98.3 416.41,-99.82 526,-75 537.17,-72.47 548.78,-67.84 558.89,-63.06"/>
<polygon fill="black" stroke="black" points="560.66,-66.08 568.06,-58.5 557.55,-59.82 560.66,-66.08"/>
</g>
<!-- 128626938475776&#45;&gt;128626938472704* -->
<g id="edge11" class="edge">
<title>128626938475776&#45;&gt;128626938472704*</title>
<path fill="none" stroke="black" d="M179.61,-65.93C196.28,-62.1 213.05,-58.25 227.07,-55.03"/>
<polygon fill="black" stroke="black" points="228.25,-58.35 237.21,-52.7 226.68,-51.53 228.25,-58.35"/>
</g>
<!-- 128626939182400 -->
<g id="node8" class="node">
<title>128626939182400</title>
<polygon fill="none" stroke="black" points="982,-60 982,-96 1177,-96 1177,-60 982,-60"/>
<text text-anchor="middle" x="992.5" y="-74.3" font-family="Times,serif" font-size="14.00"> </text>
<polyline fill="none" stroke="black" points="1003,-60 1003,-96 "/>
<text text-anchor="middle" x="1036" y="-74.3" font-family="Times,serif" font-size="14.00">5.0000</text>
<polyline fill="none" stroke="black" points="1069,-60 1069,-96 "/>
<text text-anchor="middle" x="1123" y="-74.3" font-family="Times,serif" font-size="14.00">grad: 0.0000</text>
</g>
<!-- 128626939182400&#45;&gt;128626939177360/ -->
<g id="edge8" class="edge">
<title>128626939182400&#45;&gt;128626939177360/</title>
<path fill="none" stroke="black" d="M1177.37,-61.31C1188.14,-59.45 1198.52,-57.66 1207.73,-56.08"/>
<polygon fill="black" stroke="black" points="1208.33,-59.53 1217.59,-54.38 1207.14,-52.63 1208.33,-59.53"/>
</g>
<!-- 128626938464640 -->
<g id="node9" class="node">
<title>128626938464640</title>
<polygon fill="none" stroke="black" points="0,-1 0,-37 200,-37 200,-1 0,-1"/>
<text text-anchor="middle" x="10.5" y="-15.3" font-family="Times,serif" font-size="14.00"> </text>
<polyline fill="none" stroke="black" points="21,-1 21,-37 "/>
<text text-anchor="middle" x="56.5" y="-15.3" font-family="Times,serif" font-size="14.00">&#45;3.0000</text>
<polyline fill="none" stroke="black" points="92,-1 92,-37 "/>
<text text-anchor="middle" x="146" y="-15.3" font-family="Times,serif" font-size="14.00">grad: 0.0000</text>
</g>
<!-- 128626938464640&#45;&gt;128626938466368+ -->
<g id="edge9" class="edge">
<title>128626938464640&#45;&gt;128626938466368+</title>
<path fill="none" stroke="black" d="M200.17,-10.17C264.26,-5.21 349.5,0 425,0 425,0 425,0 590,0 694.8,0 818.19,-12.12 877.95,-18.76"/>
<polygon fill="black" stroke="black" points="877.68,-22.26 888.01,-19.9 878.46,-15.3 877.68,-22.26"/>
</g>
<!-- 128626938464640&#45;&gt;128626938472704* -->
<g id="edge5" class="edge">
<title>128626938464640&#45;&gt;128626938472704*</title>
<path fill="none" stroke="black" d="M200.21,-36.25C209.57,-37.88 218.57,-39.45 226.67,-40.86"/>
<polygon fill="black" stroke="black" points="226.3,-44.34 236.76,-42.61 227.5,-37.45 226.3,-44.34"/>
</g>
<!-- 128626939177360 -->
<g id="node10" class="node">
<title>128626939177360</title>
<polygon fill="none" stroke="black" points="1307,-32 1307,-68 1507,-68 1507,-32 1307,-32"/>
<text text-anchor="middle" x="1317.5" y="-46.3" font-family="Times,serif" font-size="14.00"> </text>
<polyline fill="none" stroke="black" points="1328,-32 1328,-68 "/>
<text text-anchor="middle" x="1363.5" y="-46.3" font-family="Times,serif" font-size="14.00">&#45;1.4000</text>
<polyline fill="none" stroke="black" points="1399,-32 1399,-68 "/>
<text text-anchor="middle" x="1453" y="-46.3" font-family="Times,serif" font-size="14.00">grad: 0.0000</text>
</g>
<!-- 128626939177360/&#45;&gt;128626939177360 -->
<g id="edge4" class="edge">
<title>128626939177360/&#45;&gt;128626939177360</title>
<path fill="none" stroke="black" d="M1271.23,-50C1278.69,-50 1287.31,-50 1296.52,-50"/>
<polygon fill="black" stroke="black" points="1296.71,-53.5 1306.71,-50 1296.71,-46.5 1296.71,-53.5"/>
</g>
</g>
</svg>
