<?xml version="1.0" encoding="UTF-8" standalone="no"?>
<!DOCTYPE svg PUBLIC "-//W3C//DTD SVG 1.1//EN"
 "http://www.w3.org/Graphics/SVG/1.1/DTD/svg11.dtd">
<!-- Generated by graphviz version 2.43.0 (0)
 -->
<!-- Title: %3 Pages: 1 -->
<svg width="855pt" height="127pt"
 viewBox="0.00 0.00 855.00 127.00" xmlns="http://www.w3.org/2000/svg" xmlns:xlink="http://www.w3.org/1999/xlink">
<g id="graph0" class="graph" transform="scale(1 1) rotate(0) translate(4 123)">
<title>%3</title>
<polygon fill="white" stroke="transparent" points="-4,4 -4,-123 851,-123 851,4 -4,4"/>
<!-- 128626866342080 -->
<g id="node1" class="node">
<title>128626866342080</title>
<polygon fill="none" stroke="black" points="328.5,-82.5 328.5,-118.5 523.5,-118.5 523.5,-82.5 328.5,-82.5"/>
<text text-anchor="middle" x="339" y="-96.8" font-family="Times,serif" font-size="14.00"> </text>
<polyline fill="none" stroke="black" points="349.5,-82.5 349.5,-118.5 "/>
<text text-anchor="middle" x="382.5" y="-96.8" font-family="Times,serif" font-size="14.00">5.0000</text>
<polyline fill="none" stroke="black" points="415.5,-82.5 415.5,-118.5 "/>
<text text-anchor="middle" x="469.5" y="-96.8" font-family="Times,serif" font-size="14.00">grad: 0.0000</text>
</g>
<!-- 128626894909280+ -->
<g id="node6" class="node">
<title>128626894909280+</title>
<ellipse fill="none" stroke="black" cx="589" cy="-72.5" rx="27" ry="18"/>
<text text-anchor="middle" x="589" y="-68.8" font-family="Times,serif" font-size="14.00">+</text>
</g>
<!-- 128626866342080&#45;&gt;128626894909280+ -->
<g id="edge6" class="edge">
<title>128626866342080&#45;&gt;128626894909280+</title>
<path fill="none" stroke="black" d="M523.91,-83.65C534.04,-81.88 543.81,-80.19 552.54,-78.67"/>
<polygon fill="black" stroke="black" points="553.37,-82.08 562.62,-76.91 552.17,-75.18 553.37,-82.08"/>
</g>
<!-- 128626939519840 -->
<g id="node2" class="node">
<title>128626939519840</title>
<polygon fill="none" stroke="black" points="0.5,-55.5 0.5,-91.5 199.5,-91.5 199.5,-55.5 0.5,-55.5"/>
<text text-anchor="middle" x="13" y="-69.8" font-family="Times,serif" font-size="14.00">a</text>
<polyline fill="none" stroke="black" points="25.5,-55.5 25.5,-91.5 "/>
<text text-anchor="middle" x="58.5" y="-69.8" font-family="Times,serif" font-size="14.00">2.0000</text>
<polyline fill="none" stroke="black" points="91.5,-55.5 91.5,-91.5 "/>
<text text-anchor="middle" x="145.5" y="-69.8" font-family="Times,serif" font-size="14.00">grad: 1.0000</text>
</g>
<!-- 128626894910816* -->
<g id="node4" class="node">
<title>128626894910816*</title>
<ellipse fill="none" stroke="black" cx="263" cy="-45.5" rx="27" ry="18"/>
<text text-anchor="middle" x="263" y="-41.8" font-family="Times,serif" font-size="14.00">*</text>
</g>
<!-- 128626939519840&#45;&gt;128626894910816* -->
<g id="edge5" class="edge">
<title>128626939519840&#45;&gt;128626894910816*</title>
<path fill="none" stroke="black" d="M199.75,-56.33C209.27,-54.67 218.43,-53.08 226.66,-51.65"/>
<polygon fill="black" stroke="black" points="227.29,-55.09 236.54,-49.93 226.09,-48.19 227.29,-55.09"/>
</g>
<!-- 128626894910816 -->
<g id="node3" class="node">
<title>128626894910816</title>
<polygon fill="none" stroke="black" points="326,-27.5 326,-63.5 526,-63.5 526,-27.5 326,-27.5"/>
<text text-anchor="middle" x="336.5" y="-41.8" font-family="Times,serif" font-size="14.00"> </text>
<polyline fill="none" stroke="black" points="347,-27.5 347,-63.5 "/>
<text text-anchor="middle" x="382.5" y="-41.8" font-family="Times,serif" font-size="14.00">&#45;2.0000</text>
<polyline fill="none" stroke="black" points="418,-27.5 418,-63.5 "/>
<text text-anchor="middle" x="472" y="-41.8" font-family="Times,serif" font-size="14.00">grad: 0.0000</text>
</g>
<!-- 128626894910816&#45;&gt;128626894909280+ -->
<g id="edge4" class="edge">
<title>128626894910816&#45;&gt;128626894909280+</title>
<path fill="none" stroke="black" d="M526.21,-62.14C535.57,-63.71 544.57,-65.22 552.67,-66.58"/>
<polygon fill="black" stroke="black" points="552.31,-70.06 562.76,-68.27 553.47,-63.16 552.31,-70.06"/>
</g>
<!-- 128626894910816*&#45;&gt;128626894910816 -->
<g id="edge1" class="edge">
<title>128626894910816*&#45;&gt;128626894910816</title>
<path fill="none" stroke="black" d="M290.23,-45.5C297.69,-45.5 306.31,-45.5 315.52,-45.5"/>
<polygon fill="black" stroke="black" points="315.71,-49 325.71,-45.5 315.71,-42 315.71,-49"/>
</g>
<!-- 128626894909280 -->
<g id="node5" class="node">
<title>128626894909280</title>
<polygon fill="none" stroke="black" points="652,-54.5 652,-90.5 847,-90.5 847,-54.5 652,-54.5"/>
<text text-anchor="middle" x="662.5" y="-68.8" font-family="Times,serif" font-size="14.00"> </text>
<polyline fill="none" stroke="black" points="673,-54.5 673,-90.5 "/>
<text text-anchor="middle" x="706" y="-68.8" font-family="Times,serif" font-size="14.00">3.0000</text>
<polyline fill="none" stroke="black" points="739,-54.5 739,-90.5 "/>
<text text-anchor="middle" x="793" y="-68.8" font-family="Times,serif" font-size="14.00">grad: 0.0000</text>
</g>
<!-- 128626894909280+&#45;&gt;128626894909280 -->
<g id="edge2" class="edge">
<title>128626894909280+&#45;&gt;128626894909280</title>
<path fill="none" stroke="black" d="M616.17,-72.5C623.66,-72.5 632.32,-72.5 641.56,-72.5"/>
<polygon fill="black" stroke="black" points="641.78,-76 651.78,-72.5 641.78,-69 641.78,-76"/>
</g>
<!-- 128626894912400 -->
<g id="node7" class="node">
<title>128626894912400</title>
<polygon fill="none" stroke="black" points="0,-0.5 0,-36.5 200,-36.5 200,-0.5 0,-0.5"/>
<text text-anchor="middle" x="10.5" y="-14.8" font-family="Times,serif" font-size="14.00"> </text>
<polyline fill="none" stroke="black" points="21,-0.5 21,-36.5 "/>
<text text-anchor="middle" x="56.5" y="-14.8" font-family="Times,serif" font-size="14.00">&#45;1.0000</text>
<polyline fill="none" stroke="black" points="92,-0.5 92,-36.5 "/>
<text text-anchor="middle" x="146" y="-14.8" font-family="Times,serif" font-size="14.00">grad: 0.0000</text>
</g>
<!-- 128626894912400&#45;&gt;128626894910816* -->
<g id="edge3" class="edge">
<title>128626894912400&#45;&gt;128626894910816*</title>
<path fill="none" stroke="black" d="M200.21,-35.14C209.57,-36.71 218.57,-38.22 226.67,-39.58"/>
<polygon fill="black" stroke="black" points="226.31,-43.06 236.76,-41.27 227.47,-36.16 226.31,-43.06"/>
</g>
</g>
</svg>
