<?xml version="1.0" encoding="UTF-8" standalone="no"?>
<!DOCTYPE svg PUBLIC "-//W3C//DTD SVG 1.1//EN"
 "http://www.w3.org/Graphics/SVG/1.1/DTD/svg11.dtd">
<!-- Generated by graphviz version 2.43.0 (0)
 -->
<!-- Title: %3 Pages: 1 -->
<svg width="2568pt" height="320pt"
 viewBox="0.00 0.00 2567.69 320.00" xmlns="http://www.w3.org/2000/svg" xmlns:xlink="http://www.w3.org/1999/xlink">
<g id="graph0" class="graph" transform="scale(1 1) rotate(0) translate(4 316)">
<title>%3</title>
<polygon fill="white" stroke="transparent" points="-4,4 -4,-316 2563.69,-316 2563.69,4 -4,4"/>
<!-- 128626733916304 -->
<g id="node1" class="node">
<title>128626733916304</title>
<polygon fill="none" stroke="black" points="343,-275.5 343,-311.5 560,-311.5 560,-275.5 343,-275.5"/>
<text text-anchor="middle" x="362" y="-289.8" font-family="Times,serif" font-size="14.00">w2</text>
<polyline fill="none" stroke="black" points="381,-275.5 381,-311.5 "/>
<text text-anchor="middle" x="416.5" y="-289.8" font-family="Times,serif" font-size="14.00">&#45;0.3608</text>
<polyline fill="none" stroke="black" points="452,-275.5 452,-311.5 "/>
<text text-anchor="middle" x="506" y="-289.8" font-family="Times,serif" font-size="14.00">grad: 0.0000</text>
</g>
<!-- 128626733909776* -->
<g id="node28" class="node">
<title>128626733909776*</title>
<ellipse fill="none" stroke="black" cx="623" cy="-238.5" rx="27" ry="18"/>
<text text-anchor="middle" x="623" y="-234.8" font-family="Times,serif" font-size="14.00">*</text>
</g>
<!-- 128626733916304&#45;&gt;128626733909776* -->
<g id="edge25" class="edge">
<title>128626733916304&#45;&gt;128626733909776*</title>
<path fill="none" stroke="black" d="M531.07,-275.5C540.89,-272.74 550.73,-269.73 560,-266.5 570.57,-262.82 581.8,-258.03 591.76,-253.45"/>
<polygon fill="black" stroke="black" points="593.3,-256.6 600.86,-249.18 590.32,-250.26 593.3,-256.6"/>
</g>
<!-- 128626733916352 -->
<g id="node2" class="node">
<title>128626733916352</title>
<polygon fill="none" stroke="black" points="351.5,-165.5 351.5,-201.5 551.5,-201.5 551.5,-165.5 351.5,-165.5"/>
<text text-anchor="middle" x="362" y="-179.8" font-family="Times,serif" font-size="14.00"> </text>
<polyline fill="none" stroke="black" points="372.5,-165.5 372.5,-201.5 "/>
<text text-anchor="middle" x="408" y="-179.8" font-family="Times,serif" font-size="14.00">&#45;0.4075</text>
<polyline fill="none" stroke="black" points="443.5,-165.5 443.5,-201.5 "/>
<text text-anchor="middle" x="497.5" y="-179.8" font-family="Times,serif" font-size="14.00">grad: 0.0000</text>
</g>
<!-- 128626733924272+ -->
<g id="node30" class="node">
<title>128626733924272+</title>
<ellipse fill="none" stroke="black" cx="623" cy="-183.5" rx="27" ry="18"/>
<text text-anchor="middle" x="623" y="-179.8" font-family="Times,serif" font-size="14.00">+</text>
</g>
<!-- 128626733916352&#45;&gt;128626733924272+ -->
<g id="edge17" class="edge">
<title>128626733916352&#45;&gt;128626733924272+</title>
<path fill="none" stroke="black" d="M551.59,-183.5C563.74,-183.5 575.49,-183.5 585.79,-183.5"/>
<polygon fill="black" stroke="black" points="585.96,-187 595.96,-183.5 585.96,-180 585.96,-187"/>
</g>
<!-- 128626733916352* -->
<g id="node3" class="node">
<title>128626733916352*</title>
<ellipse fill="none" stroke="black" cx="280" cy="-183.5" rx="27" ry="18"/>
<text text-anchor="middle" x="280" y="-179.8" font-family="Times,serif" font-size="14.00">*</text>
</g>
<!-- 128626733916352*&#45;&gt;128626733916352 -->
<g id="edge1" class="edge">
<title>128626733916352*&#45;&gt;128626733916352</title>
<path fill="none" stroke="black" d="M307.11,-183.5C316.86,-183.5 328.63,-183.5 341.2,-183.5"/>
<polygon fill="black" stroke="black" points="341.42,-187 351.42,-183.5 341.42,-180 341.42,-187"/>
</g>
<!-- 128626719742176 -->
<g id="node4" class="node">
<title>128626719742176</title>
<polygon fill="none" stroke="black" points="1367,-55.5 1367,-91.5 1567,-91.5 1567,-55.5 1367,-55.5"/>
<text text-anchor="middle" x="1377.5" y="-69.8" font-family="Times,serif" font-size="14.00"> </text>
<polyline fill="none" stroke="black" points="1388,-55.5 1388,-91.5 "/>
<text text-anchor="middle" x="1423.5" y="-69.8" font-family="Times,serif" font-size="14.00">&#45;0.0537</text>
<polyline fill="none" stroke="black" points="1459,-55.5 1459,-91.5 "/>
<text text-anchor="middle" x="1513" y="-69.8" font-family="Times,serif" font-size="14.00">grad: 0.0000</text>
</g>
<!-- 128626719745584+ -->
<g id="node24" class="node">
<title>128626719745584+</title>
<ellipse fill="none" stroke="black" cx="1630" cy="-100.5" rx="27" ry="18"/>
<text text-anchor="middle" x="1630" y="-96.8" font-family="Times,serif" font-size="14.00">+</text>
</g>
<!-- 128626719742176&#45;&gt;128626719745584+ -->
<g id="edge29" class="edge">
<title>128626719742176&#45;&gt;128626719745584+</title>
<path fill="none" stroke="black" d="M1567.21,-90.14C1576.57,-91.71 1585.57,-93.22 1593.67,-94.58"/>
<polygon fill="black" stroke="black" points="1593.31,-98.06 1603.76,-96.27 1594.47,-91.16 1593.31,-98.06"/>
</g>
<!-- 128626719742176* -->
<g id="node5" class="node">
<title>128626719742176*</title>
<ellipse fill="none" stroke="black" cx="1304" cy="-73.5" rx="27" ry="18"/>
<text text-anchor="middle" x="1304" y="-69.8" font-family="Times,serif" font-size="14.00">*</text>
</g>
<!-- 128626719742176*&#45;&gt;128626719742176 -->
<g id="edge2" class="edge">
<title>128626719742176*&#45;&gt;128626719742176</title>
<path fill="none" stroke="black" d="M1331.23,-73.5C1338.69,-73.5 1347.31,-73.5 1356.52,-73.5"/>
<polygon fill="black" stroke="black" points="1356.71,-77 1366.71,-73.5 1356.71,-70 1356.71,-77"/>
</g>
<!-- 128626733918512 -->
<g id="node6" class="node">
<title>128626733918512</title>
<polygon fill="none" stroke="black" points="1693,-27.5 1693,-63.5 1898,-63.5 1898,-27.5 1693,-27.5"/>
<text text-anchor="middle" x="1706" y="-41.8" font-family="Times,serif" font-size="14.00">b</text>
<polyline fill="none" stroke="black" points="1719,-27.5 1719,-63.5 "/>
<text text-anchor="middle" x="1754.5" y="-41.8" font-family="Times,serif" font-size="14.00">&#45;0.0959</text>
<polyline fill="none" stroke="black" points="1790,-27.5 1790,-63.5 "/>
<text text-anchor="middle" x="1844" y="-41.8" font-family="Times,serif" font-size="14.00">grad: 0.0000</text>
</g>
<!-- 128626719737520+ -->
<g id="node26" class="node">
<title>128626719737520+</title>
<ellipse fill="none" stroke="black" cx="1961" cy="-72.5" rx="27" ry="18"/>
<text text-anchor="middle" x="1961" y="-68.8" font-family="Times,serif" font-size="14.00">+</text>
</g>
<!-- 128626733918512&#45;&gt;128626719737520+ -->
<g id="edge20" class="edge">
<title>128626733918512&#45;&gt;128626719737520+</title>
<path fill="none" stroke="black" d="M1898.19,-62.29C1907.49,-63.83 1916.42,-65.3 1924.47,-66.63"/>
<polygon fill="black" stroke="black" points="1924.05,-70.11 1934.49,-68.29 1925.19,-63.2 1924.05,-70.11"/>
</g>
<!-- 128626733912464 -->
<g id="node7" class="node">
<title>128626733912464</title>
<polygon fill="none" stroke="black" points="686,-110.5 686,-146.5 903,-146.5 903,-110.5 686,-110.5"/>
<text text-anchor="middle" x="705" y="-124.8" font-family="Times,serif" font-size="14.00">w3</text>
<polyline fill="none" stroke="black" points="724,-110.5 724,-146.5 "/>
<text text-anchor="middle" x="759.5" y="-124.8" font-family="Times,serif" font-size="14.00">&#45;0.6207</text>
<polyline fill="none" stroke="black" points="795,-110.5 795,-146.5 "/>
<text text-anchor="middle" x="849" y="-124.8" font-family="Times,serif" font-size="14.00">grad: 0.0000</text>
</g>
<!-- 128626719743040* -->
<g id="node14" class="node">
<title>128626719743040*</title>
<ellipse fill="none" stroke="black" cx="966" cy="-128.5" rx="27" ry="18"/>
<text text-anchor="middle" x="966" y="-124.8" font-family="Times,serif" font-size="14.00">*</text>
</g>
<!-- 128626733912464&#45;&gt;128626719743040* -->
<g id="edge13" class="edge">
<title>128626733912464&#45;&gt;128626719743040*</title>
<path fill="none" stroke="black" d="M903.33,-128.5C912.3,-128.5 920.91,-128.5 928.69,-128.5"/>
<polygon fill="black" stroke="black" points="928.75,-132 938.75,-128.5 928.75,-125 928.75,-132"/>
</g>
<!-- 128626733914576 -->
<g id="node8" class="node">
<title>128626733914576</title>
<polygon fill="none" stroke="black" points="11,-193.5 11,-229.5 206,-229.5 206,-193.5 11,-193.5"/>
<text text-anchor="middle" x="21.5" y="-207.8" font-family="Times,serif" font-size="14.00"> </text>
<polyline fill="none" stroke="black" points="32,-193.5 32,-229.5 "/>
<text text-anchor="middle" x="65" y="-207.8" font-family="Times,serif" font-size="14.00">0.5618</text>
<polyline fill="none" stroke="black" points="98,-193.5 98,-229.5 "/>
<text text-anchor="middle" x="152" y="-207.8" font-family="Times,serif" font-size="14.00">grad: 0.0000</text>
</g>
<!-- 128626733914576&#45;&gt;128626733916352* -->
<g id="edge28" class="edge">
<title>128626733914576&#45;&gt;128626733916352*</title>
<path fill="none" stroke="black" d="M206.13,-195.54C219.43,-193.34 232.33,-191.21 243.48,-189.37"/>
<polygon fill="black" stroke="black" points="244.31,-192.78 253.6,-187.7 243.16,-185.87 244.31,-192.78"/>
</g>
<!-- 128626733908672 -->
<g id="node9" class="node">
<title>128626733908672</title>
<polygon fill="none" stroke="black" points="0,-138.5 0,-174.5 217,-174.5 217,-138.5 0,-138.5"/>
<text text-anchor="middle" x="19" y="-152.8" font-family="Times,serif" font-size="14.00">w1</text>
<polyline fill="none" stroke="black" points="38,-138.5 38,-174.5 "/>
<text text-anchor="middle" x="73.5" y="-152.8" font-family="Times,serif" font-size="14.00">&#45;0.7253</text>
<polyline fill="none" stroke="black" points="109,-138.5 109,-174.5 "/>
<text text-anchor="middle" x="163" y="-152.8" font-family="Times,serif" font-size="14.00">grad: 0.0000</text>
</g>
<!-- 128626733908672&#45;&gt;128626733916352* -->
<g id="edge21" class="edge">
<title>128626733908672&#45;&gt;128626733916352*</title>
<path fill="none" stroke="black" d="M217.33,-173.68C226.68,-175.17 235.63,-176.59 243.66,-177.87"/>
<polygon fill="black" stroke="black" points="243.23,-181.35 253.66,-179.46 244.33,-174.43 243.23,-181.35"/>
</g>
<!-- 128626719744912 -->
<g id="node10" class="node">
<title>128626719744912</title>
<polygon fill="none" stroke="black" points="1035,-55.5 1035,-91.5 1235,-91.5 1235,-55.5 1035,-55.5"/>
<text text-anchor="middle" x="1045.5" y="-69.8" font-family="Times,serif" font-size="14.00"> </text>
<polyline fill="none" stroke="black" points="1056,-55.5 1056,-91.5 "/>
<text text-anchor="middle" x="1091.5" y="-69.8" font-family="Times,serif" font-size="14.00">&#45;0.2456</text>
<polyline fill="none" stroke="black" points="1127,-55.5 1127,-91.5 "/>
<text text-anchor="middle" x="1181" y="-69.8" font-family="Times,serif" font-size="14.00">grad: 0.0000</text>
</g>
<!-- 128626719744912&#45;&gt;128626719742176* -->
<g id="edge11" class="edge">
<title>128626719744912&#45;&gt;128626719742176*</title>
<path fill="none" stroke="black" d="M1235.07,-73.5C1246.3,-73.5 1257.14,-73.5 1266.74,-73.5"/>
<polygon fill="black" stroke="black" points="1267,-77 1277,-73.5 1267,-70 1267,-77"/>
</g>
<!-- 128626733923312 -->
<g id="node11" class="node">
<title>128626733923312</title>
<polygon fill="none" stroke="black" points="354,-220.5 354,-256.5 549,-256.5 549,-220.5 354,-220.5"/>
<text text-anchor="middle" x="364.5" y="-234.8" font-family="Times,serif" font-size="14.00"> </text>
<polyline fill="none" stroke="black" points="375,-220.5 375,-256.5 "/>
<text text-anchor="middle" x="408" y="-234.8" font-family="Times,serif" font-size="14.00">0.3657</text>
<polyline fill="none" stroke="black" points="441,-220.5 441,-256.5 "/>
<text text-anchor="middle" x="495" y="-234.8" font-family="Times,serif" font-size="14.00">grad: 0.0000</text>
</g>
<!-- 128626733923312&#45;&gt;128626733909776* -->
<g id="edge22" class="edge">
<title>128626733923312&#45;&gt;128626733909776*</title>
<path fill="none" stroke="black" d="M549.13,-238.5C562.2,-238.5 574.89,-238.5 585.91,-238.5"/>
<polygon fill="black" stroke="black" points="585.93,-242 595.93,-238.5 585.93,-235 585.93,-242"/>
</g>
<!-- 128626733909056 -->
<g id="node12" class="node">
<title>128626733909056</title>
<polygon fill="none" stroke="black" points="1029,-0.5 1029,-36.5 1241,-36.5 1241,-0.5 1029,-0.5"/>
<text text-anchor="middle" x="1048" y="-14.8" font-family="Times,serif" font-size="14.00">w4</text>
<polyline fill="none" stroke="black" points="1067,-0.5 1067,-36.5 "/>
<text text-anchor="middle" x="1100" y="-14.8" font-family="Times,serif" font-size="14.00">0.2187</text>
<polyline fill="none" stroke="black" points="1133,-0.5 1133,-36.5 "/>
<text text-anchor="middle" x="1187" y="-14.8" font-family="Times,serif" font-size="14.00">grad: 0.0000</text>
</g>
<!-- 128626733909056&#45;&gt;128626719742176* -->
<g id="edge26" class="edge">
<title>128626733909056&#45;&gt;128626719742176*</title>
<path fill="none" stroke="black" d="M1212.45,-36.51C1222.14,-39.27 1231.85,-42.29 1241,-45.5 1251.56,-49.21 1262.79,-54.01 1272.75,-58.58"/>
<polygon fill="black" stroke="black" points="1271.31,-61.77 1281.85,-62.85 1274.29,-55.43 1271.31,-61.77"/>
</g>
<!-- 128626719743040 -->
<g id="node13" class="node">
<title>128626719743040</title>
<polygon fill="none" stroke="black" points="1037.5,-110.5 1037.5,-146.5 1232.5,-146.5 1232.5,-110.5 1037.5,-110.5"/>
<text text-anchor="middle" x="1048" y="-124.8" font-family="Times,serif" font-size="14.00"> </text>
<polyline fill="none" stroke="black" points="1058.5,-110.5 1058.5,-146.5 "/>
<text text-anchor="middle" x="1091.5" y="-124.8" font-family="Times,serif" font-size="14.00">0.1224</text>
<polyline fill="none" stroke="black" points="1124.5,-110.5 1124.5,-146.5 "/>
<text text-anchor="middle" x="1178.5" y="-124.8" font-family="Times,serif" font-size="14.00">grad: 0.0000</text>
</g>
<!-- 128626719743328+ -->
<g id="node20" class="node">
<title>128626719743328+</title>
<ellipse fill="none" stroke="black" cx="1304" cy="-128.5" rx="27" ry="18"/>
<text text-anchor="middle" x="1304" y="-124.8" font-family="Times,serif" font-size="14.00">+</text>
</g>
<!-- 128626719743040&#45;&gt;128626719743328+ -->
<g id="edge23" class="edge">
<title>128626719743040&#45;&gt;128626719743328+</title>
<path fill="none" stroke="black" d="M1232.66,-128.5C1244.76,-128.5 1256.48,-128.5 1266.77,-128.5"/>
<polygon fill="black" stroke="black" points="1266.94,-132 1276.94,-128.5 1266.94,-125 1266.94,-132"/>
</g>
<!-- 128626719743040*&#45;&gt;128626719743040 -->
<g id="edge3" class="edge">
<title>128626719743040*&#45;&gt;128626719743040</title>
<path fill="none" stroke="black" d="M993.09,-128.5C1002.87,-128.5 1014.67,-128.5 1027.24,-128.5"/>
<polygon fill="black" stroke="black" points="1027.46,-132 1037.46,-128.5 1027.46,-125 1027.46,-132"/>
</g>
<!-- 128626733915200 -->
<g id="node15" class="node">
<title>128626733915200</title>
<polygon fill="none" stroke="black" points="354,-110.5 354,-146.5 549,-146.5 549,-110.5 354,-110.5"/>
<text text-anchor="middle" x="364.5" y="-124.8" font-family="Times,serif" font-size="14.00"> </text>
<polyline fill="none" stroke="black" points="375,-110.5 375,-146.5 "/>
<text text-anchor="middle" x="408" y="-124.8" font-family="Times,serif" font-size="14.00">0.0000</text>
<polyline fill="none" stroke="black" points="441,-110.5 441,-146.5 "/>
<text text-anchor="middle" x="495" y="-124.8" font-family="Times,serif" font-size="14.00">grad: 0.0000</text>
</g>
<!-- 128626733915200&#45;&gt;128626733924272+ -->
<g id="edge16" class="edge">
<title>128626733915200&#45;&gt;128626733924272+</title>
<path fill="none" stroke="black" d="M531.07,-146.5C540.89,-149.26 550.73,-152.27 560,-155.5 570.57,-159.18 581.8,-163.97 591.76,-168.55"/>
<polygon fill="black" stroke="black" points="590.32,-171.74 600.86,-172.82 593.3,-165.4 590.32,-171.74"/>
</g>
<!-- 128626719739152 -->
<g id="node16" class="node">
<title>128626719739152</title>
<polygon fill="none" stroke="black" points="694.5,-55.5 694.5,-91.5 894.5,-91.5 894.5,-55.5 694.5,-55.5"/>
<text text-anchor="middle" x="705" y="-69.8" font-family="Times,serif" font-size="14.00"> </text>
<polyline fill="none" stroke="black" points="715.5,-55.5 715.5,-91.5 "/>
<text text-anchor="middle" x="751" y="-69.8" font-family="Times,serif" font-size="14.00">&#45;0.1972</text>
<polyline fill="none" stroke="black" points="786.5,-55.5 786.5,-91.5 "/>
<text text-anchor="middle" x="840.5" y="-69.8" font-family="Times,serif" font-size="14.00">grad: 0.0000</text>
</g>
<!-- 128626719739152&#45;&gt;128626719743040* -->
<g id="edge27" class="edge">
<title>128626719739152&#45;&gt;128626719743040*</title>
<path fill="none" stroke="black" d="M874.07,-91.5C883.89,-94.26 893.73,-97.27 903,-100.5 913.57,-104.18 924.8,-108.97 934.76,-113.55"/>
<polygon fill="black" stroke="black" points="933.32,-116.74 943.86,-117.82 936.3,-110.4 933.32,-116.74"/>
</g>
<!-- 128626719751488 -->
<g id="node17" class="node">
<title>128626719751488</title>
<polygon fill="none" stroke="black" points="2359.69,-54.5 2359.69,-90.5 2559.69,-90.5 2559.69,-54.5 2359.69,-54.5"/>
<text text-anchor="middle" x="2370.19" y="-68.8" font-family="Times,serif" font-size="14.00"> </text>
<polyline fill="none" stroke="black" points="2380.69,-54.5 2380.69,-90.5 "/>
<text text-anchor="middle" x="2416.19" y="-68.8" font-family="Times,serif" font-size="14.00">&#45;0.5129</text>
<polyline fill="none" stroke="black" points="2451.69,-54.5 2451.69,-90.5 "/>
<text text-anchor="middle" x="2505.69" y="-68.8" font-family="Times,serif" font-size="14.00">grad: 0.0000</text>
</g>
<!-- 128626719751488tanh -->
<g id="node18" class="node">
<title>128626719751488tanh</title>
<ellipse fill="none" stroke="black" cx="2291.85" cy="-72.5" rx="31.7" ry="18"/>
<text text-anchor="middle" x="2291.85" y="-68.8" font-family="Times,serif" font-size="14.00">tanh</text>
</g>
<!-- 128626719751488tanh&#45;&gt;128626719751488 -->
<g id="edge4" class="edge">
<title>128626719751488tanh&#45;&gt;128626719751488</title>
<path fill="none" stroke="black" d="M2324.04,-72.5C2331.69,-72.5 2340.32,-72.5 2349.42,-72.5"/>
<polygon fill="black" stroke="black" points="2349.45,-76 2359.45,-72.5 2349.45,-69 2349.45,-76"/>
</g>
<!-- 128626719743328 -->
<g id="node19" class="node">
<title>128626719743328</title>
<polygon fill="none" stroke="black" points="1367,-110.5 1367,-146.5 1567,-146.5 1567,-110.5 1367,-110.5"/>
<text text-anchor="middle" x="1377.5" y="-124.8" font-family="Times,serif" font-size="14.00"> </text>
<polyline fill="none" stroke="black" points="1388,-110.5 1388,-146.5 "/>
<text text-anchor="middle" x="1423.5" y="-124.8" font-family="Times,serif" font-size="14.00">&#45;0.4170</text>
<polyline fill="none" stroke="black" points="1459,-110.5 1459,-146.5 "/>
<text text-anchor="middle" x="1513" y="-124.8" font-family="Times,serif" font-size="14.00">grad: 0.0000</text>
</g>
<!-- 128626719743328&#45;&gt;128626719745584+ -->
<g id="edge12" class="edge">
<title>128626719743328&#45;&gt;128626719745584+</title>
<path fill="none" stroke="black" d="M1567.21,-111.25C1576.57,-109.62 1585.57,-108.05 1593.67,-106.64"/>
<polygon fill="black" stroke="black" points="1594.5,-110.05 1603.76,-104.89 1593.3,-103.16 1594.5,-110.05"/>
</g>
<!-- 128626719743328+&#45;&gt;128626719743328 -->
<g id="edge5" class="edge">
<title>128626719743328+&#45;&gt;128626719743328</title>
<path fill="none" stroke="black" d="M1331.23,-128.5C1338.69,-128.5 1347.31,-128.5 1356.52,-128.5"/>
<polygon fill="black" stroke="black" points="1356.71,-132 1366.71,-128.5 1356.71,-125 1356.71,-132"/>
</g>
<!-- 128626733915584 -->
<g id="node21" class="node">
<title>128626733915584</title>
<polygon fill="none" stroke="black" points="1035,-165.5 1035,-201.5 1235,-201.5 1235,-165.5 1035,-165.5"/>
<text text-anchor="middle" x="1045.5" y="-179.8" font-family="Times,serif" font-size="14.00"> </text>
<polyline fill="none" stroke="black" points="1056,-165.5 1056,-201.5 "/>
<text text-anchor="middle" x="1091.5" y="-179.8" font-family="Times,serif" font-size="14.00">&#45;0.5394</text>
<polyline fill="none" stroke="black" points="1127,-165.5 1127,-201.5 "/>
<text text-anchor="middle" x="1181" y="-179.8" font-family="Times,serif" font-size="14.00">grad: 0.0000</text>
</g>
<!-- 128626733915584&#45;&gt;128626719743328+ -->
<g id="edge24" class="edge">
<title>128626733915584&#45;&gt;128626719743328+</title>
<path fill="none" stroke="black" d="M1209.3,-165.47C1220.01,-162.4 1230.85,-159.04 1241,-155.5 1251.31,-151.9 1262.31,-147.36 1272.14,-143.02"/>
<polygon fill="black" stroke="black" points="1273.83,-146.1 1281.51,-138.81 1270.96,-139.72 1273.83,-146.1"/>
</g>
<!-- 128626733915584+ -->
<g id="node22" class="node">
<title>128626733915584+</title>
<ellipse fill="none" stroke="black" cx="966" cy="-183.5" rx="27" ry="18"/>
<text text-anchor="middle" x="966" y="-179.8" font-family="Times,serif" font-size="14.00">+</text>
</g>
<!-- 128626733915584+&#45;&gt;128626733915584 -->
<g id="edge6" class="edge">
<title>128626733915584+&#45;&gt;128626733915584</title>
<path fill="none" stroke="black" d="M993.09,-183.5C1002.18,-183.5 1013.01,-183.5 1024.59,-183.5"/>
<polygon fill="black" stroke="black" points="1024.93,-187 1034.93,-183.5 1024.93,-180 1024.93,-187"/>
</g>
<!-- 128626719745584 -->
<g id="node23" class="node">
<title>128626719745584</title>
<polygon fill="none" stroke="black" points="1695.5,-82.5 1695.5,-118.5 1895.5,-118.5 1895.5,-82.5 1695.5,-82.5"/>
<text text-anchor="middle" x="1706" y="-96.8" font-family="Times,serif" font-size="14.00"> </text>
<polyline fill="none" stroke="black" points="1716.5,-82.5 1716.5,-118.5 "/>
<text text-anchor="middle" x="1752" y="-96.8" font-family="Times,serif" font-size="14.00">&#45;0.4708</text>
<polyline fill="none" stroke="black" points="1787.5,-82.5 1787.5,-118.5 "/>
<text text-anchor="middle" x="1841.5" y="-96.8" font-family="Times,serif" font-size="14.00">grad: 0.0000</text>
</g>
<!-- 128626719745584&#45;&gt;128626719737520+ -->
<g id="edge18" class="edge">
<title>128626719745584&#45;&gt;128626719737520+</title>
<path fill="none" stroke="black" d="M1895.85,-83.49C1906.02,-81.74 1915.81,-80.07 1924.55,-78.57"/>
<polygon fill="black" stroke="black" points="1925.38,-81.98 1934.65,-76.84 1924.2,-75.08 1925.38,-81.98"/>
</g>
<!-- 128626719745584+&#45;&gt;128626719745584 -->
<g id="edge7" class="edge">
<title>128626719745584+&#45;&gt;128626719745584</title>
<path fill="none" stroke="black" d="M1657.27,-100.5C1665.48,-100.5 1675.1,-100.5 1685.37,-100.5"/>
<polygon fill="black" stroke="black" points="1685.4,-104 1695.4,-100.5 1685.4,-97 1685.4,-104"/>
</g>
<!-- 128626719737520 -->
<g id="node25" class="node">
<title>128626719737520</title>
<polygon fill="none" stroke="black" points="2024,-54.5 2024,-90.5 2224,-90.5 2224,-54.5 2024,-54.5"/>
<text text-anchor="middle" x="2034.5" y="-68.8" font-family="Times,serif" font-size="14.00"> </text>
<polyline fill="none" stroke="black" points="2045,-54.5 2045,-90.5 "/>
<text text-anchor="middle" x="2080.5" y="-68.8" font-family="Times,serif" font-size="14.00">&#45;0.5667</text>
<polyline fill="none" stroke="black" points="2116,-54.5 2116,-90.5 "/>
<text text-anchor="middle" x="2170" y="-68.8" font-family="Times,serif" font-size="14.00">grad: 0.0000</text>
</g>
<!-- 128626719737520&#45;&gt;128626719751488tanh -->
<g id="edge14" class="edge">
<title>128626719737520&#45;&gt;128626719751488tanh</title>
<path fill="none" stroke="black" d="M2224.35,-72.5C2233.27,-72.5 2241.93,-72.5 2249.88,-72.5"/>
<polygon fill="black" stroke="black" points="2249.9,-76 2259.9,-72.5 2249.9,-69 2249.9,-76"/>
</g>
<!-- 128626719737520+&#45;&gt;128626719737520 -->
<g id="edge8" class="edge">
<title>128626719737520+&#45;&gt;128626719737520</title>
<path fill="none" stroke="black" d="M1988.23,-72.5C1995.69,-72.5 2004.31,-72.5 2013.52,-72.5"/>
<polygon fill="black" stroke="black" points="2013.71,-76 2023.71,-72.5 2013.71,-69 2013.71,-76"/>
</g>
<!-- 128626733909776 -->
<g id="node27" class="node">
<title>128626733909776</title>
<polygon fill="none" stroke="black" points="694.5,-220.5 694.5,-256.5 894.5,-256.5 894.5,-220.5 694.5,-220.5"/>
<text text-anchor="middle" x="705" y="-234.8" font-family="Times,serif" font-size="14.00"> </text>
<polyline fill="none" stroke="black" points="715.5,-220.5 715.5,-256.5 "/>
<text text-anchor="middle" x="751" y="-234.8" font-family="Times,serif" font-size="14.00">&#45;0.1319</text>
<polyline fill="none" stroke="black" points="786.5,-220.5 786.5,-256.5 "/>
<text text-anchor="middle" x="840.5" y="-234.8" font-family="Times,serif" font-size="14.00">grad: 0.0000</text>
</g>
<!-- 128626733909776&#45;&gt;128626733915584+ -->
<g id="edge15" class="edge">
<title>128626733909776&#45;&gt;128626733915584+</title>
<path fill="none" stroke="black" d="M870.84,-220.47C881.71,-217.41 892.7,-214.06 903,-210.5 913.32,-206.93 924.32,-202.39 934.15,-198.06"/>
<polygon fill="black" stroke="black" points="935.84,-201.14 943.52,-193.84 932.97,-194.76 935.84,-201.14"/>
</g>
<!-- 128626733909776*&#45;&gt;128626733909776 -->
<g id="edge9" class="edge">
<title>128626733909776*&#45;&gt;128626733909776</title>
<path fill="none" stroke="black" d="M650.11,-238.5C659.86,-238.5 671.63,-238.5 684.2,-238.5"/>
<polygon fill="black" stroke="black" points="684.42,-242 694.42,-238.5 684.42,-235 684.42,-242"/>
</g>
<!-- 128626733924272 -->
<g id="node29" class="node">
<title>128626733924272</title>
<polygon fill="none" stroke="black" points="694.5,-165.5 694.5,-201.5 894.5,-201.5 894.5,-165.5 694.5,-165.5"/>
<text text-anchor="middle" x="705" y="-179.8" font-family="Times,serif" font-size="14.00"> </text>
<polyline fill="none" stroke="black" points="715.5,-165.5 715.5,-201.5 "/>
<text text-anchor="middle" x="751" y="-179.8" font-family="Times,serif" font-size="14.00">&#45;0.4075</text>
<polyline fill="none" stroke="black" points="786.5,-165.5 786.5,-201.5 "/>
<text text-anchor="middle" x="840.5" y="-179.8" font-family="Times,serif" font-size="14.00">grad: 0.0000</text>
</g>
<!-- 128626733924272&#45;&gt;128626733915584+ -->
<g id="edge19" class="edge">
<title>128626733924272&#45;&gt;128626733915584+</title>
<path fill="none" stroke="black" d="M894.59,-183.5C906.74,-183.5 918.49,-183.5 928.79,-183.5"/>
<polygon fill="black" stroke="black" points="928.96,-187 938.96,-183.5 928.96,-180 928.96,-187"/>
</g>
<!-- 128626733924272+&#45;&gt;128626733924272 -->
<g id="edge10" class="edge">
<title>128626733924272+&#45;&gt;128626733924272</title>
<path fill="none" stroke="black" d="M650.11,-183.5C659.86,-183.5 671.63,-183.5 684.2,-183.5"/>
<polygon fill="black" stroke="black" points="684.42,-187 694.42,-183.5 684.42,-180 684.42,-187"/>
</g>
</g>
</svg>
