<?xml version="1.0" encoding="UTF-8" standalone="no"?>
<!DOCTYPE svg PUBLIC "-//W3C//DTD SVG 1.1//EN"
 "http://www.w3.org/Graphics/SVG/1.1/DTD/svg11.dtd">
<!-- Generated by graphviz version 2.43.0 (0)
 -->
<!-- Title: %3 Pages: 1 -->
<svg width="527pt" height="45pt"
 viewBox="0.00 0.00 527.00 45.00" xmlns="http://www.w3.org/2000/svg" xmlns:xlink="http://www.w3.org/1999/xlink">
<g id="graph0" class="graph" transform="scale(1 1) rotate(0) translate(4 41)">
<title>%3</title>
<polygon fill="white" stroke="transparent" points="-4,4 -4,-41 523,-41 523,4 -4,4"/>
<!-- 128626865360672 -->
<g id="node1" class="node">
<title>128626865360672</title>
<polygon fill="none" stroke="black" points="0,-0.5 0,-36.5 198,-36.5 198,-0.5 0,-0.5"/>
<text text-anchor="middle" x="12" y="-14.8" font-family="Times,serif" font-size="14.00">s</text>
<polyline fill="none" stroke="black" points="24,-0.5 24,-36.5 "/>
<text text-anchor="middle" x="57" y="-14.8" font-family="Times,serif" font-size="14.00">2.0000</text>
<polyline fill="none" stroke="black" points="90,-0.5 90,-36.5 "/>
<text text-anchor="middle" x="144" y="-14.8" font-family="Times,serif" font-size="14.00">grad: 8.0000</text>
</g>
<!-- 128626863903600** -->
<g id="node3" class="node">
<title>128626863903600**</title>
<ellipse fill="none" stroke="black" cx="261" cy="-18.5" rx="27" ry="18"/>
<text text-anchor="middle" x="261" y="-14.8" font-family="Times,serif" font-size="14.00">**</text>
</g>
<!-- 128626865360672&#45;&gt;128626863903600** -->
<g id="edge2" class="edge">
<title>128626865360672&#45;&gt;128626863903600**</title>
<path fill="none" stroke="black" d="M198.14,-18.5C207.12,-18.5 215.78,-18.5 223.64,-18.5"/>
<polygon fill="black" stroke="black" points="223.8,-22 233.8,-18.5 223.8,-15 223.8,-22"/>
</g>
<!-- 128626863903600 -->
<g id="node2" class="node">
<title>128626863903600</title>
<polygon fill="none" stroke="black" points="324,-0.5 324,-36.5 519,-36.5 519,-0.5 324,-0.5"/>
<text text-anchor="middle" x="334.5" y="-14.8" font-family="Times,serif" font-size="14.00"> </text>
<polyline fill="none" stroke="black" points="345,-0.5 345,-36.5 "/>
<text text-anchor="middle" x="378" y="-14.8" font-family="Times,serif" font-size="14.00">4.0000</text>
<polyline fill="none" stroke="black" points="411,-0.5 411,-36.5 "/>
<text text-anchor="middle" x="465" y="-14.8" font-family="Times,serif" font-size="14.00">grad: 1.0000</text>
</g>
<!-- 128626863903600**&#45;&gt;128626863903600 -->
<g id="edge1" class="edge">
<title>128626863903600**&#45;&gt;128626863903600</title>
<path fill="none" stroke="black" d="M288.17,-18.5C295.66,-18.5 304.32,-18.5 313.56,-18.5"/>
<polygon fill="black" stroke="black" points="313.78,-22 323.78,-18.5 313.78,-15 313.78,-22"/>
</g>
</g>
</svg>
