<?xml version="1.0" encoding="UTF-8" standalone="no"?>
<!DOCTYPE svg PUBLIC "-//W3C//DTD SVG 1.1//EN"
 "http://www.w3.org/Graphics/SVG/1.1/DTD/svg11.dtd">
<!-- Generated by graphviz version 2.43.0 (0)
 -->
<!-- Title: %3 Pages: 1 -->
<svg width="1211pt" height="127pt"
 viewBox="0.00 0.00 1211.00 127.00" xmlns="http://www.w3.org/2000/svg" xmlns:xlink="http://www.w3.org/1999/xlink">
<g id="graph0" class="graph" transform="scale(1 1) rotate(0) translate(4 123)">
<title>%3</title>
<polygon fill="white" stroke="transparent" points="-4,4 -4,-123 1207,-123 1207,4 -4,4"/>
<!-- 128626861049856 -->
<g id="node1" class="node">
<title>128626861049856</title>
<polygon fill="none" stroke="black" points="341,-27.5 341,-63.5 546,-63.5 546,-27.5 341,-27.5"/>
<text text-anchor="middle" x="354" y="-41.8" font-family="Times,serif" font-size="14.00">d</text>
<polyline fill="none" stroke="black" points="367,-27.5 367,-63.5 "/>
<text text-anchor="middle" x="402.5" y="-41.8" font-family="Times,serif" font-size="14.00">&#45;6.0000</text>
<polyline fill="none" stroke="black" points="438,-27.5 438,-63.5 "/>
<text text-anchor="middle" x="492" y="-41.8" font-family="Times,serif" font-size="14.00">grad: 8.0000</text>
</g>
<!-- 128626861052448+ -->
<g id="node5" class="node">
<title>128626861052448+</title>
<ellipse fill="none" stroke="black" cx="610" cy="-72.5" rx="27" ry="18"/>
<text text-anchor="middle" x="610" y="-68.8" font-family="Times,serif" font-size="14.00">+</text>
</g>
<!-- 128626861049856&#45;&gt;128626861052448+ -->
<g id="edge5" class="edge">
<title>128626861049856&#45;&gt;128626861052448+</title>
<path fill="none" stroke="black" d="M546.34,-62.22C556.05,-63.81 565.36,-65.34 573.71,-66.71"/>
<polygon fill="black" stroke="black" points="573.29,-70.19 583.72,-68.35 574.42,-63.28 573.29,-70.19"/>
</g>
<!-- 128626861049856* -->
<g id="node2" class="node">
<title>128626861049856*</title>
<ellipse fill="none" stroke="black" cx="277" cy="-45.5" rx="27" ry="18"/>
<text text-anchor="middle" x="277" y="-41.8" font-family="Times,serif" font-size="14.00">*</text>
</g>
<!-- 128626861049856*&#45;&gt;128626861049856 -->
<g id="edge1" class="edge">
<title>128626861049856*&#45;&gt;128626861049856</title>
<path fill="none" stroke="black" d="M304.07,-45.5C311.8,-45.5 320.8,-45.5 330.43,-45.5"/>
<polygon fill="black" stroke="black" points="330.67,-49 340.67,-45.5 330.67,-42 330.67,-49"/>
</g>
<!-- 128626938493456 -->
<g id="node3" class="node">
<title>128626938493456</title>
<polygon fill="none" stroke="black" points="340,-82.5 340,-118.5 547,-118.5 547,-82.5 340,-82.5"/>
<text text-anchor="middle" x="352" y="-96.8" font-family="Times,serif" font-size="14.00">c</text>
<polyline fill="none" stroke="black" points="364,-82.5 364,-118.5 "/>
<text text-anchor="middle" x="401.5" y="-96.8" font-family="Times,serif" font-size="14.00">10.0000</text>
<polyline fill="none" stroke="black" points="439,-82.5 439,-118.5 "/>
<text text-anchor="middle" x="493" y="-96.8" font-family="Times,serif" font-size="14.00">grad: 8.0000</text>
</g>
<!-- 128626938493456&#45;&gt;128626861052448+ -->
<g id="edge6" class="edge">
<title>128626938493456&#45;&gt;128626861052448+</title>
<path fill="none" stroke="black" d="M547.28,-83.01C556.58,-81.42 565.51,-79.9 573.54,-78.54"/>
<polygon fill="black" stroke="black" points="574.28,-81.96 583.55,-76.83 573.1,-75.06 574.28,-81.96"/>
</g>
<!-- 128626861052448 -->
<g id="node4" class="node">
<title>128626861052448</title>
<polygon fill="none" stroke="black" points="673,-54.5 673,-90.5 872,-90.5 872,-54.5 673,-54.5"/>
<text text-anchor="middle" x="685.5" y="-68.8" font-family="Times,serif" font-size="14.00">e</text>
<polyline fill="none" stroke="black" points="698,-54.5 698,-90.5 "/>
<text text-anchor="middle" x="731" y="-68.8" font-family="Times,serif" font-size="14.00">4.0000</text>
<polyline fill="none" stroke="black" points="764,-54.5 764,-90.5 "/>
<text text-anchor="middle" x="818" y="-68.8" font-family="Times,serif" font-size="14.00">grad: 8.0000</text>
</g>
<!-- 128626861050048* -->
<g id="node8" class="node">
<title>128626861050048*</title>
<ellipse fill="none" stroke="black" cx="935" cy="-72.5" rx="27" ry="18"/>
<text text-anchor="middle" x="935" y="-68.8" font-family="Times,serif" font-size="14.00">*</text>
</g>
<!-- 128626861052448&#45;&gt;128626861050048* -->
<g id="edge4" class="edge">
<title>128626861052448&#45;&gt;128626861050048*</title>
<path fill="none" stroke="black" d="M872.41,-72.5C881.36,-72.5 889.99,-72.5 897.82,-72.5"/>
<polygon fill="black" stroke="black" points="897.93,-76 907.93,-72.5 897.93,-69 897.93,-76"/>
</g>
<!-- 128626861052448+&#45;&gt;128626861052448 -->
<g id="edge2" class="edge">
<title>128626861052448+&#45;&gt;128626861052448</title>
<path fill="none" stroke="black" d="M637.14,-72.5C644.65,-72.5 653.33,-72.5 662.6,-72.5"/>
<polygon fill="black" stroke="black" points="662.86,-76 672.86,-72.5 662.86,-69 662.86,-76"/>
</g>
<!-- 128626896124528 -->
<g id="node6" class="node">
<title>128626896124528</title>
<polygon fill="none" stroke="black" points="0,-55.5 0,-91.5 214,-91.5 214,-55.5 0,-55.5"/>
<text text-anchor="middle" x="13" y="-69.8" font-family="Times,serif" font-size="14.00">b</text>
<polyline fill="none" stroke="black" points="26,-55.5 26,-91.5 "/>
<text text-anchor="middle" x="61.5" y="-69.8" font-family="Times,serif" font-size="14.00">&#45;3.0000</text>
<polyline fill="none" stroke="black" points="97,-55.5 97,-91.5 "/>
<text text-anchor="middle" x="155.5" y="-69.8" font-family="Times,serif" font-size="14.00">grad: 16.0000</text>
</g>
<!-- 128626896124528&#45;&gt;128626861049856* -->
<g id="edge7" class="edge">
<title>128626896124528&#45;&gt;128626861049856*</title>
<path fill="none" stroke="black" d="M214.4,-55.77C223.72,-54.21 232.65,-52.72 240.68,-51.39"/>
<polygon fill="black" stroke="black" points="241.38,-54.82 250.66,-49.72 240.22,-47.91 241.38,-54.82"/>
</g>
<!-- 128626861050048 -->
<g id="node7" class="node">
<title>128626861050048</title>
<polygon fill="none" stroke="black" points="998,-54.5 998,-90.5 1203,-90.5 1203,-54.5 998,-54.5"/>
<text text-anchor="middle" x="1009" y="-68.8" font-family="Times,serif" font-size="14.00">f</text>
<polyline fill="none" stroke="black" points="1020,-54.5 1020,-90.5 "/>
<text text-anchor="middle" x="1057.5" y="-68.8" font-family="Times,serif" font-size="14.00">16.0000</text>
<polyline fill="none" stroke="black" points="1095,-54.5 1095,-90.5 "/>
<text text-anchor="middle" x="1149" y="-68.8" font-family="Times,serif" font-size="14.00">grad: 1.0000</text>
</g>
<!-- 128626861050048*&#45;&gt;128626861050048 -->
<g id="edge3" class="edge">
<title>128626861050048*&#45;&gt;128626861050048</title>
<path fill="none" stroke="black" d="M962.27,-72.5C969.76,-72.5 978.43,-72.5 987.69,-72.5"/>
<polygon fill="black" stroke="black" points="987.96,-76 997.96,-72.5 987.96,-69 987.96,-76"/>
</g>
<!-- 128626863924496 -->
<g id="node9" class="node">
<title>128626863924496</title>
<polygon fill="none" stroke="black" points="0.5,-0.5 0.5,-36.5 213.5,-36.5 213.5,-0.5 0.5,-0.5"/>
<text text-anchor="middle" x="13" y="-14.8" font-family="Times,serif" font-size="14.00">a</text>
<polyline fill="none" stroke="black" points="25.5,-0.5 25.5,-36.5 "/>
<text text-anchor="middle" x="58.5" y="-14.8" font-family="Times,serif" font-size="14.00">2.0000</text>
<polyline fill="none" stroke="black" points="91.5,-0.5 91.5,-36.5 "/>
<text text-anchor="middle" x="152.5" y="-14.8" font-family="Times,serif" font-size="14.00">grad: &#45;24.0000</text>
</g>
<!-- 128626863924496&#45;&gt;128626861049856* -->
<g id="edge8" class="edge">
<title>128626863924496&#45;&gt;128626861049856*</title>
<path fill="none" stroke="black" d="M213.92,-35.52C223.31,-37.03 232.3,-38.48 240.38,-39.78"/>
<polygon fill="black" stroke="black" points="240.02,-43.26 250.45,-41.39 241.13,-36.35 240.02,-43.26"/>
</g>
</g>
</svg>
