<?xml version="1.0" encoding="UTF-8" standalone="no"?>
<!DOCTYPE svg PUBLIC "-//W3C//DTD SVG 1.1//EN"
 "http://www.w3.org/Graphics/SVG/1.1/DTD/svg11.dtd">
<!-- Generated by graphviz version 2.43.0 (0)
 -->
<!-- Title: %3 Pages: 1 -->
<svg width="528pt" height="100pt"
 viewBox="0.00 0.00 528.00 100.00" xmlns="http://www.w3.org/2000/svg" xmlns:xlink="http://www.w3.org/1999/xlink">
<g id="graph0" class="graph" transform="scale(1 1) rotate(0) translate(4 96)">
<title>%3</title>
<polygon fill="white" stroke="transparent" points="-4,4 -4,-96 524,-96 524,4 -4,4"/>
<!-- 128626939174528 -->
<g id="node1" class="node">
<title>128626939174528</title>
<polygon fill="none" stroke="black" points="0,-55.5 0,-91.5 199,-91.5 199,-55.5 0,-55.5"/>
<text text-anchor="middle" x="12.5" y="-69.8" font-family="Times,serif" font-size="14.00">a</text>
<polyline fill="none" stroke="black" points="25,-55.5 25,-91.5 "/>
<text text-anchor="middle" x="58" y="-69.8" font-family="Times,serif" font-size="14.00">2.0000</text>
<polyline fill="none" stroke="black" points="91,-55.5 91,-91.5 "/>
<text text-anchor="middle" x="145" y="-69.8" font-family="Times,serif" font-size="14.00">grad: 0.0000</text>
</g>
<!-- 128626939513360+ -->
<g id="node3" class="node">
<title>128626939513360+</title>
<ellipse fill="none" stroke="black" cx="262" cy="-45.5" rx="27" ry="18"/>
<text text-anchor="middle" x="262" y="-41.8" font-family="Times,serif" font-size="14.00">+</text>
</g>
<!-- 128626939174528&#45;&gt;128626939513360+ -->
<g id="edge2" class="edge">
<title>128626939174528&#45;&gt;128626939513360+</title>
<path fill="none" stroke="black" d="M199.41,-56.25C208.65,-54.63 217.54,-53.08 225.55,-51.68"/>
<polygon fill="black" stroke="black" points="226.29,-55.11 235.54,-49.94 225.08,-48.21 226.29,-55.11"/>
</g>
<!-- 128626939513360 -->
<g id="node2" class="node">
<title>128626939513360</title>
<polygon fill="none" stroke="black" points="325,-27.5 325,-63.5 520,-63.5 520,-27.5 325,-27.5"/>
<text text-anchor="middle" x="335.5" y="-41.8" font-family="Times,serif" font-size="14.00"> </text>
<polyline fill="none" stroke="black" points="346,-27.5 346,-63.5 "/>
<text text-anchor="middle" x="379" y="-41.8" font-family="Times,serif" font-size="14.00">7.0000</text>
<polyline fill="none" stroke="black" points="412,-27.5 412,-63.5 "/>
<text text-anchor="middle" x="466" y="-41.8" font-family="Times,serif" font-size="14.00">grad: 0.0000</text>
</g>
<!-- 128626939513360+&#45;&gt;128626939513360 -->
<g id="edge1" class="edge">
<title>128626939513360+&#45;&gt;128626939513360</title>
<path fill="none" stroke="black" d="M289.17,-45.5C296.66,-45.5 305.32,-45.5 314.56,-45.5"/>
<polygon fill="black" stroke="black" points="314.78,-49 324.78,-45.5 314.78,-42 314.78,-49"/>
</g>
<!-- 128626939519312 -->
<g id="node4" class="node">
<title>128626939519312</title>
<polygon fill="none" stroke="black" points="2,-0.5 2,-36.5 197,-36.5 197,-0.5 2,-0.5"/>
<text text-anchor="middle" x="12.5" y="-14.8" font-family="Times,serif" font-size="14.00"> </text>
<polyline fill="none" stroke="black" points="23,-0.5 23,-36.5 "/>
<text text-anchor="middle" x="56" y="-14.8" font-family="Times,serif" font-size="14.00">5.0000</text>
<polyline fill="none" stroke="black" points="89,-0.5 89,-36.5 "/>
<text text-anchor="middle" x="143" y="-14.8" font-family="Times,serif" font-size="14.00">grad: 0.0000</text>
</g>
<!-- 128626939519312&#45;&gt;128626939513360+ -->
<g id="edge3" class="edge">
<title>128626939519312&#45;&gt;128626939513360+</title>
<path fill="none" stroke="black" d="M197.1,-34.75C207.21,-36.45 216.95,-38.09 225.65,-39.55"/>
<polygon fill="black" stroke="black" points="225.26,-43.04 235.7,-41.24 226.42,-36.13 225.26,-43.04"/>
</g>
</g>
</svg>
