<?xml version="1.0" encoding="UTF-8" standalone="no"?>
<!DOCTYPE svg PUBLIC "-//W3C//DTD SVG 1.1//EN"
 "http://www.w3.org/Graphics/SVG/1.1/DTD/svg11.dtd">
<!-- Generated by graphviz version 2.43.0 (0)
 -->
<!-- Title: %3 Pages: 1 -->
<svg width="2283pt" height="202pt"
 viewBox="0.00 0.00 2282.69 202.00" xmlns="http://www.w3.org/2000/svg" xmlns:xlink="http://www.w3.org/1999/xlink">
<g id="graph0" class="graph" transform="scale(1 1) rotate(0) translate(4 198)">
<title>%3</title>
<polygon fill="white" stroke="transparent" points="-4,4 -4,-198 2278.69,-198 2278.69,4 -4,4"/>
<!-- 128626718970880 -->
<g id="node1" class="node">
<title>128626718970880</title>
<polygon fill="none" stroke="black" points="1.5,-157.5 1.5,-193.5 196.5,-193.5 196.5,-157.5 1.5,-157.5"/>
<text text-anchor="middle" x="12" y="-171.8" font-family="Times,serif" font-size="14.00"> </text>
<polyline fill="none" stroke="black" points="22.5,-157.5 22.5,-193.5 "/>
<text text-anchor="middle" x="55.5" y="-171.8" font-family="Times,serif" font-size="14.00">0.5000</text>
<polyline fill="none" stroke="black" points="88.5,-157.5 88.5,-193.5 "/>
<text text-anchor="middle" x="142.5" y="-171.8" font-family="Times,serif" font-size="14.00">grad: 0.1236</text>
</g>
<!-- 128626718966704* -->
<g id="node18" class="node">
<title>128626718966704*</title>
<ellipse fill="none" stroke="black" cx="261" cy="-175.5" rx="27" ry="18"/>
<text text-anchor="middle" x="261" y="-171.8" font-family="Times,serif" font-size="14.00">*</text>
</g>
<!-- 128626718970880&#45;&gt;128626718966704* -->
<g id="edge14" class="edge">
<title>128626718970880&#45;&gt;128626718966704*</title>
<path fill="none" stroke="black" d="M196.76,-175.5C206.19,-175.5 215.29,-175.5 223.51,-175.5"/>
<polygon fill="black" stroke="black" points="223.76,-179 233.76,-175.5 223.76,-172 223.76,-179"/>
</g>
<!-- 128626718970928 -->
<g id="node2" class="node">
<title>128626718970928</title>
<polygon fill="none" stroke="black" points="2079.69,-133.5 2079.69,-169.5 2274.69,-169.5 2274.69,-133.5 2079.69,-133.5"/>
<text text-anchor="middle" x="2090.19" y="-147.8" font-family="Times,serif" font-size="14.00"> </text>
<polyline fill="none" stroke="black" points="2100.69,-133.5 2100.69,-169.5 "/>
<text text-anchor="middle" x="2133.69" y="-147.8" font-family="Times,serif" font-size="14.00">0.0618</text>
<polyline fill="none" stroke="black" points="2166.69,-133.5 2166.69,-169.5 "/>
<text text-anchor="middle" x="2220.69" y="-147.8" font-family="Times,serif" font-size="14.00">grad: 1.0000</text>
</g>
<!-- 128626718970928* -->
<g id="node3" class="node">
<title>128626718970928*</title>
<ellipse fill="none" stroke="black" cx="2016.69" cy="-151.5" rx="27" ry="18"/>
<text text-anchor="middle" x="2016.69" y="-147.8" font-family="Times,serif" font-size="14.00">*</text>
</g>
<!-- 128626718970928*&#45;&gt;128626718970928 -->
<g id="edge1" class="edge">
<title>128626718970928*&#45;&gt;128626718970928</title>
<path fill="none" stroke="black" d="M2043.87,-151.5C2051.36,-151.5 2060.02,-151.5 2069.25,-151.5"/>
<polygon fill="black" stroke="black" points="2069.47,-155 2079.47,-151.5 2069.47,-148 2069.47,-155"/>
</g>
<!-- 128626718965888 -->
<g id="node4" class="node">
<title>128626718965888</title>
<polygon fill="none" stroke="black" points="0,-102.5 0,-138.5 198,-138.5 198,-102.5 0,-102.5"/>
<text text-anchor="middle" x="12" y="-116.8" font-family="Times,serif" font-size="14.00">c</text>
<polyline fill="none" stroke="black" points="24,-102.5 24,-138.5 "/>
<text text-anchor="middle" x="57" y="-116.8" font-family="Times,serif" font-size="14.00">0.4000</text>
<polyline fill="none" stroke="black" points="90,-102.5 90,-138.5 "/>
<text text-anchor="middle" x="144" y="-116.8" font-family="Times,serif" font-size="14.00">grad: 0.2992</text>
</g>
<!-- 128626718972128+ -->
<g id="node13" class="node">
<title>128626718972128+</title>
<ellipse fill="none" stroke="black" cx="1044" cy="-73.5" rx="27" ry="18"/>
<text text-anchor="middle" x="1044" y="-69.8" font-family="Times,serif" font-size="14.00">+</text>
</g>
<!-- 128626718965888&#45;&gt;128626718972128+ -->
<g id="edge10" class="edge">
<title>128626718965888&#45;&gt;128626718972128+</title>
<path fill="none" stroke="black" d="M198.19,-120.5C261.62,-120.5 345.94,-120.5 420.5,-120.5 420.5,-120.5 420.5,-120.5 653.5,-120.5 799.3,-120.5 839.42,-136.31 981,-101.5 992.04,-98.79 1003.54,-94.16 1013.6,-89.43"/>
<polygon fill="black" stroke="black" points="1015.31,-92.49 1022.73,-84.94 1012.21,-86.21 1015.31,-92.49"/>
</g>
<!-- 128626718966512** -->
<g id="node15" class="node">
<title>128626718966512**</title>
<ellipse fill="none" stroke="black" cx="261" cy="-74.5" rx="27" ry="18"/>
<text text-anchor="middle" x="261" y="-70.8" font-family="Times,serif" font-size="14.00">**</text>
</g>
<!-- 128626718965888&#45;&gt;128626718966512** -->
<g id="edge13" class="edge">
<title>128626718965888&#45;&gt;128626718966512**</title>
<path fill="none" stroke="black" d="M162.78,-102.45C184.35,-96.25 207.67,-89.54 226.06,-84.26"/>
<polygon fill="black" stroke="black" points="227.09,-87.6 235.73,-81.48 225.16,-80.88 227.09,-87.6"/>
</g>
<!-- 128626718965888&#45;&gt;128626718966704* -->
<g id="edge15" class="edge">
<title>128626718965888&#45;&gt;128626718966704*</title>
<path fill="none" stroke="black" d="M167.59,-138.54C177.85,-141.64 188.26,-145 198,-148.5 208.28,-152.19 219.27,-156.76 229.1,-161.09"/>
<polygon fill="black" stroke="black" points="227.92,-164.39 238.48,-165.29 230.78,-158 227.92,-164.39"/>
</g>
<!-- 128626718972032 -->
<g id="node5" class="node">
<title>128626718972032</title>
<polygon fill="none" stroke="black" points="1428,-110.5 1428,-146.5 1623,-146.5 1623,-110.5 1428,-110.5"/>
<text text-anchor="middle" x="1438.5" y="-124.8" font-family="Times,serif" font-size="14.00"> </text>
<polyline fill="none" stroke="black" points="1449,-110.5 1449,-146.5 "/>
<text text-anchor="middle" x="1482" y="-124.8" font-family="Times,serif" font-size="14.00">0.3194</text>
<polyline fill="none" stroke="black" points="1515,-110.5 1515,-146.5 "/>
<text text-anchor="middle" x="1569" y="-124.8" font-family="Times,serif" font-size="14.00">grad: 0.1809</text>
</g>
<!-- 128626719489728tanh -->
<g id="node10" class="node">
<title>128626719489728tanh</title>
<ellipse fill="none" stroke="black" cx="1690.85" cy="-128.5" rx="31.7" ry="18"/>
<text text-anchor="middle" x="1690.85" y="-124.8" font-family="Times,serif" font-size="14.00">tanh</text>
</g>
<!-- 128626718972032&#45;&gt;128626719489728tanh -->
<g id="edge17" class="edge">
<title>128626718972032&#45;&gt;128626719489728tanh</title>
<path fill="none" stroke="black" d="M1623.41,-128.5C1632.29,-128.5 1640.93,-128.5 1648.87,-128.5"/>
<polygon fill="black" stroke="black" points="1648.88,-132 1658.88,-128.5 1648.88,-125 1648.88,-132"/>
</g>
<!-- 128626718972032* -->
<g id="node6" class="node">
<title>128626718972032*</title>
<ellipse fill="none" stroke="black" cx="1365" cy="-128.5" rx="27" ry="18"/>
<text text-anchor="middle" x="1365" y="-124.8" font-family="Times,serif" font-size="14.00">*</text>
</g>
<!-- 128626718972032*&#45;&gt;128626718972032 -->
<g id="edge2" class="edge">
<title>128626718972032*&#45;&gt;128626718972032</title>
<path fill="none" stroke="black" d="M1392.17,-128.5C1399.66,-128.5 1408.32,-128.5 1417.56,-128.5"/>
<polygon fill="black" stroke="black" points="1417.78,-132 1427.78,-128.5 1417.78,-125 1417.78,-132"/>
</g>
<!-- 128626718970544 -->
<g id="node7" class="node">
<title>128626718970544</title>
<polygon fill="none" stroke="black" points="786,-55.5 786,-91.5 981,-91.5 981,-55.5 786,-55.5"/>
<text text-anchor="middle" x="796.5" y="-69.8" font-family="Times,serif" font-size="14.00"> </text>
<polyline fill="none" stroke="black" points="807,-55.5 807,-91.5 "/>
<text text-anchor="middle" x="840" y="-69.8" font-family="Times,serif" font-size="14.00">0.0003</text>
<polyline fill="none" stroke="black" points="873,-55.5 873,-91.5 "/>
<text text-anchor="middle" x="927" y="-69.8" font-family="Times,serif" font-size="14.00">grad: 0.1443</text>
</g>
<!-- 128626718970544&#45;&gt;128626718972128+ -->
<g id="edge11" class="edge">
<title>128626718970544&#45;&gt;128626718972128+</title>
<path fill="none" stroke="black" d="M981.27,-73.5C990.22,-73.5 998.85,-73.5 1006.69,-73.5"/>
<polygon fill="black" stroke="black" points="1006.83,-77 1016.83,-73.5 1006.83,-70 1006.83,-77"/>
</g>
<!-- 128626718970544* -->
<g id="node8" class="node">
<title>128626718970544*</title>
<ellipse fill="none" stroke="black" cx="652.5" cy="-73.5" rx="27" ry="18"/>
<text text-anchor="middle" x="652.5" y="-69.8" font-family="Times,serif" font-size="14.00">*</text>
</g>
<!-- 128626718970544*&#45;&gt;128626718970544 -->
<g id="edge3" class="edge">
<title>128626718970544*&#45;&gt;128626718970544</title>
<path fill="none" stroke="black" d="M679.77,-73.5C703.56,-73.5 740.23,-73.5 775.88,-73.5"/>
<polygon fill="black" stroke="black" points="775.9,-77 785.9,-73.5 775.9,-70 775.9,-77"/>
</g>
<!-- 128626719489728 -->
<g id="node9" class="node">
<title>128626719489728</title>
<polygon fill="none" stroke="black" points="1758.69,-110.5 1758.69,-146.5 1953.69,-146.5 1953.69,-110.5 1758.69,-110.5"/>
<text text-anchor="middle" x="1769.19" y="-124.8" font-family="Times,serif" font-size="14.00"> </text>
<polyline fill="none" stroke="black" points="1779.69,-110.5 1779.69,-146.5 "/>
<text text-anchor="middle" x="1812.69" y="-124.8" font-family="Times,serif" font-size="14.00">0.3090</text>
<polyline fill="none" stroke="black" points="1845.69,-110.5 1845.69,-146.5 "/>
<text text-anchor="middle" x="1899.69" y="-124.8" font-family="Times,serif" font-size="14.00">grad: 0.2000</text>
</g>
<!-- 128626719489728&#45;&gt;128626718970928* -->
<g id="edge12" class="edge">
<title>128626719489728&#45;&gt;128626718970928*</title>
<path fill="none" stroke="black" d="M1953.96,-142.54C1963.19,-143.88 1972.09,-145.17 1980.12,-146.34"/>
<polygon fill="black" stroke="black" points="1979.73,-149.82 1990.13,-147.79 1980.73,-142.89 1979.73,-149.82"/>
</g>
<!-- 128626719489728tanh&#45;&gt;128626719489728 -->
<g id="edge4" class="edge">
<title>128626719489728tanh&#45;&gt;128626719489728</title>
<path fill="none" stroke="black" d="M1722.96,-128.5C1730.64,-128.5 1739.3,-128.5 1748.43,-128.5"/>
<polygon fill="black" stroke="black" points="1748.49,-132 1758.49,-128.5 1748.49,-125 1748.49,-132"/>
</g>
<!-- 128626718974672 -->
<g id="node11" class="node">
<title>128626718974672</title>
<polygon fill="none" stroke="black" points="1107,-110.5 1107,-146.5 1302,-146.5 1302,-110.5 1107,-110.5"/>
<text text-anchor="middle" x="1117.5" y="-124.8" font-family="Times,serif" font-size="14.00"> </text>
<polyline fill="none" stroke="black" points="1128,-110.5 1128,-146.5 "/>
<text text-anchor="middle" x="1161" y="-124.8" font-family="Times,serif" font-size="14.00">0.7979</text>
<polyline fill="none" stroke="black" points="1194,-110.5 1194,-146.5 "/>
<text text-anchor="middle" x="1248" y="-124.8" font-family="Times,serif" font-size="14.00">grad: 0.0724</text>
</g>
<!-- 128626718974672&#45;&gt;128626718972032* -->
<g id="edge19" class="edge">
<title>128626718974672&#45;&gt;128626718972032*</title>
<path fill="none" stroke="black" d="M1302.27,-128.5C1311.22,-128.5 1319.85,-128.5 1327.69,-128.5"/>
<polygon fill="black" stroke="black" points="1327.83,-132 1337.83,-128.5 1327.83,-125 1327.83,-132"/>
</g>
<!-- 128626718972128 -->
<g id="node12" class="node">
<title>128626718972128</title>
<polygon fill="none" stroke="black" points="1107,-55.5 1107,-91.5 1302,-91.5 1302,-55.5 1107,-55.5"/>
<text text-anchor="middle" x="1117.5" y="-69.8" font-family="Times,serif" font-size="14.00"> </text>
<polyline fill="none" stroke="black" points="1128,-55.5 1128,-91.5 "/>
<text text-anchor="middle" x="1161" y="-69.8" font-family="Times,serif" font-size="14.00">0.4003</text>
<polyline fill="none" stroke="black" points="1194,-55.5 1194,-91.5 "/>
<text text-anchor="middle" x="1248" y="-69.8" font-family="Times,serif" font-size="14.00">grad: 0.1443</text>
</g>
<!-- 128626718972128&#45;&gt;128626718972032* -->
<g id="edge8" class="edge">
<title>128626718972128&#45;&gt;128626718972032*</title>
<path fill="none" stroke="black" d="M1271.79,-91.51C1281.98,-94.63 1292.32,-98 1302,-101.5 1312.27,-105.21 1323.26,-109.79 1333.09,-114.11"/>
<polygon fill="black" stroke="black" points="1331.91,-117.42 1342.47,-118.31 1334.77,-111.03 1331.91,-117.42"/>
</g>
<!-- 128626718972128+&#45;&gt;128626718972128 -->
<g id="edge5" class="edge">
<title>128626718972128+&#45;&gt;128626718972128</title>
<path fill="none" stroke="black" d="M1071.17,-73.5C1078.66,-73.5 1087.32,-73.5 1096.56,-73.5"/>
<polygon fill="black" stroke="black" points="1096.78,-77 1106.78,-73.5 1096.78,-70 1096.78,-77"/>
</g>
<!-- 128626718966512 -->
<g id="node14" class="node">
<title>128626718966512</title>
<polygon fill="none" stroke="black" points="324,-55.5 324,-91.5 519,-91.5 519,-55.5 324,-55.5"/>
<text text-anchor="middle" x="334.5" y="-69.8" font-family="Times,serif" font-size="14.00"> </text>
<polyline fill="none" stroke="black" points="345,-55.5 345,-91.5 "/>
<text text-anchor="middle" x="378" y="-69.8" font-family="Times,serif" font-size="14.00">0.0640</text>
<polyline fill="none" stroke="black" points="411,-55.5 411,-91.5 "/>
<text text-anchor="middle" x="465" y="-69.8" font-family="Times,serif" font-size="14.00">grad: 0.0007</text>
</g>
<!-- 128626718966512&#45;&gt;128626718970544* -->
<g id="edge18" class="edge">
<title>128626718966512&#45;&gt;128626718970544*</title>
<path fill="none" stroke="black" d="M519.28,-73.5C553.19,-73.5 589.21,-73.5 615.08,-73.5"/>
<polygon fill="black" stroke="black" points="615.17,-77 625.17,-73.5 615.17,-70 615.17,-77"/>
</g>
<!-- 128626718966512**&#45;&gt;128626718966512 -->
<g id="edge6" class="edge">
<title>128626718966512**&#45;&gt;128626718966512</title>
<path fill="none" stroke="black" d="M288.17,-74.33C295.66,-74.29 304.32,-74.23 313.56,-74.17"/>
<polygon fill="black" stroke="black" points="313.8,-77.67 323.78,-74.11 313.75,-70.67 313.8,-77.67"/>
</g>
<!-- 128626718970688 -->
<g id="node16" class="node">
<title>128626718970688</title>
<polygon fill="none" stroke="black" points="324,-0.5 324,-36.5 519,-36.5 519,-0.5 324,-0.5"/>
<text text-anchor="middle" x="334.5" y="-14.8" font-family="Times,serif" font-size="14.00"> </text>
<polyline fill="none" stroke="black" points="345,-0.5 345,-36.5 "/>
<text text-anchor="middle" x="378" y="-14.8" font-family="Times,serif" font-size="14.00">0.0047</text>
<polyline fill="none" stroke="black" points="411,-0.5 411,-36.5 "/>
<text text-anchor="middle" x="465" y="-14.8" font-family="Times,serif" font-size="14.00">grad: 0.0092</text>
</g>
<!-- 128626718970688&#45;&gt;128626718970544* -->
<g id="edge16" class="edge">
<title>128626718970688&#45;&gt;128626718970544*</title>
<path fill="none" stroke="black" d="M497.48,-36.51C537.68,-46.16 585.28,-57.6 616.82,-65.17"/>
<polygon fill="black" stroke="black" points="616.32,-68.65 626.86,-67.58 617.95,-61.84 616.32,-68.65"/>
</g>
<!-- 128626718966704 -->
<g id="node17" class="node">
<title>128626718966704</title>
<polygon fill="none" stroke="black" points="555,-157.5 555,-193.5 750,-193.5 750,-157.5 555,-157.5"/>
<text text-anchor="middle" x="565.5" y="-171.8" font-family="Times,serif" font-size="14.00"> </text>
<polyline fill="none" stroke="black" points="576,-157.5 576,-193.5 "/>
<text text-anchor="middle" x="609" y="-171.8" font-family="Times,serif" font-size="14.00">0.2000</text>
<polyline fill="none" stroke="black" points="642,-157.5 642,-193.5 "/>
<text text-anchor="middle" x="696" y="-171.8" font-family="Times,serif" font-size="14.00">grad: 0.3090</text>
</g>
<!-- 128626718966704&#45;&gt;128626718970928* -->
<g id="edge9" class="edge">
<title>128626718966704&#45;&gt;128626718970928*</title>
<path fill="none" stroke="black" d="M750.34,-175.5C829.15,-175.5 943.26,-175.5 1043,-175.5 1043,-175.5 1043,-175.5 1691.85,-175.5 1796.62,-175.5 1919.94,-162.85 1979.66,-155.92"/>
<polygon fill="black" stroke="black" points="1980.19,-159.38 1989.72,-154.74 1979.38,-152.43 1980.19,-159.38"/>
</g>
<!-- 128626718966704*&#45;&gt;128626718966704 -->
<g id="edge7" class="edge">
<title>128626718966704*&#45;&gt;128626718966704</title>
<path fill="none" stroke="black" d="M288.16,-175.5C339.76,-175.5 457.23,-175.5 544.72,-175.5"/>
<polygon fill="black" stroke="black" points="544.96,-179 554.96,-175.5 544.96,-172 544.96,-179"/>
</g>
</g>
</svg>
