<?xml version="1.0" encoding="UTF-8" standalone="no"?>
<!DOCTYPE svg PUBLIC "-//W3C//DTD SVG 1.1//EN"
 "http://www.w3.org/Graphics/SVG/1.1/DTD/svg11.dtd">
<!-- Generated by graphviz version 2.43.0 (0)
 -->
<!-- Title: %3 Pages: 1 -->
<svg width="568pt" height="45pt"
 viewBox="0.00 0.00 567.89 45.00" xmlns="http://www.w3.org/2000/svg" xmlns:xlink="http://www.w3.org/1999/xlink">
<g id="graph0" class="graph" transform="scale(1 1) rotate(0) translate(4 41)">
<title>%3</title>
<polygon fill="white" stroke="transparent" points="-4,4 -4,-41 563.89,-41 563.89,4 -4,4"/>
<!-- 128626864305024 -->
<g id="node1" class="node">
<title>128626864305024</title>
<polygon fill="none" stroke="black" points="0,-0.5 0,-36.5 198,-36.5 198,-0.5 0,-0.5"/>
<text text-anchor="middle" x="12" y="-14.8" font-family="Times,serif" font-size="14.00">c</text>
<polyline fill="none" stroke="black" points="24,-0.5 24,-36.5 "/>
<text text-anchor="middle" x="57" y="-14.8" font-family="Times,serif" font-size="14.00">0.4000</text>
<polyline fill="none" stroke="black" points="90,-0.5 90,-36.5 "/>
<text text-anchor="middle" x="144" y="-14.8" font-family="Times,serif" font-size="14.00">grad: 0.2403</text>
</g>
<!-- 128626864304688sigmoid -->
<g id="node3" class="node">
<title>128626864304688sigmoid</title>
<ellipse fill="none" stroke="black" cx="281.45" cy="-18.5" rx="47.39" ry="18"/>
<text text-anchor="middle" x="281.45" y="-14.8" font-family="Times,serif" font-size="14.00">sigmoid</text>
</g>
<!-- 128626864305024&#45;&gt;128626864304688sigmoid -->
<g id="edge2" class="edge">
<title>128626864305024&#45;&gt;128626864304688sigmoid</title>
<path fill="none" stroke="black" d="M198.14,-18.5C206.86,-18.5 215.48,-18.5 223.67,-18.5"/>
<polygon fill="black" stroke="black" points="223.79,-22 233.79,-18.5 223.79,-15 223.79,-22"/>
</g>
<!-- 128626864304688 -->
<g id="node2" class="node">
<title>128626864304688</title>
<polygon fill="none" stroke="black" points="364.89,-0.5 364.89,-36.5 559.89,-36.5 559.89,-0.5 364.89,-0.5"/>
<text text-anchor="middle" x="375.39" y="-14.8" font-family="Times,serif" font-size="14.00"> </text>
<polyline fill="none" stroke="black" points="385.89,-0.5 385.89,-36.5 "/>
<text text-anchor="middle" x="418.89" y="-14.8" font-family="Times,serif" font-size="14.00">0.5987</text>
<polyline fill="none" stroke="black" points="451.89,-0.5 451.89,-36.5 "/>
<text text-anchor="middle" x="505.89" y="-14.8" font-family="Times,serif" font-size="14.00">grad: 1.0000</text>
</g>
<!-- 128626864304688sigmoid&#45;&gt;128626864304688 -->
<g id="edge1" class="edge">
<title>128626864304688sigmoid&#45;&gt;128626864304688</title>
<path fill="none" stroke="black" d="M328.99,-18.5C337.05,-18.5 345.7,-18.5 354.6,-18.5"/>
<polygon fill="black" stroke="black" points="354.72,-22 364.72,-18.5 354.72,-15 354.72,-22"/>
</g>
</g>
</svg>
